<svg width="22" height="22" viewBox="0 0 22 22" fill="none" xmlns="http://www.w3.org/2000/svg">
<path d="M13.5045 11.0245L11 8.52561L8.49554 11.0245L11 13.5234L13.5045 11.0245Z" fill="#F3BA2F"/>
<path d="M22 11.0245L19.5446 8.57461L17.0893 11.0245L19.5446 13.4744L22 11.0245Z" fill="#F3BA2F"/>
<path d="M2.45536 8.57461L4.91071 11.0245L2.45536 13.4744L0 11.0245L2.45536 8.57461Z" fill="#F3BA2F"/>
<path d="M11 17.1002L6.67857 12.7884L4.22321 15.2383L11 22L17.7768 15.2383L15.3214 12.7884L11 17.1002Z" fill="#F3BA2F"/>
<path d="M11 0L4.22321 6.76169L6.67857 9.21158L11 4.89978L15.3214 9.21158L17.7768 6.76169L11 0Z" fill="#F3BA2F"/>
<path d="M11 4.89978V0L17.7768 6.76169L15.3214 9.21158L11 4.89978Z" fill="#FFCF5B"/>
<path d="M19.5446 13.4744L17.0893 11.0245L19.5446 8.57461L22 11.0245L19.5446 13.4744Z" fill="#FFCF5B"/>
<path d="M11 13.5234V8.52561L13.5045 11.0245L11 13.5234Z" fill="#FFCF5B"/>
<path d="M11 22V17.1002L15.3214 12.7884L17.7768 15.2383L11 22Z" fill="#FFCF5B"/>
</svg>
