<svg width="71" height="94" viewBox="0 0 71 94" fill="none" xmlns="http://www.w3.org/2000/svg">
<g filter="url(#filter0_d)">
<path d="M41.4796 85.1962L32.7031 57.3554L54.8198 51.4392L63.2452 78.584L50.256 75.1039L41.4796 85.1962Z" fill="#B31500"/>
</g>
<path d="M60.8343 77.9624L54.0025 55.4578L52.7969 55.8596L59.2268 77.5606L60.8343 77.9624Z" fill="#EEEEEE"/>
<path d="M43.9558 82.3831L37.5259 60.6821L36.3203 61.084L43.1521 83.1868L43.9558 82.3831Z" fill="#EEEEEE"/>
<g filter="url(#filter1_d)">
<path d="M31.1591 85.9999L39.9355 58.1591L17.8189 52.2429L9.39349 79.3877L22.3826 75.9076L31.1591 85.9999Z" fill="#DD240B"/>
</g>
<path d="M11.8054 78.7661L18.6372 56.2615L19.8428 56.6633L13.4129 78.3643L11.8054 78.7661Z" fill="white"/>
<path d="M28.6828 83.1868L35.1128 61.4858L36.3184 61.8877L29.4866 83.9905L28.6828 83.1868Z" fill="white"/>
<g filter="url(#filter2_d)">
<circle cx="35.5152" cy="30.9439" r="30.9439" fill="url(#paint0_linear)"/>
<circle cx="35.5152" cy="30.9439" r="30.4439" stroke="url(#paint1_linear)"/>
</g>
<path d="M61.1365 30.944C61.1365 44.6431 49.8528 55.7617 35.9169 55.7617C21.981 55.7617 10.6973 44.6431 10.6973 30.944C10.6973 17.2449 21.981 6.12622 35.9169 6.12622C49.8528 6.12622 61.1365 17.2449 61.1365 30.944Z" fill="url(#paint2_linear)" stroke="url(#paint3_linear)"/>
<path d="M51.8754 20.8972C51.8754 23.8432 53.8393 28.0985 54.494 29.0805C56.1308 25.8072 54.8213 22.5339 51.8754 20.8972Z" fill="#EBC299"/>
<path d="M51.8769 20.8972C51.8769 23.8432 53.8409 28.0985 54.4956 29.0805C54.8229 26.4618 53.8409 22.8612 51.8769 20.8972Z" fill="#521D10"/>
<path d="M55.7054 27.1175C54.8856 29.5195 55.3027 33.5355 55.5632 34.5184C57.8087 32.305 57.6519 29.2718 55.7054 27.1175Z" fill="#EBC299"/>
<path d="M55.7069 27.1163C54.8871 29.5183 55.3042 33.5343 55.5647 34.5171C56.5603 32.4732 56.7617 29.2642 55.7069 27.1163Z" fill="#521D10"/>
<path d="M52.9594 28.4263C52.191 31.5233 52.7583 36.413 53.0612 37.584C55.3129 34.4898 55.0484 30.7712 52.9594 28.4263Z" fill="#EBC299"/>
<path d="M52.9607 28.4261C52.1922 31.5231 52.7595 36.4127 53.0625 37.5838C54.0251 34.9003 54.1256 30.9069 52.9607 28.4261Z" fill="#521D10"/>
<path d="M52.0183 35.628C49.6095 38.2369 47.5902 43.3535 47.274 44.6725C51.1673 42.8971 52.8702 39.0995 52.0183 35.628Z" fill="#EBC299"/>
<path d="M52.0198 35.6275C49.611 38.2365 47.5917 43.353 47.2755 44.672C49.66 42.5777 51.874 38.7149 52.0198 35.6275Z" fill="#521D10"/>
<path d="M56.4634 35.6272C53.5747 37.6922 50.5578 42.2917 49.9801 43.5189C54.1529 42.5718 56.592 39.1994 56.4634 35.6272Z" fill="#EBC299"/>
<path d="M56.4626 35.6272C53.5739 37.6922 50.5571 42.2916 49.9794 43.5189C52.7397 41.9527 55.6925 38.6205 56.4626 35.6272Z" fill="#521D10"/>
<path d="M46.9027 42.174C43.5265 43.2743 39.2657 46.753 38.3456 47.7496C42.61 48.1017 45.9507 45.6194 46.9027 42.174Z" fill="#EBC299"/>
<path d="M46.9027 42.174C43.5266 43.2743 39.2657 46.7531 38.3456 47.7497C41.4492 47.0865 45.2677 44.797 46.9027 42.174Z" fill="#521D10"/>
<path d="M51.4844 44.7923C47.9575 45.2048 43.094 47.7743 41.9953 48.5697C46.1064 49.7565 49.8713 47.9821 51.4844 44.7923Z" fill="#EBC299"/>
<path d="M51.4838 44.7928C47.9569 45.2052 43.0934 47.7747 41.9947 48.5702C45.1682 48.5325 49.3634 47.0415 51.4838 44.7928Z" fill="#521D10"/>
<path d="M19.1569 20.8972C19.1569 23.8432 17.1929 28.0985 16.5382 29.0805C14.9014 25.8072 16.2109 22.5339 19.1569 20.8972Z" fill="#EBC299"/>
<path d="M19.1563 20.8972C19.1563 23.8432 17.1923 28.0985 16.5376 29.0805C16.2103 26.4618 17.1923 22.8612 19.1563 20.8972Z" fill="#521D10"/>
<path d="M15.3268 27.1165C16.1466 29.5185 15.7295 33.5345 15.469 34.5174C13.2235 32.304 13.3803 29.2708 15.3268 27.1165Z" fill="#EBC299"/>
<path d="M15.3272 27.1166C16.1471 29.5185 15.7299 33.5346 15.4695 34.5174C14.4738 32.4734 14.2725 29.2644 15.3272 27.1166Z" fill="#521D10"/>
<path d="M18.0738 28.4268C18.8422 31.5238 18.275 36.4135 17.972 37.5845C15.7203 34.4902 15.9848 30.7716 18.0738 28.4268Z" fill="#EBC299"/>
<path d="M18.0715 28.4261C18.84 31.5231 18.2727 36.4127 17.9698 37.5838C17.0072 34.9003 16.9066 30.9069 18.0715 28.4261Z" fill="#521D10"/>
<path d="M19.014 35.6272C21.4228 38.2362 23.442 43.3527 23.7583 44.6717C19.865 42.8964 18.1621 39.0987 19.014 35.6272Z" fill="#EBC299"/>
<path d="M19.0134 35.6275C21.4222 38.2365 23.4415 43.353 23.7577 44.672C21.3732 42.5777 19.1592 38.7149 19.0134 35.6275Z" fill="#521D10"/>
<path d="M14.5708 35.6272C17.4595 37.6922 20.4764 42.2917 21.0541 43.5189C16.8812 42.5718 14.4422 39.1994 14.5708 35.6272Z" fill="#EBC299"/>
<path d="M14.5715 35.6272C17.4602 37.6922 20.4771 42.2916 21.0548 43.5189C18.2945 41.9527 15.3417 38.6205 14.5715 35.6272Z" fill="#521D10"/>
<path d="M24.1315 42.174C27.5076 43.2743 31.7685 46.753 32.6886 47.7496C28.4241 48.1017 25.0835 45.6194 24.1315 42.174Z" fill="#EBC299"/>
<path d="M24.1315 42.1745C27.5076 43.2748 31.7685 46.7536 32.6886 47.7501C29.585 47.087 25.7665 44.7975 24.1315 42.1745Z" fill="#521D10"/>
<path d="M19.5498 44.7923C23.0766 45.2048 27.9402 47.7743 29.0389 48.5697C24.9277 49.7565 21.1629 47.9821 19.5498 44.7923Z" fill="#EBC299"/>
<path d="M19.5504 44.7928C23.0773 45.2052 27.9408 47.7747 29.0395 48.5702C25.866 48.5325 21.6708 47.0415 19.5504 44.7928Z" fill="#521D10"/>
<path d="M32.3575 50.1763C31.1246 50.7504 29.2753 53.0468 28.0424 53.0468C26.8097 51.3245 32.9739 49.0281 33.5899 49.0281C34.3608 49.0281 34.4119 49.2194 34.2065 49.6022C33.5904 49.6022 33.0948 49.8329 32.3575 50.1763Z" fill="#4E1C0D"/>
<path d="M39.2325 50.1763C40.3113 50.7504 41.9294 53.0468 43.0082 53.0468C44.0868 51.3245 38.6931 49.0281 38.1541 49.0281C37.4796 49.0281 37.4348 49.2194 37.6146 49.6022C38.1537 49.6022 38.5873 49.8329 39.2325 50.1763Z" fill="#4E1C0D"/>
<path d="M37.1199 19.756H39.4999C40.2653 19.756 40.8066 19.924 41.124 20.26C41.4413 20.5773 41.5999 21.1373 41.5999 21.94V27.064C41.5999 27.9227 41.3759 28.5667 40.9279 28.996C41.3946 29.4067 41.628 30.144 41.628 31.208V37.592C41.628 38.6373 41.4786 39.3 41.1799 39.58C40.8813 39.86 40.2373 40 39.2479 40H37.1479V31.88C37.1479 31.5813 37.1013 31.376 37.0079 31.264C36.9333 31.1333 36.7279 31.068 36.3919 31.068H33.3679V28.408H35.4399L36.3639 28.38C36.7933 28.38 37.0359 28.2867 37.0919 28.1C37.1106 28.044 37.1199 27.96 37.1199 27.848V19.756ZM36.0279 22.416H33.3679C32.9759 22.416 32.7333 22.4813 32.6399 22.612C32.5466 22.724 32.4999 22.9387 32.4999 23.256V26.364H29.4199C28.7293 26.364 28.3186 26.308 28.1879 26.196C28.0759 26.084 28.0199 25.7387 28.0199 25.16V22.752C28.0199 21.7253 28.1693 20.9693 28.4679 20.484C28.7853 19.9987 29.4666 19.756 30.5119 19.756H36.0279V22.416ZM32.4999 33.392V36.5C32.4999 36.8173 32.5466 37.0413 32.6399 37.172C32.7333 37.284 32.9759 37.34 33.3679 37.34H36.0279V40H30.5119C29.4666 40 28.7853 39.7573 28.4679 39.272C28.1693 38.7867 28.0199 38.0307 28.0199 37.004V34.596C28.0199 34.0173 28.0759 33.672 28.1879 33.56C28.3186 33.448 28.7293 33.392 29.4199 33.392H32.4999Z" fill="#501B0E"/>
<defs>
<filter id="filter0_d" x="28.7031" y="51.4392" width="38.5421" height="41.757" filterUnits="userSpaceOnUse" color-interpolation-filters="sRGB">
<feFlood flood-opacity="0" result="BackgroundImageFix"/>
<feColorMatrix in="SourceAlpha" type="matrix" values="0 0 0 0 0 0 0 0 0 0 0 0 0 0 0 0 0 0 127 0"/>
<feOffset dy="4"/>
<feGaussianBlur stdDeviation="2"/>
<feColorMatrix type="matrix" values="0 0 0 0 0 0 0 0 0 0 0 0 0 0 0 0 0 0 0.25 0"/>
<feBlend mode="normal" in2="BackgroundImageFix" result="effect1_dropShadow"/>
<feBlend mode="normal" in="SourceGraphic" in2="effect1_dropShadow" result="shape"/>
</filter>
<filter id="filter1_d" x="5.39355" y="52.2429" width="38.5421" height="41.757" filterUnits="userSpaceOnUse" color-interpolation-filters="sRGB">
<feFlood flood-opacity="0" result="BackgroundImageFix"/>
<feColorMatrix in="SourceAlpha" type="matrix" values="0 0 0 0 0 0 0 0 0 0 0 0 0 0 0 0 0 0 127 0"/>
<feOffset dy="4"/>
<feGaussianBlur stdDeviation="2"/>
<feColorMatrix type="matrix" values="0 0 0 0 0 0 0 0 0 0 0 0 0 0 0 0 0 0 0.25 0"/>
<feBlend mode="normal" in2="BackgroundImageFix" result="effect1_dropShadow"/>
<feBlend mode="normal" in="SourceGraphic" in2="effect1_dropShadow" result="shape"/>
</filter>
<filter id="filter2_d" x="0.571289" y="0" width="69.8879" height="69.8879" filterUnits="userSpaceOnUse" color-interpolation-filters="sRGB">
<feFlood flood-opacity="0" result="BackgroundImageFix"/>
<feColorMatrix in="SourceAlpha" type="matrix" values="0 0 0 0 0 0 0 0 0 0 0 0 0 0 0 0 0 0 127 0"/>
<feOffset dy="4"/>
<feGaussianBlur stdDeviation="2"/>
<feColorMatrix type="matrix" values="0 0 0 0 0 0 0 0 0 0 0 0 0 0 0 0 0 0 0.25 0"/>
<feBlend mode="normal" in2="BackgroundImageFix" result="effect1_dropShadow"/>
<feBlend mode="normal" in="SourceGraphic" in2="effect1_dropShadow" result="shape"/>
</filter>
<linearGradient id="paint0_linear" x1="35.5152" y1="0" x2="35.5152" y2="61.8879" gradientUnits="userSpaceOnUse">
<stop stop-color="#C57230"/>
<stop offset="0.265625" stop-color="#EECDA5"/>
<stop offset="0.640625" stop-color="#95471B"/>
<stop offset="0.885417" stop-color="#E8CBA0"/>
<stop offset="1" stop-color="#C26831"/>
</linearGradient>
<linearGradient id="paint1_linear" x1="53.2113" y1="3.28779" x2="15.7885" y2="56.1826" gradientUnits="userSpaceOnUse">
<stop stop-color="#E3C69C"/>
<stop offset="0.307292" stop-color="#E9BE8F"/>
<stop offset="0.71875" stop-color="#A1562A"/>
<stop offset="1" stop-color="#D9A169"/>
</linearGradient>
<linearGradient id="paint2_linear" x1="35.9169" y1="5.62622" x2="35.9169" y2="56.2617" gradientUnits="userSpaceOnUse">
<stop stop-color="#E2B075"/>
<stop offset="0.53125" stop-color="#EDD5A8"/>
<stop offset="1" stop-color="#B06231"/>
</linearGradient>
<linearGradient id="paint3_linear" x1="16.2253" y1="8.84118" x2="56.8141" y2="56.2617" gradientUnits="userSpaceOnUse">
<stop stop-color="#CD7A36"/>
<stop offset="0.333333" stop-color="#E2B982"/>
<stop offset="0.723958" stop-color="#AB693E"/>
<stop offset="1" stop-color="#C9703D"/>
</linearGradient>
</defs>
</svg>
