<svg width="16" height="18" viewBox="0 0 16 18" fill="none" xmlns="http://www.w3.org/2000/svg">
<path d="M0.898926 16.3125C0.898926 17.2441 1.61544 18 2.49859 18H14.2294C15.1126 18 15.8291 17.2441 15.8291 16.3125V6.75H0.898926V16.3125ZM11.5633 9.42188C11.5633 9.18984 11.7433 9 11.9632 9H13.2963C13.5162 9 13.6962 9.18984 13.6962 9.42188V10.8281C13.6962 11.0602 13.5162 11.25 13.2963 11.25H11.9632C11.7433 11.25 11.5633 11.0602 11.5633 10.8281V9.42188ZM11.5633 13.9219C11.5633 13.6898 11.7433 13.5 11.9632 13.5H13.2963C13.5162 13.5 13.6962 13.6898 13.6962 13.9219V15.3281C13.6962 15.5602 13.5162 15.75 13.2963 15.75H11.9632C11.7433 15.75 11.5633 15.5602 11.5633 15.3281V13.9219ZM7.29757 9.42188C7.29757 9.18984 7.47753 9 7.69748 9H9.03053C9.25049 9 9.43045 9.18984 9.43045 9.42188V10.8281C9.43045 11.0602 9.25049 11.25 9.03053 11.25H7.69748C7.47753 11.25 7.29757 11.0602 7.29757 10.8281V9.42188ZM7.29757 13.9219C7.29757 13.6898 7.47753 13.5 7.69748 13.5H9.03053C9.25049 13.5 9.43045 13.6898 9.43045 13.9219V15.3281C9.43045 15.5602 9.25049 15.75 9.03053 15.75H7.69748C7.47753 15.75 7.29757 15.5602 7.29757 15.3281V13.9219ZM3.03181 9.42188C3.03181 9.18984 3.21177 9 3.43172 9H4.76477C4.98472 9 5.16469 9.18984 5.16469 9.42188V10.8281C5.16469 11.0602 4.98472 11.25 4.76477 11.25H3.43172C3.21177 11.25 3.03181 11.0602 3.03181 10.8281V9.42188ZM3.03181 13.9219C3.03181 13.6898 3.21177 13.5 3.43172 13.5H4.76477C4.98472 13.5 5.16469 13.6898 5.16469 13.9219V15.3281C5.16469 15.5602 4.98472 15.75 4.76477 15.75H3.43172C3.21177 15.75 3.03181 15.5602 3.03181 15.3281V13.9219ZM14.2294 2.25H12.6298V0.5625C12.6298 0.253125 12.3898 0 12.0965 0H11.0301C10.7368 0 10.4969 0.253125 10.4969 0.5625V2.25H6.23113V0.5625C6.23113 0.253125 5.99118 0 5.69791 0H4.63147C4.3382 0 4.09825 0.253125 4.09825 0.5625V2.25H2.49859C1.61544 2.25 0.898926 3.00586 0.898926 3.9375V5.625H15.8291V3.9375C15.8291 3.00586 15.1126 2.25 14.2294 2.25Z" fill="#777777"/>
</svg>
