<svg width="31" height="35" viewBox="0 0 31 35" fill="none" xmlns="http://www.w3.org/2000/svg">
<g clip-path="url(#clip0)">
<path d="M13.6491 16.8812L12.2205 15.4526L2.4954 24.4302C1.85275 25.0234 1.83259 26.0321 2.45105 26.6506C3.06951 27.2691 4.07822 27.2489 4.67147 26.6062L13.6491 16.8812Z" fill="#873F30"/>
<path d="M4.62859 26.6513C4.03063 27.2492 3.05477 27.2543 2.45127 26.6508C2.27274 26.4723 2.14767 26.2614 2.07568 26.0372C2.60907 26.2107 3.21762 26.0838 3.6384 25.663C3.65318 25.6482 3.66791 25.6325 3.68224 25.6174L12.66 15.8921L13.6492 16.8813L4.67152 26.6065C4.65719 26.6217 4.64292 26.6369 4.62859 26.6513Z" fill="#6C3328"/>
<path d="M15.0561 12.0674L11.7664 15.9915L13.1102 17.3353L17.0343 14.0456L15.0561 12.0674Z" fill="#873F30"/>
<path d="M15.056 12.0674L13.993 13.3354L14.312 13.6543C14.5467 13.8891 14.5467 14.2697 14.312 14.5045L12.2957 16.5208L13.1101 17.3353L17.0342 14.0456L15.056 12.0674Z" fill="#6C3328"/>
<path d="M12.3112 18.0949L11.0067 16.7904C10.6296 16.4133 10.6296 15.8018 11.0067 15.4247C11.3838 15.0476 11.9953 15.0476 12.3724 15.4247L13.6769 16.7292C14.054 17.1063 14.054 17.7177 13.6769 18.0949C13.2998 18.472 12.6883 18.472 12.3112 18.0949Z" fill="#BA5D4F"/>
<path d="M13.6765 18.0947C13.4878 18.2835 13.2405 18.3775 12.9941 18.3776C12.7468 18.3776 12.4995 18.2835 12.3108 18.0947L11.322 17.106C11.5107 17.2947 11.758 17.3888 12.0049 17.3883C12.2517 17.3888 12.499 17.2946 12.6877 17.106C13.0651 16.7286 13.0647 16.1172 12.6877 15.7402L13.6765 16.729C14.0539 17.1065 14.054 17.7173 13.6765 18.0947Z" fill="#A34F41"/>
<path d="M16.7607 3.09863L19.6572 5.99512L15.1099 10.5425L12.2134 7.64601L16.7607 3.09863Z" fill="#BA5D4F"/>
<path d="M21.4546 16.8914L18.5581 13.9949L23.1055 9.44749L26.002 12.344L21.4546 16.8914Z" fill="#A34F41"/>
<path d="M11.398 8.64428L11.2974 8.54369C10.9158 8.16215 10.9158 7.54358 11.2974 7.16199L16.2748 2.18459C16.6563 1.80305 17.2749 1.80305 17.6565 2.18459L17.7571 2.28518C18.1386 2.66671 18.1386 3.28528 17.7571 3.66687L12.7797 8.64428C12.3981 9.02581 11.7796 9.02581 11.398 8.64428Z" fill="#873F30"/>
<path d="M20.4571 17.7034L20.5577 17.804C20.9392 18.1855 21.5578 18.1855 21.9394 17.804L26.9168 12.8265C27.2983 12.445 27.2983 11.8264 26.9168 11.4448L26.8162 11.3443C26.4347 10.9627 25.8161 10.9627 25.4345 11.3443L20.4571 16.3217C20.0755 16.7033 20.0755 17.3218 20.4571 17.7034Z" fill="#6C3328"/>
<path d="M20.9138 4.93115L24.1666 8.18388L17.2986 15.0518L14.0459 11.7991L20.9138 4.93115Z" fill="#FCC16D"/>
<path d="M15.6501 13.4092L22.5181 6.54128L24.1644 8.18761L17.2965 15.0555L15.6501 13.4092Z" fill="#FCA62F"/>
<path d="M20.9297 4.79438L20.1328 4.46859C19.8596 4.35689 19.546 4.41999 19.3374 4.62871L13.7415 10.2246C13.5328 10.4333 13.4697 10.7468 13.5814 11.02L13.9072 11.8169C14.0393 12.14 14.4579 12.2243 14.7047 11.9775L21.0902 5.59194C21.3371 5.3451 21.2528 4.92647 20.9297 4.79438Z" fill="#873F30"/>
<path d="M24.307 8.1717L24.6328 8.96863C24.7445 9.24181 24.6814 9.55537 24.4727 9.76404L18.8768 15.3599C18.6681 15.5686 18.3546 15.6317 18.0814 15.52L17.2845 15.1942C16.9614 15.0621 16.8771 14.6435 17.1239 14.3967L23.5095 8.01112C23.7563 7.76428 24.1749 7.84856 24.307 8.1717Z" fill="#6C3328"/>
<path d="M27.2572 23.8334H15.3921V22.1683C15.3921 21.8246 15.6708 21.5459 16.0145 21.5459H26.6348C26.9786 21.5459 27.2572 21.8246 27.2572 22.1683V23.8334Z" fill="#BA5D4F"/>
<path d="M27.257 22.1683V23.8333H25.9549V22.1683C25.9549 21.8247 25.6761 21.5459 25.3325 21.5459H26.6346C26.9782 21.5459 27.257 21.8247 27.257 22.1683Z" fill="#A34F41"/>
<path d="M29.8723 27.1015H12.7772C12.3237 27.1015 12.0225 26.6321 12.2113 26.2199L12.8157 24.9004C13.3391 23.7573 14.4809 23.0244 15.7381 23.0244H26.9114C28.1685 23.0244 29.3104 23.7573 29.8338 24.9004L30.4382 26.2199C30.627 26.6321 30.3257 27.1015 29.8723 27.1015Z" fill="#873F30"/>
<path d="M29.8725 27.1016H28.2081C28.6613 27.1016 28.9625 26.6322 28.7739 26.2202L28.1696 24.9001C27.6461 23.7573 26.504 23.0242 25.2473 23.0242H26.911C28.1683 23.0242 29.3104 23.7574 29.8339 24.9001L30.4383 26.2202C30.6269 26.6323 30.3256 27.1016 29.8725 27.1016Z" fill="#6C3328"/>
<path d="M28.9655 20.515C28.8547 20.515 28.7441 20.4725 28.6598 20.3878C28.4919 20.2189 28.4927 19.9459 28.6616 19.7781L29.1281 19.3143C29.297 19.1465 29.57 19.1473 29.7379 19.3161C29.9057 19.485 29.9049 19.758 29.7361 19.9258L29.2695 20.3896C29.1854 20.4732 29.0754 20.515 28.9655 20.515Z" fill="#FCC16D"/>
<path d="M27.6051 19.5508C27.5704 19.5508 27.5351 19.5465 27.4999 19.5377C27.269 19.4798 27.1287 19.2456 27.1866 19.0147L27.3484 18.3695C27.4064 18.1386 27.6407 17.9984 27.8715 18.0563C28.1024 18.1142 28.2426 18.3484 28.1847 18.5793L28.0229 19.2244C27.9739 19.4202 27.7982 19.5508 27.6051 19.5508Z" fill="#FCC16D"/>
<path d="M29.9223 21.8811C29.7283 21.8811 29.5521 21.7492 29.5039 21.5524C29.4473 21.321 29.5889 21.0877 29.8202 21.0311L30.4665 20.8731C30.698 20.8164 30.9311 20.9581 30.9877 21.1894C31.0443 21.4207 30.9027 21.6541 30.6714 21.7106L30.0251 21.8687C29.9907 21.8771 29.9562 21.8811 29.9223 21.8811Z" fill="#FCC16D"/>
</g>
<circle cx="12" cy="23" r="12" fill="black" fill-opacity="0.59"/>
<rect x="6" y="17" width="4" height="12" rx="2" fill="white"/>
<rect x="14" y="17" width="4" height="12" rx="2" fill="white"/>
<defs>
<clipPath id="clip0">
<rect width="29" height="29" fill="white" transform="translate(2)"/>
</clipPath>
</defs>
</svg>
