<svg width="28" height="28" viewBox="0 0 28 28" fill="none" xmlns="http://www.w3.org/2000/svg">
<g clip-path="url(#clip0)">
<path d="M27.7073 10.2929L20.7071 3.29278C20.3166 2.90231 19.6834 2.90243 19.2929 3.29302C19.1055 3.48052 19.0002 3.7347 19.0001 3.99985V6.99989H12C11.4477 6.99989 10.9999 7.44762 10.9999 7.99993C10.9999 8.55224 11.4477 8.99996 12 8.99996H20.0001C20.5525 8.99996 21.0002 8.55224 21.0002 7.99993V6.41383L25.5863 10.9999L21.0002 15.586V14C21.0002 13.4477 20.5525 12.9999 20.0001 12.9999H8.99992V9.99988C8.99981 9.44757 8.55197 8.99997 7.99971 9.00008C7.73463 9.00014 7.48039 9.10544 7.29289 9.29288L0.292812 16.293C-0.0976041 16.6835 -0.0976041 17.3165 0.292812 17.707L7.29294 24.7072C7.48045 24.8947 7.73475 25.0001 7.99995 25.0002C8.13138 25.0006 8.26163 24.9748 8.38292 24.9242C8.75652 24.7693 9.00004 24.4046 8.99992 24.0001V21.0001H16.0001C16.5524 21.0001 17.0001 20.5524 17.0001 20.0001C17.0001 19.4478 16.5524 19 16.0001 19H7.99995C7.44763 19 6.99991 19.4478 6.99991 20.0001V21.5861L2.41382 17L6.99991 12.4139V14C6.99991 14.5523 7.44763 15 7.99995 15H19.0001V18.0001C19.0002 18.5524 19.4481 19 20.0003 18.9999C20.2654 18.9998 20.5196 18.8945 20.7071 18.7071L27.7073 11.7069C28.0976 11.3164 28.0976 10.6834 27.7073 10.2929Z" fill="#FE9D00"/>
</g>
<defs>
<clipPath id="clip0">
<rect width="28" height="28" fill="white"/>
</clipPath>
</defs>
</svg>
