<svg width="452" height="418" viewBox="0 0 452 418" fill="none" xmlns="http://www.w3.org/2000/svg">
<g opacity="0.3">
<rect x="53.6" y="29.6284" width="58.3631" height="58.419" rx="10" fill="#C4C4C4"/>
<rect x="53.6" y="91.7275" width="58.3631" height="58.419" rx="10" fill="#F5F7FF"/>
<rect x="53.6" y="153.826" width="58.3631" height="58.419" rx="10" fill="#EEF1FF"/>
<rect x="53.6" y="215.925" width="58.3631" height="58.419" rx="10" fill="#FDE9E8"/>
<rect x="53.6" y="278.023" width="58.3631" height="58.419" rx="10" fill="#ACB9FF"/>
<rect x="53.6" y="340.122" width="58.3631" height="58.419" rx="10" fill="#C4C4C4"/>
<rect x="116.374" y="29.6284" width="58.3631" height="58.419" rx="10" fill="#FBDDDB"/>
<rect x="116.374" y="91.7275" width="58.3631" height="58.419" rx="10" fill="#FFEEFC"/>
<rect x="116.374" y="153.826" width="58.3631" height="58.419" rx="10" fill="#D8EEF8"/>
<rect x="116.374" y="215.925" width="58.3631" height="58.419" rx="10" fill="#EEF1FF"/>
<rect x="116.374" y="278.023" width="58.3631" height="58.419" rx="10" fill="#D8EEF8"/>
<rect x="116.374" y="340.122" width="58.3631" height="58.419" rx="10" fill="#EEF1FF"/>
<rect x="179.149" y="29.6284" width="58.3631" height="58.419" rx="10" fill="#E5D6F4"/>
<rect x="179.149" y="91.7275" width="58.3631" height="58.419" rx="10" fill="#FBDDDB"/>
<rect x="179.149" y="153.826" width="58.3631" height="58.419" rx="10" fill="#EEF1FF"/>
<rect x="179.149" y="215.925" width="58.3631" height="58.419" rx="10" fill="#FFEEFC"/>
<rect x="179.149" y="278.023" width="58.3631" height="58.419" rx="10" fill="#D8EEF8"/>
<rect x="179.149" y="340.122" width="58.3631" height="58.419" rx="10" fill="#D8EEF8"/>
<rect x="241.923" y="29.6284" width="58.3631" height="58.419" rx="10" fill="#FBDDDB"/>
<rect x="241.923" y="91.7275" width="58.3631" height="58.419" rx="10" fill="#EEF1FF"/>
<rect x="241.923" y="153.826" width="58.3631" height="58.419" rx="10" fill="#F7F6D9"/>
<rect x="241.923" y="215.925" width="58.3631" height="58.419" rx="10" fill="#E0F8F5"/>
<rect x="241.923" y="278.023" width="58.3631" height="58.419" rx="10" fill="#EEF1FF"/>
<rect x="241.923" y="340.122" width="58.3631" height="58.419" rx="10" fill="#FBDDDB"/>
<rect x="304.698" y="29.6284" width="58.3631" height="58.419" rx="10" fill="#E0F8F5"/>
<rect x="304.698" y="91.7275" width="58.3631" height="58.419" rx="10" fill="#E5D6F4"/>
<rect x="304.698" y="153.826" width="58.3631" height="58.419" rx="10" fill="#D8EEF8"/>
<rect x="304.698" y="215.925" width="58.3631" height="58.419" rx="10" fill="#D8EEF8"/>
<rect x="304.698" y="278.023" width="58.3631" height="58.419" rx="10" fill="#FCE5E4"/>
<rect x="304.698" y="340.122" width="58.3631" height="58.419" rx="10" fill="#E5D6F4"/>
<rect x="367.472" y="29.6284" width="58.3632" height="58.419" rx="10" fill="#C4C4C4"/>
<rect x="367.472" y="91.7275" width="58.3632" height="58.419" rx="10" fill="#FFEEFC"/>
<rect x="367.472" y="153.826" width="58.3632" height="58.419" rx="10" fill="#FCE5E4"/>
<rect x="367.472" y="215.925" width="58.3632" height="58.419" rx="10" fill="#F5F7FF"/>
<rect x="367.472" y="278.023" width="58.3632" height="58.419" rx="10" fill="#C4C4C4"/>
<rect x="367.472" y="340.122" width="58.3632" height="58.419" rx="10" fill="#C4C4C4"/>
</g>
<path d="M169 331L162 331.5L150.5 389.5L151.5 404L169 331Z" fill="white" fill-opacity="0.19"/>
</svg>
