<svg width="61" height="60" viewBox="0 0 61 60" fill="none" xmlns="http://www.w3.org/2000/svg">
<circle cx="31" cy="30" r="30" fill="#B09CFF"/>
<circle cx="31" cy="30" r="28" fill="#392198"/>
<path d="M46.65 44L48 49H21L28.425 39.7143L30.45 41.1429L37.2 34L46.65 44Z" fill="#CCD1D9"/>
<path d="M46.6667 44L37.3333 34L36 35.4286L44.6667 44.7143L45.6987 49H48L46.6667 44Z" fill="#AAB2BD"/>
<path d="M52 9C52 12.2471 50.0706 15.0329 47.2941 16.2847C46.288 16.7459 45.1765 17 44 17C42.8235 17 41.7129 16.7459 40.7059 16.2941C37.9304 15.0424 36 12.2471 36 9C36 4.57647 39.5774 1 44 1C48.4151 1 52 4.57647 52 9Z" fill="#FFCE54"/>
<path d="M43.9071 1C43.2501 1 42.6141 1.08565 42.001 1.23153C45.5495 2.07765 48.1916 5.22682 48.1916 9C48.1916 12.2471 46.2397 15.0329 43.431 16.2847C42.975 16.4918 42.4951 16.6499 42 16.7685C42.6122 16.9153 43.2482 17 43.9071 17C45.0972 17 46.2217 16.7459 47.2395 16.2847C50.0482 15.0329 52 12.2471 52 9C52 4.57647 48.3734 1 43.9071 1Z" fill="#F6BB42"/>
<path d="M47.2941 16.4304C46.288 16.9008 45.1765 17.16 44 17.16C42.8235 17.16 41.7129 16.9008 40.7059 16.44C37.9304 15.1632 36 12.312 36 9V12.84C36 16.1424 37.9304 18.9936 40.7059 20.28C41.7129 20.7408 42.8235 21 44 21C45.1765 21 46.288 20.7408 47.2941 20.2704C50.0706 18.9936 52 16.1424 52 12.84V9C52 12.312 50.0706 15.1536 47.2941 16.4304Z" fill="#EDAB37"/>
<path d="M52.1143 31.021V33.786C52.1143 35.5648 50.6672 37.0118 48.8884 37.0118C47.1087 37.0118 45.6626 35.5648 45.6626 33.786V31.021C45.6626 32.7998 47.1087 34.2468 48.8884 34.2468C50.6672 34.2468 52.1143 32.7998 52.1143 31.021Z" fill="#EDAB37"/>
<path d="M52.1143 31.1286C52.1143 32.9247 50.6532 34.3857 48.8571 34.3857C47.0601 34.3857 45.6 32.9247 45.6 31.1286C45.6 29.3325 47.0601 27.8714 48.8571 27.8714C50.6532 27.8714 52.1143 29.3325 52.1143 31.1286Z" fill="#FFCE54"/>
<path d="M39.5045 30.8658C40.4473 30.8658 41.2117 30.1014 41.2117 29.1586C41.2117 28.2157 40.4473 27.4513 39.5045 27.4513C38.5616 27.4513 37.7972 28.2157 37.7972 29.1586C37.7972 30.1014 38.5616 30.8658 39.5045 30.8658Z" fill="#FFCE54"/>
<path d="M32 38L22.668 28.2232L20.3329 25.7768L11 16C11 16 18.3188 17.7462 23.451 22.5084C23.8635 22.8887 24.2678 23.2864 24.6557 23.6927C25.0443 24.0989 25.4238 24.5225 25.7861 24.9547C30.3324 30.3324 32 38 32 38Z" fill="#CCD1D9"/>
<path d="M26.0572 23.6616L25.1045 24.6143C24.747 24.2071 24.3724 23.8081 23.9889 23.4254C23.6062 23.0427 23.2072 22.6681 22.8 22.3099L23.7528 21.3571L26.0572 23.6616Z" fill="#965353"/>
<path d="M2.80561 46.9336C2.16548 47.5745 1.12927 47.5745 0.480098 46.9336C-0.160033 46.2844 -0.160033 45.249 0.480098 44.608L19.6602 25.4286L21.9857 27.7541L2.80561 46.9336Z" fill="#965353"/>
<path d="M34.3468 34.2802C33.9692 34.2802 33.6639 33.975 33.6639 33.5973V29.5C33.6639 29.1224 33.9692 28.8171 34.3468 28.8171C34.7245 28.8171 35.0297 29.1224 35.0297 29.5V33.5973C35.0297 33.975 34.7245 34.2802 34.3468 34.2802Z" fill="#FFCE54"/>
<path d="M30.9325 37.0118H26.8351C26.4575 37.0118 26.1522 36.7066 26.1522 36.3289C26.1522 35.9513 26.4575 35.646 26.8351 35.646H30.9325C31.3101 35.646 31.6153 35.9513 31.6153 36.3289C31.6153 36.7066 31.3101 37.0118 30.9325 37.0118Z" fill="#FFCE54"/>
<path d="M46.9045 7.572C47.0419 7.246 47.125 6.884 47.125 6.5C47.125 5.121 46.1441 4 44.9375 4H44.5C44.5 3.447 44.1089 3 43.625 3C43.1411 3 42.75 3.447 42.75 4H41.875C41.3911 4 41 4.447 41 5C41 5.553 41.3911 6 41.875 6V11C41.3911 11 41 11.447 41 12C41 12.553 41.3911 13 41.875 13H42.75C42.75 13.553 43.1411 14 43.625 14C44.1089 14 44.5 13.553 44.5 13H45.375C46.8222 13 48 11.654 48 10C48 9 47.5651 8.118 46.9045 7.572ZM44.9375 6C45.1781 6 45.375 6.225 45.375 6.5C45.375 6.775 45.1781 7 44.9375 7H43.625V6H44.9375ZM45.375 11H43.625V9H45.375C45.858 9 46.25 9.449 46.25 10C46.25 10.551 45.858 11 45.375 11Z" fill="#EDAB37"/>
<path d="M46.2549 16.8254V20.998C46.5878 20.8874 46.914 20.7602 47.2276 20.6058C47.5625 20.443 47.882 20.2532 48.1907 20.0456V15.873C47.882 16.0806 47.5625 16.2704 47.2276 16.4331C46.914 16.5886 46.5878 16.7148 46.2549 16.8254Z" fill="#DB9531"/>
<path d="M39.4795 15.8781V20.0476C39.7912 20.2583 40.1144 20.4523 40.4523 20.6172C40.763 20.7684 41.0862 20.8915 41.4153 21V16.8274C41.0862 16.7189 40.763 16.5947 40.4523 16.4445C40.1154 16.2807 39.7921 16.0878 39.4795 15.8781Z" fill="#DB9531"/>
</svg>
