<svg width="229" height="229" viewBox="0 0 229 229" fill="none" xmlns="http://www.w3.org/2000/svg">
<rect width="229" height="229" fill="#CCCCCC"/>
<path d="M77 144C100.082 157.841 131.52 156.816 155 144" stroke="white" stroke-width="12" stroke-linecap="round"/>
<path d="M76.5 109C82.8513 109 88 103.851 88 97.5C88 91.1487 82.8513 86 76.5 86C70.1487 86 65 91.1487 65 97.5C65 103.851 70.1487 109 76.5 109Z" fill="white"/>
<path d="M153 109C159.627 109 165 103.851 165 97.5C165 91.1487 159.627 86 153 86C146.373 86 141 91.1487 141 97.5C141 103.851 146.373 109 153 109Z" fill="white"/>
</svg>
