<svg width="18" height="18" viewBox="0 0 18 18" fill="none" xmlns="http://www.w3.org/2000/svg">
<g clip-path="url(#clip0)">
<path d="M17.8292 9.71995C18.0569 9.26889 18.0569 8.73036 17.8292 8.2793L17.5934 7.81222C17.542 7.71039 17.524 7.59701 17.5414 7.48425L17.6213 6.96717C17.6985 6.46784 17.5321 5.95564 17.1762 5.59705L16.8076 5.2257C16.7272 5.14473 16.6751 5.04242 16.6568 4.9298L16.5731 4.41331C16.493 3.9201 16.1826 3.48856 15.7412 3.25563L15.2877 2.98817C15.2789 2.983 15.27 2.97808 15.261 2.97344C15.1595 2.9213 15.0784 2.84012 15.0262 2.73865L14.7869 2.27335C14.5613 1.83457 14.1012 1.51008 13.5863 1.42654L13.0698 1.3428C12.9572 1.32451 12.8549 1.27241 12.7739 1.19207L12.4026 0.823425C12.044 0.467474 11.5319 0.301172 11.0325 0.37824L10.5154 0.458157C10.4026 0.475596 10.2892 0.45763 10.1874 0.406227L9.72031 0.170415C9.26929 -0.0572756 8.73075 -0.0573108 8.27973 0.170415L7.81261 0.406227C7.71082 0.457595 7.59747 0.475526 7.48464 0.458192L6.96756 0.378276C6.46812 0.301031 5.95603 0.46751 5.59744 0.82346L5.22605 1.19203C5.14512 1.27241 5.04281 1.32451 4.93019 1.3428L4.41367 1.42654C3.89873 1.51008 3.43867 1.83453 3.21305 2.27335L2.9738 2.73865C2.92162 2.84008 2.84044 2.9213 2.73897 2.97344L2.27364 3.21273C1.83485 3.43835 1.51037 3.89841 1.42686 4.41335L1.34308 4.92987C1.32483 5.04249 1.27269 5.14476 1.19232 5.22574L0.823779 5.59709C0.467828 5.95567 0.301419 6.46784 0.378594 6.96717L0.458546 7.48429C0.475984 7.59701 0.458018 7.71039 0.40658 7.81222L0.170768 8.2793C-0.0569226 8.73033 -0.0569226 9.26886 0.170768 9.71991L0.40658 10.187C0.457983 10.2888 0.475949 10.4022 0.458546 10.515L0.378594 11.0321C0.301419 11.5314 0.467863 12.0436 0.823779 12.4022L1.19239 12.7736C1.27276 12.8545 1.3249 12.9568 1.34315 13.0695L1.42693 13.5859C1.51044 14.1009 1.83492 14.5609 2.27371 14.7866L2.739 15.0258C2.84047 15.078 2.92165 15.1592 2.97383 15.2606L3.21309 15.726C3.43874 16.1648 3.8988 16.4892 4.41374 16.5727L4.93023 16.6565C5.04284 16.6748 5.14515 16.7269 5.22609 16.8073L5.59748 17.1759C5.95613 17.5319 6.46826 17.6982 6.96756 17.621L7.48468 17.5411C7.59736 17.5237 7.71082 17.5417 7.81261 17.5931L8.27973 17.8289C8.50524 17.9427 8.75262 17.9996 9 17.9996C9.24742 17.9996 9.4948 17.9427 9.72031 17.8289L10.1874 17.5931C10.2892 17.5417 10.4027 17.5237 10.5154 17.5411L11.0324 17.621C11.5318 17.6982 12.0439 17.5318 12.4026 17.1758L12.7739 16.8072C12.8548 16.7268 12.9572 16.6747 13.0698 16.6565L13.5863 16.5727C14.0795 16.4927 14.5111 16.1823 14.744 15.7408L15.0114 15.2873C15.0166 15.2785 15.0215 15.2696 15.0262 15.2606C15.0783 15.1591 15.1595 15.078 15.261 15.0258L15.7263 14.7865C16.1756 14.5555 16.4922 14.1198 16.5731 13.621L16.6568 13.1046C16.6751 12.992 16.7272 12.8897 16.8076 12.8087C16.8132 12.8031 17.1854 12.3928 17.1854 12.3928C17.535 12.0347 17.6979 11.5271 17.6213 11.0321L17.5414 10.515C17.524 10.4022 17.542 10.2888 17.5934 10.187L17.8292 9.71995Z" fill="url(#paint0_linear)"/>
<path d="M9.00003 2.63623C5.50624 2.63623 2.63623 5.50701 2.63623 9.00003C2.63623 12.4938 5.50701 15.3638 9.00003 15.3638C12.4938 15.3638 15.3638 12.4931 15.3638 9.00003C15.3638 5.50623 12.493 2.63623 9.00003 2.63623ZM12.676 7.54578L11.6212 11.7649C11.5625 11.9996 11.3516 12.1644 11.1096 12.1644H6.89049C6.64849 12.1644 6.43753 11.9996 6.37885 11.7649L5.32408 7.54578C5.26195 7.29724 5.38743 7.03998 5.62156 6.93591C5.85565 6.83187 6.1307 6.91116 6.27355 7.12384C6.41788 7.33599 6.93995 7.94526 7.41787 7.94526C7.50521 7.94526 7.77579 7.74197 8.05453 7.11353C8.30462 6.54976 8.47265 5.82432 8.47265 5.30832C8.47265 5.01707 8.70878 4.78094 9.00003 4.78094C9.29129 4.78094 9.52742 5.01707 9.52742 5.30832C9.52742 5.82432 9.69545 6.54976 9.94553 7.11353C10.2243 7.74197 10.4949 7.94526 10.5822 7.94526C11.0743 7.94526 11.61 7.29735 11.7265 7.12384C11.8694 6.91119 12.1445 6.83191 12.3785 6.93591C12.6126 7.03998 12.7381 7.29724 12.676 7.54578Z" fill="url(#paint1_linear)"/>
</g>
<defs>
<linearGradient id="paint0_linear" x1="9" y1="17.9996" x2="9" y2="-0.000353336" gradientUnits="userSpaceOnUse">
<stop stop-color="#FD5900"/>
<stop offset="1" stop-color="#FFDE00"/>
</linearGradient>
<linearGradient id="paint1_linear" x1="9.00003" y1="15.3638" x2="9.00003" y2="2.63623" gradientUnits="userSpaceOnUse">
<stop stop-color="#FFE59A"/>
<stop offset="1" stop-color="#FFFFD5"/>
</linearGradient>
<clipPath id="clip0">
<rect width="18" height="18" fill="white"/>
</clipPath>
</defs>
</svg>
