<svg width="30" height="30" viewBox="0 0 30 30" fill="none" xmlns="http://www.w3.org/2000/svg">
<g clip-path="url(#clip0)">
<path d="M28.3962 13.1871C27.2021 9.08445 25.8555 6.96464 25.8338 6.92661C25.7571 6.83292 23.8542 4.55573 19.2679 2.8714L18.6618 4.5214C20.8437 5.32273 22.3916 6.30031 23.2429 6.93195C20.7013 6.17298 17.6779 5.70816 15 5.70816C12.3221 5.70816 9.29865 6.17298 6.75709 6.93195C7.60834 6.30036 9.15627 5.32273 11.3381 4.5214L10.7321 2.8714C6.1459 4.55573 4.24301 6.83292 4.16625 6.92661C4.14451 6.96464 2.79785 9.08445 1.60383 13.1871C0.453047 17.1407 0.0158789 22.7182 0 22.9419C0.102539 23.1022 2.46094 27.1287 8.88826 27.1287L10.5174 24.7696C8.69221 24.285 6.9518 23.5035 5.35863 22.443L6.33264 20.9797C8.90285 22.6905 11.9 23.5948 15 23.5948C18.1 23.5948 21.0971 22.6905 23.6674 20.9797L24.6414 22.443C23.0483 23.5035 21.3078 24.285 19.4826 24.7696L21.1117 27.1287C27.5391 27.1287 29.8975 23.1022 30 22.9419C29.9841 22.7182 29.547 17.1407 28.3962 13.1871ZM10.9361 17.7856H9.17824V14.8559H10.9361V17.7856ZM20.8218 17.7856H19.0639V14.8559H20.8218V17.7856Z" fill="white"/>
</g>
<defs>
<clipPath id="clip0">
<rect width="30" height="30" fill="white"/>
</clipPath>
</defs>
</svg>
