<svg width="123" height="92" viewBox="0 0 123 92" fill="none" xmlns="http://www.w3.org/2000/svg">
<path d="M91 35C107.5 40.5 114 42 115.5 54.5" stroke="#8F1911" stroke-width="5" stroke-linecap="round"/>
<path d="M83.1536 3.59605L19.4138 10.2367C17.1319 10.9289 15.7279 13.1425 16.0443 15.7706L23.9065 76.9198C24.4681 79.9634 27.276 81.0702 29.5223 81.0702L89.0502 74.9829C90.9802 74.2916 92.6649 73.1849 92.4198 69.7257L89.0502 6.91637C88.3763 3.37469 84.8384 3.22712 83.1536 3.59605Z" fill="#8F1911"/>
<path d="M17.1318 11.759L19.9398 8.43867L21.9053 12.0357L17.1318 13.9725V11.759Z" fill="#8F1911"/>
<path d="M91.2609 73.7383L94.3497 69.8646L89.0146 68.2044L91.2609 73.7383Z" fill="#8F1911"/>
<path d="M85.9261 0.137858L22.1863 6.77854C19.94 7.60859 18.536 9.82217 18.8169 12.3124L26.679 73.4616C27.2406 76.5052 30.0485 77.612 32.2949 77.612L91.8228 71.5247C93.7883 70.9713 95.1923 69.8645 95.1923 66.2675L91.8228 3.45818C91.1489 -0.0834961 87.6109 -0.231066 85.9261 0.137858Z" fill="#D42015"/>
<path d="M35.1026 77.3353L58.1276 3.1815L40.1569 4.84166L26.1173 69.5879L26.6789 73.7383C27.3528 76.8372 30.7035 77.612 32.2947 77.612L35.1026 77.3353Z" fill="white" fill-opacity="0.29"/>
<path d="M33.4179 5.67174L24.9941 6.50182L20.7822 27.8072L22.7478 42.1952L33.4179 5.67174Z" fill="white" fill-opacity="0.29"/>
<path d="M84.9939 30.9636C76.91 29.8564 71.5104 27.5672 65.2702 23C62.4337 25.6296 61.7768 28.1982 62.0604 31.2431C62.3441 34.2879 64.6405 41.1921 74.4886 41.961C82.8439 42.6133 85.1357 34.9311 84.9939 30.9636Z" fill="white"/>
<path d="M33.2203 30.9632C41.2289 29.8561 46.5783 27.567 52.7603 23C55.5703 25.6295 56.2211 28.198 55.9401 31.2426C55.6591 34.2873 53.3841 41.1911 43.6277 41.9599C35.3503 42.6121 32.0783 35.1544 33.2203 30.9632Z" fill="white"/>
<path d="M50.0556 25C48.3318 26.1635 44.578 28.3451 40.1248 29.7995C39.6938 31.9811 40.2932 34.6073 43.2851 35.6171C46.3018 36.6352 50.0135 35.6735 51.4732 32.1265C52.9096 28.636 51.0611 25.5818 50.0556 25Z" fill="#221E1F"/>
<path d="M69.7757 26C71.3502 27.1635 75.4325 28.5456 79.4998 30C79.8934 32.1816 78.6922 35.6073 75.9595 36.6171C73.2042 37.6352 69.8141 36.6735 68.4809 33.1265C67.169 29.636 68.8574 26.5818 69.7757 26Z" fill="#221E1F"/>
<circle cx="47.5" cy="33.5" r="1.5" fill="white"/>
<circle cx="72.5" cy="33.5" r="1.5" fill="white"/>
<path d="M51.6244 58.604C51.2402 58.604 51.0961 58.4238 51 58.0183C53.5457 46.8456 58.4449 45.8094 59.5497 45.494C60.6544 45.1787 67.6671 43.4216 72.8065 49.2333C77.9459 55.0449 76.9372 60.0907 76.8892 60.4962C76.8412 60.9016 75.9766 61.0368 75.6884 60.9917C75.4578 60.9557 75.4322 60.6463 75.4482 60.4962C75.6884 57.4777 74.8238 54.0538 71.3175 49.9091C67.8112 45.7643 62.5277 45.2688 58.2528 46.9807C53.978 48.6927 52.537 58.0183 52.3929 58.1985C52.2488 58.3787 52.0087 58.604 51.6244 58.604Z" fill="#221E1F"/>
<path d="M18.1495 62.1929C17.0187 60.5462 12.1433 57.834 9.49912 56.8505C8.69458 57.095 7.60609 57.327 6.71323 57.7676C5.59714 58.3183 2.9138 67.8805 5.82847 72.8496C8.74314 77.8186 15.258 74.1461 16.2013 72.3076C16.6541 71.4252 17.0353 68.9975 15.7093 65.6854C16.4446 66.2379 18.1806 68.1273 19.0224 67.7119C20.8825 66.794 19.7926 64.5858 18.1495 62.1929Z" fill="#8F1911"/>
<path d="M19.5 41C7 45 8 55 8 60" stroke="#8F1911" stroke-width="5" stroke-linecap="round"/>
<path d="M109.19 59.026C109.439 57.2685 112.215 53.1889 113.909 51.3648C114.635 51.2432 115.578 51 116.45 51C117.539 51 123.347 57.5667 122.984 62.6741C122.621 67.7816 116.087 67.4168 114.635 66.3223C113.938 65.797 112.699 64.0118 112.457 60.8501C112.094 61.5797 111.463 63.7686 110.642 63.7686C108.827 63.7686 108.827 61.5797 109.19 59.026Z" fill="#8F1911"/>
</svg>
