<svg width="110" height="149" viewBox="0 0 110 149" fill="none" xmlns="http://www.w3.org/2000/svg">
<g filter="url(#filter0_d)">
<path d="M64.5104 139.682L50.1211 94.0362L86.3821 84.3364L100.196 128.841L78.8997 123.136L64.5104 139.682Z" fill="#B31500"/>
</g>
<path d="M96.242 127.822L85.0411 90.9253L83.0645 91.5842L93.6065 127.164L96.242 127.822Z" fill="#EEEEEE"/>
<path d="M68.5695 135.07L58.0274 99.4907L56.0508 100.15L67.2517 136.388L68.5695 135.07Z" fill="#EEEEEE"/>
<g filter="url(#filter1_d)">
<path d="M47.5921 141L61.9814 95.3541L25.7204 85.6543L11.9067 130.159L33.2028 124.453L47.5921 141Z" fill="#DD240B"/>
</g>
<path d="M15.8605 129.14L27.0615 92.2432L29.0381 92.902L18.496 128.481L15.8605 129.14Z" fill="white"/>
<path d="M43.5331 136.388L54.0751 100.809L56.0518 101.467L44.8508 137.706L43.5331 136.388Z" fill="white"/>
<g filter="url(#filter2_d)">
<circle cx="54.7336" cy="50.7336" r="50.7336" fill="url(#paint0_linear)"/>
<circle cx="54.7336" cy="50.7336" r="50.2336" stroke="url(#paint1_linear)"/>
</g>
<path d="M97.0611 50.7336C97.0611 73.375 78.413 91.7429 55.3928 91.7429C32.3727 91.7429 13.7246 73.375 13.7246 50.7336C13.7246 28.0921 32.3727 9.72424 55.3928 9.72424C78.413 9.72424 97.0611 28.0921 97.0611 50.7336Z" fill="url(#paint2_linear)" stroke="url(#paint3_linear)"/>
<path d="M81.5572 34.2617C81.5572 39.0917 84.7772 46.0684 85.8505 47.6784C88.5342 42.3117 86.3871 36.9451 81.5572 34.2617Z" fill="#FCDD97"/>
<path d="M81.5591 34.2617C81.5591 39.0917 84.7791 46.0684 85.8524 47.6784C86.3891 43.3851 84.7791 37.4817 81.5591 34.2617Z" fill="#5D2801"/>
<path d="M87.8364 44.4591C86.4922 48.3972 87.1761 54.9817 87.6032 56.5931C91.2848 52.9642 91.0277 47.9911 87.8364 44.4591Z" fill="#FCDD97"/>
<path d="M87.8375 44.4586C86.4933 48.3967 87.1772 54.9811 87.6043 56.5925C89.2366 53.2413 89.5668 47.98 87.8375 44.4586Z" fill="#5D2801"/>
<path d="M83.3321 46.6057C82.0722 51.6833 83.0023 59.7001 83.499 61.6201C87.1908 56.5469 86.7571 50.4501 83.3321 46.6057Z" fill="#FCDD97"/>
<path d="M83.3325 46.6054C82.0726 51.6831 83.0027 59.6998 83.4994 61.6198C85.0776 57.22 85.2425 50.6729 83.3325 46.6054Z" fill="#5D2801"/>
<path d="M81.7897 58.4119C77.8404 62.6894 74.5297 71.0782 74.0113 73.2407C80.3945 70.33 83.1864 64.1036 81.7897 58.4119Z" fill="#FCDD97"/>
<path d="M81.7912 58.4127C77.8419 62.6902 74.5312 71.0789 74.0127 73.2415C77.9222 69.8077 81.5522 63.4746 81.7912 58.4127Z" fill="#5D2801"/>
<path d="M89.0768 58.4119C84.3406 61.7976 79.3944 69.3385 78.4472 71.3506C85.2887 69.7978 89.2877 64.2686 89.0768 58.4119Z" fill="#FCDD97"/>
<path d="M89.0769 58.4119C84.3408 61.7976 79.3945 69.3385 78.4474 71.3506C82.973 68.7829 87.8142 63.3196 89.0769 58.4119Z" fill="#5D2801"/>
<path d="M73.4026 69.1456C67.8673 70.9496 60.8815 76.6531 59.3729 78.287C66.3647 78.8644 71.8418 74.7945 73.4026 69.1456Z" fill="#FCDD97"/>
<path d="M73.4042 69.1462C67.8689 70.9502 60.8831 76.6537 59.3746 78.2876C64.4631 77.2004 70.7236 73.4466 73.4042 69.1462Z" fill="#5D2801"/>
<path d="M80.9156 73.4386C75.1332 74.1148 67.1593 78.3276 65.358 79.6317C72.0983 81.5774 78.2708 78.6684 80.9156 73.4386Z" fill="#FCDD97"/>
<path d="M80.9141 73.4392C75.1317 74.1154 67.1578 78.3283 65.3564 79.6324C70.5594 79.5706 77.4376 77.1261 80.9141 73.4392Z" fill="#5D2801"/>
<path d="M27.9116 34.2617C27.9116 39.0917 24.6916 46.0684 23.6182 47.6784C20.9346 42.3117 23.0816 36.9451 27.9116 34.2617Z" fill="#FCDD97"/>
<path d="M27.9097 34.2617C27.9097 39.0917 24.6897 46.0684 23.6163 47.6784C23.0797 43.3851 24.6897 37.4817 27.9097 34.2617Z" fill="#5D2801"/>
<path d="M21.6314 44.4589C22.9755 48.397 22.2917 54.9814 21.8646 56.5928C18.183 52.964 18.4401 47.9908 21.6314 44.4589Z" fill="#FCDD97"/>
<path d="M21.6313 44.4586C22.9754 48.3967 22.2915 54.9811 21.8644 56.5925C20.2321 53.2413 19.902 47.98 21.6313 44.4586Z" fill="#5D2801"/>
<path d="M26.1366 46.6056C27.3965 51.6832 26.4664 59.6999 25.9697 61.6199C22.278 56.5468 22.7117 50.45 26.1366 46.6056Z" fill="#FCDD97"/>
<path d="M26.1343 46.6054C27.3942 51.6831 26.4641 59.6998 25.9674 61.6198C24.3892 57.22 24.2243 50.6729 26.1343 46.6054Z" fill="#5D2801"/>
<path d="M27.6781 58.4118C31.6274 62.6893 34.938 71.078 35.4565 73.2406C29.0733 70.3299 26.2814 64.1034 27.6781 58.4118Z" fill="#FCDD97"/>
<path d="M27.6776 58.4127C31.6269 62.6902 34.9375 71.0789 35.456 73.2415C31.5465 69.8077 27.9166 63.4746 27.6776 58.4127Z" fill="#5D2801"/>
<path d="M20.392 58.4117C25.1281 61.7974 30.0744 69.3384 31.0215 71.3505C24.18 69.7976 20.181 64.2685 20.392 58.4117Z" fill="#FCDD97"/>
<path d="M20.3919 58.4119C25.128 61.7976 30.0743 69.3385 31.0214 71.3506C26.4957 68.7829 21.6545 63.3196 20.3919 58.4119Z" fill="#5D2801"/>
<path d="M36.0662 69.1455C41.6014 70.9495 48.5872 76.653 50.0958 78.2869C43.1041 78.8643 37.6269 74.7943 36.0662 69.1455Z" fill="#FCDD97"/>
<path d="M36.0645 69.1461C41.5998 70.95 48.5856 76.6536 50.0942 78.2875C45.0057 77.2003 38.7451 73.4465 36.0645 69.1461Z" fill="#5D2801"/>
<path d="M28.5531 73.4386C34.3355 74.1148 42.3095 78.3276 44.1108 79.6317C37.3705 81.5774 31.1979 78.6684 28.5531 73.4386Z" fill="#FCDD97"/>
<path d="M28.5536 73.4392C34.3361 74.1154 42.31 78.3283 44.1113 79.6324C38.9083 79.5706 32.0302 77.1261 28.5536 73.4392Z" fill="#5D2801"/>
<path d="M49.556 82.2658C47.5347 83.2071 44.5027 86.9721 42.4813 86.9721C40.4602 84.1483 50.5667 80.3833 51.5766 80.3833C52.8406 80.3833 52.9244 80.6971 52.5875 81.3246C51.5774 81.3246 50.7649 81.7029 49.556 82.2658Z" fill="#6F3604"/>
<path d="M60.8284 82.2658C62.5971 83.2071 65.2501 86.9721 67.0188 86.9721C68.7872 84.1483 59.9441 80.3833 59.0604 80.3833C57.9544 80.3833 57.8811 80.6971 58.1759 81.3246C59.0597 81.3246 59.7706 81.7029 60.8284 82.2658Z" fill="#6F3604"/>
<path d="M54.1077 29.742H58.9377C59.9803 29.742 60.655 29.9107 60.9617 30.248C61.299 30.5853 61.4677 31.2907 61.4677 32.364V57.71H65.1937C65.6537 57.71 65.9603 57.7713 66.1137 57.894C66.267 58.0167 66.3437 58.2467 66.3437 58.584V63H55.7637C55.273 63 54.8743 62.8467 54.5677 62.54C54.261 62.2027 54.1077 61.758 54.1077 61.206V29.742ZM52.7277 63H46.0577V58.584C46.0577 58.2467 46.1343 58.0167 46.2877 57.894C46.441 57.7713 46.7477 57.71 47.2077 57.71H52.7277V63ZM52.7277 35.032H47.6677C46.901 35.032 46.5177 34.6027 46.5177 33.744V29.742H52.7277V35.032Z" fill="#6D3200"/>
<defs>
<filter id="filter0_d" x="46.1211" y="84.3364" width="58.0748" height="63.3458" filterUnits="userSpaceOnUse" color-interpolation-filters="sRGB">
<feFlood flood-opacity="0" result="BackgroundImageFix"/>
<feColorMatrix in="SourceAlpha" type="matrix" values="0 0 0 0 0 0 0 0 0 0 0 0 0 0 0 0 0 0 127 0"/>
<feOffset dy="4"/>
<feGaussianBlur stdDeviation="2"/>
<feColorMatrix type="matrix" values="0 0 0 0 0 0 0 0 0 0 0 0 0 0 0 0 0 0 0.25 0"/>
<feBlend mode="normal" in2="BackgroundImageFix" result="effect1_dropShadow"/>
<feBlend mode="normal" in="SourceGraphic" in2="effect1_dropShadow" result="shape"/>
</filter>
<filter id="filter1_d" x="7.90625" y="85.6543" width="58.0748" height="63.3458" filterUnits="userSpaceOnUse" color-interpolation-filters="sRGB">
<feFlood flood-opacity="0" result="BackgroundImageFix"/>
<feColorMatrix in="SourceAlpha" type="matrix" values="0 0 0 0 0 0 0 0 0 0 0 0 0 0 0 0 0 0 127 0"/>
<feOffset dy="4"/>
<feGaussianBlur stdDeviation="2"/>
<feColorMatrix type="matrix" values="0 0 0 0 0 0 0 0 0 0 0 0 0 0 0 0 0 0 0.25 0"/>
<feBlend mode="normal" in2="BackgroundImageFix" result="effect1_dropShadow"/>
<feBlend mode="normal" in="SourceGraphic" in2="effect1_dropShadow" result="shape"/>
</filter>
<filter id="filter2_d" x="0" y="0" width="109.467" height="109.467" filterUnits="userSpaceOnUse" color-interpolation-filters="sRGB">
<feFlood flood-opacity="0" result="BackgroundImageFix"/>
<feColorMatrix in="SourceAlpha" type="matrix" values="0 0 0 0 0 0 0 0 0 0 0 0 0 0 0 0 0 0 127 0"/>
<feOffset dy="4"/>
<feGaussianBlur stdDeviation="2"/>
<feColorMatrix type="matrix" values="0 0 0 0 0 0 0 0 0 0 0 0 0 0 0 0 0 0 0.25 0"/>
<feBlend mode="normal" in2="BackgroundImageFix" result="effect1_dropShadow"/>
<feBlend mode="normal" in="SourceGraphic" in2="effect1_dropShadow" result="shape"/>
</filter>
<linearGradient id="paint0_linear" x1="54.7336" y1="0" x2="54.7336" y2="101.467" gradientUnits="userSpaceOnUse">
<stop stop-color="#EEA82C"/>
<stop offset="0.265625" stop-color="#FDCE67"/>
<stop offset="0.640625" stop-color="#C26F0B"/>
<stop offset="0.885417" stop-color="#E9BF62"/>
<stop offset="1" stop-color="#E4911E"/>
</linearGradient>
<linearGradient id="paint1_linear" x1="83.7469" y1="5.39045" x2="22.3909" y2="92.1133" gradientUnits="userSpaceOnUse">
<stop stop-color="#FBC954"/>
<stop offset="0.307292" stop-color="#FEE48E"/>
<stop offset="0.71875" stop-color="#D89A2A"/>
<stop offset="1" stop-color="#FDF0B1"/>
</linearGradient>
<linearGradient id="paint2_linear" x1="55.3928" y1="9.22424" x2="55.3928" y2="92.2429" gradientUnits="userSpaceOnUse">
<stop stop-color="#F9CB58"/>
<stop offset="0.53125" stop-color="#FDE794"/>
<stop offset="1" stop-color="#CE8A0B"/>
</linearGradient>
<linearGradient id="paint3_linear" x1="23.1078" y1="14.4953" x2="89.6545" y2="92.2429" gradientUnits="userSpaceOnUse">
<stop stop-color="#DD9731"/>
<stop offset="0.333333" stop-color="#ECD48A"/>
<stop offset="0.723958" stop-color="#C27C1C"/>
<stop offset="1" stop-color="#B16B06"/>
</linearGradient>
</defs>
</svg>
