<svg width="133" height="133" viewBox="0 0 133 133" fill="none" xmlns="http://www.w3.org/2000/svg">
<rect width="39" height="39" rx="6" fill="#ACB9FF"/>
<rect width="39" height="39" rx="6" fill="#FFA959"/>
<rect y="47" width="39" height="39" rx="6" fill="#EC544B"/>
<rect y="47" width="39" height="39" rx="6" fill="#EC544B"/>
<rect x="94" width="39" height="39" rx="6" fill="#EC544B"/>
<rect x="94" y="47" width="39" height="39" rx="6" fill="#FFACED"/>
<rect x="47" width="39" height="39" rx="6" fill="#61DCCD"/>
<rect x="47" y="47" width="39" height="39" rx="6" fill="#3DACDC"/>
<rect x="47" y="47" width="39" height="39" rx="6" fill="#3DACDC"/>
<rect y="94" width="39" height="39" rx="6" fill="#EC544B"/>
<rect y="94" width="39" height="39" rx="6" fill="#ACB9FF"/>
<rect x="94" y="94" width="39" height="39" rx="6" fill="#D9D343"/>
<rect x="47" y="94" width="39" height="39" rx="6" fill="#3DACDC"/>
<rect x="47" y="94" width="39" height="39" rx="6" fill="#7E33C9"/>
<path d="M79.9583 18.2996C76.3637 12.9475 71.5836 10 66.4996 10C61.4164 10 56.6363 12.9475 53.0417 18.2996C49.447 23.6518 47.4673 30.7687 47.4673 38.3382C47.4673 53.6501 57.1917 66.3861 62.4155 73.2282C63.1413 74.178 63.7686 74.9997 64.2678 75.6943C64.8934 76.5642 65.6965 76.9999 66.4996 76.9999C67.3028 76.9999 68.1058 76.5642 68.7324 75.6943C69.2315 74.9995 69.8589 74.178 70.5847 73.2282C75.8085 66.386 85.5329 53.6501 85.5329 38.3382C85.5327 30.7687 83.5531 23.6518 79.9583 18.2996ZM66.4996 49.7555C61.875 49.7555 58.1125 44.1535 58.1125 37.2668C58.1125 30.3813 61.875 24.7794 66.4996 24.7794C71.125 24.7794 74.8875 30.3813 74.8875 37.2668C74.8875 44.1535 71.125 49.7555 66.4996 49.7555Z" fill="#FF7C48"/>
<path d="M85.532 38.3382C85.532 53.6501 75.8076 66.3861 70.5838 73.2282C69.858 74.178 69.2307 74.9997 68.7316 75.6943C68.1051 76.5642 67.3019 76.9999 66.4988 76.9999V49.7555C71.1242 49.7555 74.8867 44.1535 74.8867 37.2668C74.8867 30.3813 71.1242 24.7794 66.4988 24.7794V10C71.5828 10 76.3629 12.9475 79.9576 18.2996C83.5522 23.6518 85.532 30.7687 85.532 38.3382Z" fill="#FF4C04"/>
</svg>
