<svg width="43" height="43" viewBox="0 0 43 43" fill="none" xmlns="http://www.w3.org/2000/svg">
<g clip-path="url(#clip0)">
<path d="M9.928 27.7531L7.40137 28.8378C7.79204 29.7484 8.25588 30.6254 8.78853 31.4608L11.1077 29.987C10.6553 29.2751 10.2609 28.5284 9.928 27.7531Z" fill="#806BFF"/>
<path d="M25.9041 3.01479C16.0852 2.26298 7.38732 9.30787 6.08306 19.069L2.34648 15.3324C1.80981 14.7958 0.939515 14.7958 0.402505 15.3324C-0.134168 15.8695 -0.134168 16.7394 0.402505 17.2764L7.27623 24.1501L14.1499 17.2764C14.6866 16.7394 14.6866 15.8695 14.1499 15.3324C13.6133 14.7958 12.743 14.7958 12.2063 15.3324L8.92585 18.6072C10.1814 11.9604 15.5314 6.85139 22.2293 5.90357C28.9268 4.95541 35.4843 8.37918 38.5352 14.4165C41.5858 20.4538 40.4523 27.7635 35.7163 32.5936C30.9802 37.4233 23.6939 38.7001 17.5979 35.768C16.9605 35.478 16.2074 35.7234 15.863 36.3332C15.67 36.6695 15.6264 37.0713 15.7432 37.4411C15.86 37.811 16.1261 38.1151 16.4775 38.2795C23.2006 41.4734 31.1815 40.3417 36.7513 35.4045C42.3215 30.4674 44.403 22.6801 42.0395 15.6224C39.6757 8.56445 33.3242 3.60148 25.9041 3.01479Z" fill="#806BFF"/>
<path d="M12.638 32.0066L10.5759 33.8324C11.2324 34.5712 11.9456 35.2575 12.7095 35.8848L14.4525 33.7539C13.8023 33.2206 13.1955 32.6362 12.638 32.0066Z" fill="#806BFF"/>
<path d="M27.5045 21.5234L25 19.1381L22.4955 21.5234L25 23.9087L27.5045 21.5234Z" fill="#F3BA2F"/>
<path d="M36 21.5234L33.5446 19.1849L31.0893 21.5234L33.5446 23.8619L36 21.5234Z" fill="#F3BA2F"/>
<path d="M16.4554 19.1849L18.9107 21.5234L16.4554 23.8619L14 21.5234L16.4554 19.1849Z" fill="#F3BA2F"/>
<path d="M25 27.3229L20.6786 23.2071L18.2232 25.5457L25 32L31.7768 25.5457L29.3214 23.2071L25 27.3229Z" fill="#F3BA2F"/>
<path d="M25 11L18.2232 17.4543L20.6786 19.7929L25 15.6771L29.3214 19.7929L31.7768 17.4543L25 11Z" fill="#F3BA2F"/>
<path d="M25 15.6771V11L31.7768 17.4543L29.3214 19.7929L25 15.6771Z" fill="#FFCF5B"/>
<path d="M33.5446 23.8619L31.0893 21.5234L33.5446 19.1849L36 21.5234L33.5446 23.8619Z" fill="#FFCF5B"/>
<path d="M25 23.9087V19.1381L27.5045 21.5234L25 23.9087Z" fill="#FFCF5B"/>
<path d="M25 32V27.3229L29.3214 23.2071L31.7768 25.5457L25 32Z" fill="#FFCF5B"/>
</g>
<defs>
<clipPath id="clip0">
<rect width="43" height="43" fill="white"/>
</clipPath>
</defs>
</svg>
