<svg width="30" height="30" viewBox="0 0 30 30" fill="none" xmlns="http://www.w3.org/2000/svg">
<circle cx="15" cy="15" r="15" fill="white"/>
<path d="M16.569 19.9799H12.5263C12.3468 19.9799 12.1895 20.0469 12.0547 20.1799C11.9199 20.3132 11.8525 20.4684 11.8525 20.646V24.6413C11.8525 24.8189 11.9201 24.9744 12.0547 25.1074C12.1895 25.2403 12.3466 25.3072 12.5263 25.3072H16.569C16.7485 25.3072 16.9062 25.2405 17.0404 25.1074C17.1755 24.9744 17.243 24.8189 17.243 24.6413V20.646C17.243 20.4684 17.1757 20.3132 17.0404 20.1799C16.9062 20.0466 16.7485 19.9799 16.569 19.9799Z" fill="#1EAD68"/>
<path d="M21.8756 8.0202C21.415 7.18189 20.82 6.47477 20.0899 5.89754C19.3603 5.32056 18.5399 4.85977 17.6305 4.51588C16.7209 4.17212 15.817 4 14.9184 4C11.5048 4 8.89956 5.476 7.10267 8.42805C7.01294 8.57224 6.98196 8.72756 7.00999 8.89408C7.03819 9.06037 7.12521 9.19914 7.27118 9.31009L10.0338 11.3911C10.1797 11.4797 10.3201 11.5241 10.455 11.5241C10.6571 11.5241 10.8311 11.4351 10.9772 11.2576C11.7856 10.2589 12.3865 9.62086 12.7795 9.34327C13.2625 9.02154 13.8687 8.86073 14.5987 8.86073C15.2836 8.86073 15.8871 9.03833 16.4095 9.39318C16.9316 9.74837 17.1924 10.159 17.1924 10.6251C17.1924 11.1465 17.0523 11.5684 16.7715 11.8902C16.4908 12.2119 16.019 12.5225 15.3563 12.8223C14.4807 13.2107 13.6774 13.8128 12.9478 14.6285C12.2177 15.4442 11.8529 16.3126 11.8529 17.2337V17.9827C11.8529 18.1938 11.9115 18.4017 12.0297 18.607C12.1476 18.8125 12.2907 18.9151 12.4593 18.9151H16.502C16.6817 18.9151 16.8387 18.8292 16.9736 18.6567C17.1081 18.4851 17.1758 18.3047 17.1758 18.1163C17.1758 17.839 17.3302 17.4668 17.6387 17.001C17.9476 16.5349 18.3321 16.1738 18.7929 15.9185C19.2306 15.6745 19.5728 15.4777 19.8201 15.3277C20.0677 15.1781 20.3903 14.9362 20.789 14.6035C21.1876 14.2705 21.4965 13.9403 21.7152 13.613C21.9343 13.2857 22.1309 12.8611 22.305 12.3394C22.4794 11.8179 22.5662 11.2574 22.5662 10.6582C22.5661 9.73706 22.3357 8.85764 21.8756 8.0202Z" fill="#1EAD68"/>
</svg>
