<svg width="15" height="15" viewBox="0 0 15 15" fill="none" xmlns="http://www.w3.org/2000/svg">
<path d="M11.9861 1.85812C10.7879 0.659883 9.19453 0 7.49985 0C5.80547 0 4.2121 0.659883 3.01389 1.85812C1.81567 3.05637 1.15576 4.64971 1.15576 6.34438C1.15576 9.77241 4.39723 12.6238 6.13848 14.1556C6.38042 14.3682 6.58954 14.5522 6.75592 14.7077C6.96445 14.9024 7.23217 15 7.49988 15C7.7676 15 8.03528 14.9024 8.24414 14.7077C8.41052 14.5521 8.61964 14.3682 8.86157 14.1556C10.6028 12.6237 13.8443 9.77241 13.8443 6.34438C13.8442 4.64971 13.1844 3.05637 11.9861 1.85812ZM7.49985 8.90048C5.95834 8.90048 4.70417 7.64631 4.70417 6.1045C4.70417 4.56299 5.95834 3.30882 7.49985 3.30882C9.04166 3.30882 10.2958 4.56299 10.2958 6.1045C10.2958 7.64631 9.04166 8.90048 7.49985 8.90048Z" fill="#FF7C48"/>
<path d="M13.8439 6.34438C13.8439 9.77241 10.6025 12.6238 8.8612 14.1556C8.61927 14.3682 8.41015 14.5522 8.24377 14.7077C8.03494 14.9024 7.76723 15 7.49951 15V8.90048C9.04132 8.90048 10.2955 7.64631 10.2955 6.1045C10.2955 4.56299 9.04132 3.30882 7.49951 3.30882V0C9.19419 0 10.7876 0.659883 11.9858 1.85812C13.184 3.05637 13.8439 4.64971 13.8439 6.34438Z" fill="#FF4C04"/>
</svg>
