<svg width="17" height="17" viewBox="0 0 17 17" fill="none" xmlns="http://www.w3.org/2000/svg">
<g clip-path="url(#clip0)">
<path d="M9.91663 9.20842C8.74506 9.20842 7.79165 8.25501 7.79165 7.08344C7.79165 5.91187 8.74506 4.95846 9.91663 4.95846H11.3332V2.1252C11.3332 0.953634 10.3798 0.000221252 9.20821 0.000221252H1.59375C1.36069 0.000221252 1.14253 0.114875 1.01011 0.306828C0.878339 0.498782 0.848638 0.743263 0.932163 0.960638L6.06757 14.4189C6.17172 14.6938 6.43513 14.8751 6.72916 14.8751H9.20821C10.3798 14.8751 11.3332 13.9217 11.3332 12.7501V9.20842H9.91663Z" fill="#2196F3"/>
<path d="M13.1869 10.5713C12.9228 10.4614 12.7499 10.2029 12.7499 9.9167V7.79172H9.9166C9.52556 7.79172 9.20819 7.47448 9.20819 7.08344C9.20819 6.6924 9.52556 6.37515 9.9166 6.37515H12.7499V4.25018C12.7499 3.96393 12.9228 3.70544 13.1869 3.59559C13.4518 3.48586 13.7565 3.54682 13.9589 3.74941L16.7923 6.58267C17.0692 6.85958 17.0692 7.3073 16.7923 7.5842L13.9589 10.4176C13.7565 10.6201 13.4518 10.681 13.1869 10.5713Z" fill="#607D8B"/>
<path d="M6.12423 1.48973L1.86792 0.0709605C0.90737 -0.224363 0 0.484698 0 1.41749V14.1674C0 14.7731 0.385334 15.3135 0.959119 15.5118L5.21465 16.9306C5.3712 16.9787 5.51503 17.0008 5.66665 17.0008C6.44795 17.0008 7.08322 16.3654 7.08322 15.5841V2.83419C7.08322 2.22862 6.69788 1.68817 6.12423 1.48973Z" fill="#64B5F6"/>
</g>
<defs>
<clipPath id="clip0">
<rect width="17" height="17" fill="white"/>
</clipPath>
</defs>
</svg>
