<svg width="40" height="40" viewBox="0 0 40 40" fill="none" xmlns="http://www.w3.org/2000/svg">
<path d="M22.7321 20.0267L20 17.3007L17.2679 20.0267L20 22.7528L22.7321 20.0267Z" fill="#F3BA2F"/>
<path d="M32 20.0267L29.3214 17.3541L26.6429 20.0267L29.3214 22.6993L32 20.0267Z" fill="#F3BA2F"/>
<path d="M10.6786 17.3541L13.3571 20.0267L10.6786 22.6993L8 20.0267L10.6786 17.3541Z" fill="#F3BA2F"/>
<path d="M20 26.6548L15.2857 21.951L12.6071 24.6236L20 32L27.3929 24.6236L24.7143 21.951L20 26.6548Z" fill="#F3BA2F"/>
<path d="M20 8L12.6071 15.3764L15.2857 18.049L20 13.3452L24.7143 18.049L27.3929 15.3764L20 8Z" fill="#F3BA2F"/>
<path d="M20 13.3452V8L27.3929 15.3764L24.7143 18.049L20 13.3452Z" fill="#FFCF5B"/>
<path d="M29.3214 22.6993L26.6429 20.0267L29.3214 17.3541L32 20.0267L29.3214 22.6993Z" fill="#FFCF5B"/>
<path d="M20 22.7528V17.3007L22.7321 20.0267L20 22.7528Z" fill="#FFCF5B"/>
<path d="M20 32V26.6548L24.7143 21.951L27.3929 24.6236L20 32Z" fill="#FFCF5B"/>
<path d="M12 1.6V8C10.2 9.2 9.2 10.2 8 12H1.6C0.6 12 0 11.2 0 10.4V1.6C0 0.8 0.6 0 1.6 0H10.4C11.2 0 12 0.6 12 1.6Z" fill="#ACB9FF"/>
<path d="M12 38.4V32C10.2 30.8 9.2 29.8 8 28H1.6C0.6 28 0 28.8 0 29.6V38.4C0 39.2 0.6 40 1.6 40H10.4C11.2 40 12 39.4 12 38.4Z" fill="#EC544B"/>
<path d="M28 1.6V8C29.8 9.2 30.8 10.2 32 12H38.4C39.4 12 40 11.2 40 10.4V1.6C40 0.8 39.4 0 38.4 0H29.6C28.8 0 28 0.6 28 1.6Z" fill="#7E33C9"/>
<path d="M28 38.4V32C29.8 30.8 30.8 29.8 32 28H38.4C39.4 28 40 28.8 40 29.6V38.4C40 39.2 39.4 40 38.4 40H29.6C28.8 40 28 39.4 28 38.4Z" fill="#FFD300"/>
<path d="M24.4 0C25.2 0 26 0.6 26 1.6V6.8C21.8 5.2 18.4 5.2 14 6.8V1.6C14 0.8 14.6 0 15.6 0H24.4Z" fill="#64A66F"/>
<path d="M4.31869e-07 15.6C4.65089e-07 14.8 0.6 14 1.6 14L6.8 14C5.2 18.2 5.2 21.6 6.8 26L1.6 26C0.8 26 2.49155e-08 25.4 6.64413e-08 24.4L4.31869e-07 15.6Z" fill="#FFA959"/>
<path d="M15.6 40C14.8 40 14 39.4 14 38.4V33.2C18.2 34.8 21.6 34.8 26 33.2V38.4C26 39.2 25.4 40 24.4 40H15.6Z" fill="#3DACDC"/>
<path d="M40 24.4C40 25.2 39.4 26 38.4 26L33.2 26C34.8 21.8 34.8 18.4 33.2 14L38.4 14C39.2 14 40 14.6 40 15.6L40 24.4Z" fill="#FFACED"/>
</svg>
