<svg width="151" height="43" viewBox="0 0 151 43" fill="none" xmlns="http://www.w3.org/2000/svg">
<path d="M48.02 23V10.12H54.82C56.1133 10.12 57.0867 10.4267 57.74 11.04C58.4067 11.6533 58.74 12.52 58.74 13.64C58.74 14.32 58.6067 14.8933 58.34 15.36C58.0867 15.8133 57.7467 16.1667 57.32 16.42C57.9067 16.6333 58.3667 16.9467 58.7 17.36C59.0333 17.7733 59.2 18.3933 59.2 19.22C59.2 20.4467 58.84 21.3867 58.12 22.04C57.4 22.68 56.3667 23 55.02 23H48.02ZM51.24 15.36H53.86C54.42 15.36 54.8267 15.2333 55.08 14.98C55.3333 14.7267 55.46 14.3733 55.46 13.92C55.46 13.4267 55.3333 13.06 55.08 12.82C54.8267 12.5667 54.3667 12.44 53.7 12.44H51.24V15.36ZM51.24 20.7H54.18C54.7667 20.7 55.2 20.58 55.48 20.34C55.7733 20.1 55.92 19.6733 55.92 19.06C55.92 18.5667 55.78 18.2 55.5 17.96C55.22 17.7067 54.74 17.58 54.06 17.58H51.24V20.7ZM64.9325 23.2C64.0792 23.2 63.2792 23.1333 62.5325 23C61.7992 22.88 61.1658 22.7 60.6325 22.46V19.72C61.2192 19.9733 61.8658 20.18 62.5725 20.34C63.2925 20.5 63.9725 20.58 64.6125 20.58C65.4125 20.58 66.0058 20.5067 66.3925 20.36C66.7925 20.2133 66.9925 19.8933 66.9925 19.4C66.9925 19.0667 66.8925 18.8 66.6925 18.6C66.5058 18.4 66.1925 18.2267 65.7525 18.08C65.3258 17.92 64.7392 17.7333 63.9925 17.52C63.1125 17.2533 62.4125 16.96 61.8925 16.64C61.3725 16.3067 60.9992 15.9067 60.7725 15.44C60.5458 14.9733 60.4325 14.4 60.4325 13.72C60.4325 12.4933 60.8725 11.5533 61.7525 10.9C62.6325 10.2467 63.9325 9.92 65.6525 9.92C66.3992 9.92 67.1258 9.98 67.8325 10.1C68.5392 10.2067 69.1125 10.3333 69.5525 10.48V13.24C68.9792 13.0133 68.3992 12.8467 67.8125 12.74C67.2392 12.6333 66.6792 12.58 66.1325 12.58C65.4125 12.58 64.8258 12.6467 64.3725 12.78C63.9325 12.9133 63.7125 13.22 63.7125 13.7C63.7125 13.98 63.7925 14.2067 63.9525 14.38C64.1125 14.54 64.3858 14.6867 64.7725 14.82C65.1725 14.9533 65.7125 15.1133 66.3925 15.3C67.4458 15.58 68.2525 15.92 68.8125 16.32C69.3725 16.7067 69.7592 17.16 69.9725 17.68C70.1858 18.1867 70.2925 18.76 70.2925 19.4C70.2925 20.5333 69.8525 21.4533 68.9725 22.16C68.0925 22.8533 66.7458 23.2 64.9325 23.2ZM78.4463 23.2C76.1929 23.2 74.4729 22.6267 73.2863 21.48C72.1129 20.32 71.5263 18.7133 71.5263 16.66C71.5263 14.5133 72.0996 12.8533 73.2463 11.68C74.4063 10.5067 76.1329 9.92 78.4263 9.92C79.2129 9.92 79.9129 9.98 80.5263 10.1C81.1529 10.22 81.7529 10.38 82.3263 10.58V13.4C81.1663 12.92 79.9463 12.68 78.6663 12.68C77.3329 12.68 76.3529 13 75.7263 13.64C75.1129 14.28 74.8063 15.2867 74.8063 16.66C74.8063 17.9667 75.1329 18.9267 75.7863 19.54C76.4396 20.1533 77.4129 20.46 78.7063 20.46C79.3329 20.46 79.9529 20.4067 80.5663 20.3C81.1796 20.18 81.7729 20 82.3463 19.76V22.6C81.7863 22.7867 81.1929 22.9333 80.5663 23.04C79.9396 23.1467 79.2329 23.2 78.4463 23.2ZM83.577 18.7V16.2H91.477V18.7H83.577ZM99.5377 23.2C97.311 23.2 95.6177 22.64 94.4577 21.52C93.2977 20.3867 92.7177 18.7933 92.7177 16.74C92.7177 14.5933 93.311 12.92 94.4977 11.72C95.6843 10.52 97.431 9.92 99.7377 9.92C100.524 9.92 101.231 9.96667 101.858 10.06C102.498 10.1533 103.104 10.2933 103.678 10.48V13.24C103.104 13.0267 102.504 12.88 101.878 12.8C101.264 12.72 100.631 12.68 99.9777 12.68C98.591 12.68 97.5777 13.0133 96.9377 13.68C96.311 14.3333 95.9977 15.3533 95.9977 16.74C95.9977 18.0067 96.2977 18.9467 96.8977 19.56C97.4977 20.16 98.3843 20.46 99.5577 20.46C100.331 20.46 101.051 20.3533 101.718 20.14V17.7H98.9377V15.68H104.418V22.06C103.964 22.3533 103.331 22.62 102.518 22.86C101.718 23.0867 100.724 23.2 99.5377 23.2ZM106.067 23V10.12H112.507C114.027 10.12 115.147 10.52 115.867 11.32C116.587 12.12 116.947 13.1933 116.947 14.54C116.947 15.4067 116.727 16.1667 116.287 16.82C115.847 17.4733 115.247 17.96 114.487 18.28C114.674 18.4267 114.82 18.5933 114.927 18.78C115.047 18.9533 115.174 19.2 115.307 19.52L116.827 23H113.467L112.027 19.72C111.907 19.44 111.754 19.24 111.567 19.12C111.38 18.9867 111.114 18.92 110.767 18.92H109.287V23H106.067ZM109.287 16.44H111.667C112.294 16.44 112.78 16.2867 113.127 15.98C113.487 15.66 113.667 15.18 113.667 14.54C113.667 13.2467 113.047 12.6 111.807 12.6H109.287V16.44ZM118.586 23V10.12H121.806V23H118.586ZM123.84 23V10.12H129.42C130.727 10.12 131.827 10.34 132.72 10.78C133.614 11.2067 134.294 11.9 134.76 12.86C135.227 13.8067 135.46 15.0667 135.46 16.64C135.46 18.8533 134.947 20.4667 133.92 21.48C132.907 22.4933 131.407 23 129.42 23H123.84ZM127.06 20.52H128.98C129.674 20.52 130.254 20.42 130.72 20.22C131.2 20.0067 131.56 19.62 131.8 19.06C132.054 18.5 132.18 17.6933 132.18 16.64C132.18 15.5733 132.067 14.7533 131.84 14.18C131.627 13.5933 131.28 13.1867 130.8 12.96C130.334 12.72 129.727 12.6 128.98 12.6H127.06V20.52Z" fill="#BBFFFB"/>
<path d="M48.956 38.12C48.3 38.12 47.74 38.028 47.276 37.844V36.74C47.468 36.82 47.692 36.888 47.948 36.944C48.212 36.992 48.472 37.016 48.728 37.016C49.264 37.016 49.636 36.908 49.844 36.692C50.06 36.468 50.168 36.112 50.168 35.624V30.272H51.476V35.84C51.476 36.576 51.264 37.14 50.84 37.532C50.424 37.924 49.796 38.12 48.956 38.12ZM57.424 38.12C56.2 38.12 55.284 37.8 54.676 37.16C54.068 36.512 53.764 35.512 53.764 34.16C53.764 32.752 54.068 31.732 54.676 31.1C55.284 30.468 56.2 30.152 57.424 30.152C58.656 30.152 59.572 30.468 60.172 31.1C60.78 31.732 61.084 32.752 61.084 34.16C61.084 35.512 60.78 36.512 60.172 37.16C59.572 37.8 58.656 38.12 57.424 38.12ZM57.424 37.016C58.232 37.016 58.824 36.796 59.2 36.356C59.584 35.908 59.776 35.176 59.776 34.16C59.776 33.088 59.584 32.34 59.2 31.916C58.824 31.484 58.232 31.268 57.424 31.268C56.624 31.268 56.032 31.484 55.648 31.916C55.272 32.34 55.084 33.088 55.084 34.16C55.084 35.176 55.272 35.908 55.648 36.356C56.032 36.796 56.624 37.016 57.424 37.016ZM63.4394 38V30.272H64.7474V38H63.4394ZM67.3437 38V30.272H68.4957L72.5277 35.96V30.272H73.8237V38H72.6717L68.6517 32.324V38H67.3437ZM82.2772 38V31.292H79.8052V30.272H86.0452V31.292H83.5852V38H82.2772ZM88.1735 38V30.272H89.4815V33.632H93.2015V30.272H94.5095V38H93.2015V34.64H89.4815V38H88.1735ZM97.1051 38V30.272H102.493V31.292H98.4131V33.632H102.049V34.64H98.4131V36.992H102.493V38H97.1051ZM112.228 38.12C110.956 38.12 109.996 37.776 109.348 37.088C108.708 36.4 108.388 35.468 108.388 34.292C108.388 33.444 108.528 32.712 108.808 32.096C109.088 31.472 109.512 30.992 110.08 30.656C110.656 30.32 111.384 30.152 112.264 30.152C112.72 30.152 113.132 30.184 113.5 30.248C113.876 30.304 114.228 30.388 114.556 30.5V31.628C113.9 31.388 113.172 31.268 112.372 31.268C111.388 31.268 110.696 31.528 110.296 32.048C109.904 32.568 109.708 33.316 109.708 34.292C109.708 35.18 109.916 35.856 110.332 36.32C110.748 36.784 111.392 37.016 112.264 37.016C112.952 37.016 113.508 36.936 113.932 36.776V34.616H112V33.764H115.048V37.484C114.8 37.644 114.444 37.792 113.98 37.928C113.524 38.056 112.94 38.12 112.228 38.12ZM117.396 38V30.272H120.948C121.812 30.272 122.44 30.496 122.832 30.944C123.232 31.384 123.432 31.984 123.432 32.744C123.432 33.288 123.296 33.752 123.024 34.136C122.752 34.52 122.36 34.788 121.848 34.94C121.992 35.044 122.104 35.156 122.184 35.276C122.264 35.396 122.344 35.556 122.424 35.756L123.396 38H122.052L121.104 35.84C121.016 35.632 120.908 35.484 120.78 35.396C120.66 35.308 120.452 35.264 120.156 35.264H118.704V38H117.396ZM118.704 34.208H120.6C121.072 34.208 121.444 34.092 121.716 33.86C121.988 33.628 122.124 33.256 122.124 32.744C122.124 31.776 121.656 31.292 120.72 31.292H118.704V34.208ZM125.8 38V30.272H127.108V38H125.8ZM129.704 38V30.272H132.836C133.98 30.272 134.828 30.576 135.38 31.184C135.932 31.784 136.208 32.784 136.208 34.184C136.208 35.504 135.936 36.472 135.392 37.088C134.848 37.696 133.996 38 132.836 38H129.704ZM131.012 36.992H132.632C133.136 36.992 133.556 36.92 133.892 36.776C134.228 36.624 134.48 36.344 134.648 35.936C134.816 35.528 134.9 34.944 134.9 34.184C134.9 33.424 134.824 32.836 134.672 32.42C134.52 32.004 134.276 31.712 133.94 31.544C133.612 31.376 133.176 31.292 132.632 31.292H131.012V36.992Z" fill="#CCCCCC"/>
<rect x="134.995" y="4.31567" width="1" height="14" transform="rotate(-28.654 134.995 4.31567)" fill="#BBFFFB"/>
<rect x="146.279" y="0.991272" width="1" height="14" transform="rotate(61.2916 146.279 0.991272)" fill="#BBFFFB"/>
<rect x="142.016" y="0.479492" width="1" height="14" transform="rotate(-28.654 142.016 0.479492)" fill="#BBFFFB"/>
<rect x="150.122" y="8.00787" width="1" height="14" transform="rotate(61.2916 150.122 8.00787)" fill="#BBFFFB"/>
<rect y="5" width="11" height="11" rx="1" fill="#64A66F"/>
<rect y="18" width="11" height="11" rx="1" fill="#FFACED"/>
<rect y="31" width="11" height="11" rx="1" fill="#3DACDC"/>
<rect x="13" y="5" width="11" height="11" rx="1" fill="#FFD300"/>
<rect x="13" y="18" width="11" height="11" rx="1" fill="#7E33C9"/>
<rect x="13" y="31" width="11" height="11" rx="1" fill="#ACB9FF"/>
<rect x="26" y="5" width="11" height="11" rx="1" fill="#EC544B"/>
<rect x="26" y="18" width="11" height="11" rx="1" fill="#FFA959"/>
<rect x="26" y="31" width="11" height="11" rx="1" fill="#7E33C9"/>
<circle cx="18.5" cy="24.5" r="13.5" fill="white"/>
<path d="M20.6629 24.5212L18.5 22.363L16.3371 24.5212L18.5 26.6793L20.6629 24.5212Z" fill="#F3BA2F"/>
<path d="M28 24.5212L25.8795 22.4053L23.7589 24.5212L25.8795 26.637L28 24.5212Z" fill="#F3BA2F"/>
<path d="M11.1205 22.4053L13.2411 24.5212L11.1205 26.637L9 24.5212L11.1205 22.4053Z" fill="#F3BA2F"/>
<path d="M18.5 29.7684L14.7679 26.0445L12.6473 28.1604L18.5 34L24.3527 28.1604L22.2321 26.0445L18.5 29.7684Z" fill="#F3BA2F"/>
<path d="M18.5 15L12.6473 20.8396L14.7679 22.9555L18.5 19.2316L22.2321 22.9555L24.3527 20.8396L18.5 15Z" fill="#F3BA2F"/>
<path d="M18.5 19.2316V15L24.3527 20.8396L22.2321 22.9555L18.5 19.2316Z" fill="#FFCF5B"/>
<path d="M25.8795 26.637L23.7589 24.5212L25.8795 22.4053L28 24.5212L25.8795 26.637Z" fill="#FFCF5B"/>
<path d="M18.5 26.6793V22.363L20.6629 24.5212L18.5 26.6793Z" fill="#FFCF5B"/>
<path d="M18.5 34V29.7684L22.2321 26.0445L24.3527 28.1604L18.5 34Z" fill="#FFCF5B"/>
</svg>
