<svg width="20" height="20" viewBox="0 0 20 20" fill="none" xmlns="http://www.w3.org/2000/svg">
<path d="M15.3909 19.6094H1.17218C0.740696 19.6094 0.39093 19.2596 0.39093 18.8281V1.17188C0.39093 0.740391 0.740696 0.390625 1.17218 0.390625H15.3909C15.8224 0.390625 16.1722 0.740391 16.1722 1.17188V18.8281C16.1722 19.2596 15.8224 19.6094 15.3909 19.6094Z" fill="white"/>
<path d="M8.28162 8.90625C10.0507 8.90625 11.4847 7.47216 11.4847 5.70312C11.4847 3.93409 10.0507 2.5 8.28162 2.5C6.51258 2.5 5.07849 3.93409 5.07849 5.70312C5.07849 7.47216 6.51258 8.90625 8.28162 8.90625Z" fill="#FE6663"/>
<path d="M9.29718 5.29297V5.54688C9.29718 6.10777 8.84245 6.5625 8.28155 6.5625C7.72066 6.5625 7.26593 6.10777 7.26593 5.54688V5.29297C7.26593 4.73207 7.72066 4.27734 8.28155 4.27734C8.84245 4.27734 9.29718 4.73207 9.29718 5.29297Z" fill="#FFCDAC"/>
<path d="M8.28152 6.5625C7.29012 6.5625 6.44309 7.1784 6.10059 8.04816C6.67246 8.58027 7.43875 8.90625 8.28152 8.90625C9.12429 8.90625 9.89058 8.58027 10.4625 8.04816C10.12 7.1784 9.27293 6.5625 8.28152 6.5625Z" fill="#A5DDFF"/>
<path d="M17.0537 6.27305L17.2769 5.88645C17.6221 5.2886 18.3865 5.08375 18.9844 5.42891C19.5823 5.7741 19.7871 6.53856 19.4419 7.13645L14.5263 15.6506L12.3612 14.4006L14.4816 10.728L17.0537 6.27305Z" fill="#FFBC53"/>
<path d="M18.9845 5.4289C18.3866 5.08371 17.6221 5.28855 17.2769 5.88644L16.6966 6.89164L18.8617 8.14164L19.442 7.13644C19.7872 6.53859 19.5823 5.7741 18.9845 5.4289Z" fill="#FE6663"/>
<path d="M14.5263 15.6506L12.0152 17.5L12.3612 14.4006L14.5263 15.6506Z" fill="#9AD8FF"/>
<path d="M16.1726 15.5597C15.9569 15.5597 15.782 15.7346 15.782 15.9503V18.8281C15.782 19.0435 15.6067 19.2188 15.3914 19.2188H1.17261C0.957217 19.2188 0.781982 19.0435 0.781982 18.8281V1.17188C0.781982 0.956484 0.957217 0.78125 1.17261 0.78125H15.3914C15.6067 0.78125 15.782 0.956484 15.782 1.17188V5.41992C15.782 5.63566 15.9569 5.81055 16.1726 5.81055C16.3883 5.81055 16.5632 5.63566 16.5632 5.41992V1.17188C16.5632 0.525703 16.0375 0 15.3914 0H1.17261C0.526435 0 0.000732422 0.525703 0.000732422 1.17188V18.8281C0.000732422 19.4743 0.526435 20 1.17261 20H15.3914C16.0375 20 16.5632 19.4743 16.5632 18.8281V15.9503C16.5632 15.7346 16.3883 15.5597 16.1726 15.5597Z" fill="black"/>
<path d="M11.8752 5.70312C11.8752 3.72152 10.2631 2.10938 8.28149 2.10938C6.29989 2.10938 4.68774 3.72152 4.68774 5.70312C4.68774 6.73113 5.12173 7.65957 5.81595 8.3152C5.82895 8.3291 5.84278 8.34227 5.8579 8.35426C6.49739 8.93937 7.34845 9.29684 8.28145 9.29684C9.21446 9.29684 10.0655 8.93934 10.705 8.35426C10.7201 8.34227 10.734 8.32906 10.747 8.3152C11.4413 7.65957 11.8752 6.73113 11.8752 5.70312ZM8.28149 2.89062C9.83231 2.89062 11.094 4.1523 11.094 5.70312C11.094 6.32684 10.8897 6.90352 10.5448 7.37043C10.2567 6.94316 9.85743 6.61086 9.39387 6.4057C9.57786 6.16793 9.68774 5.87008 9.68774 5.54688V5.29297C9.68774 4.51754 9.05692 3.88672 8.28149 3.88672C7.50606 3.88672 6.87524 4.51754 6.87524 5.29297V5.54688C6.87524 5.87008 6.98513 6.16793 7.16911 6.4057C6.70556 6.61086 6.3063 6.94316 6.01821 7.37043C5.67333 6.90352 5.46899 6.32684 5.46899 5.70312C5.46899 4.1523 6.73067 2.89062 8.28149 2.89062ZM7.65649 5.54688V5.29297C7.65649 4.94836 7.93688 4.66797 8.28149 4.66797C8.6261 4.66797 8.90649 4.94836 8.90649 5.29297V5.54688C8.90649 5.89148 8.6261 6.17188 8.28149 6.17188C7.93688 6.17188 7.65649 5.89148 7.65649 5.54688ZM6.58263 7.94266C6.92595 7.33387 7.56661 6.95312 8.28149 6.95312C8.99638 6.95312 9.63704 7.33387 9.98036 7.94266C9.50798 8.30188 8.91934 8.51562 8.28149 8.51562C7.64364 8.51562 7.05497 8.30188 6.58263 7.94266Z" fill="black"/>
<path d="M10.3909 17.1094H8.28155C8.06585 17.1094 7.89093 17.2843 7.89093 17.5C7.89093 17.7157 8.06585 17.8906 8.28155 17.8906H10.3909C10.6066 17.8906 10.7816 17.7157 10.7816 17.5C10.7816 17.2843 10.6066 17.1094 10.3909 17.1094Z" fill="black"/>
<path d="M10.3909 14.9219H4.84399C4.62829 14.9219 4.45337 15.0968 4.45337 15.3125C4.45337 15.5282 4.62829 15.7031 4.84399 15.7031H10.3909C10.6066 15.7031 10.7815 15.5282 10.7815 15.3125C10.7815 15.0968 10.6066 14.9219 10.3909 14.9219Z" fill="black"/>
<path d="M10.3909 12.7344H4.84399C4.62829 12.7344 4.45337 12.9093 4.45337 13.125C4.45337 13.3407 4.62829 13.5156 4.84399 13.5156H10.3909C10.6066 13.5156 10.7815 13.3407 10.7815 13.125C10.7815 12.9093 10.6066 12.7344 10.3909 12.7344Z" fill="black"/>
<path d="M3.45182 10.6613C3.3792 10.5887 3.27842 10.5469 3.17529 10.5469C3.07252 10.5469 2.97174 10.5887 2.89912 10.6613C2.82646 10.734 2.78467 10.8348 2.78467 10.9375C2.78467 11.0402 2.82643 11.141 2.89912 11.2137C2.97217 11.2863 3.07252 11.3281 3.17529 11.3281C3.27842 11.3281 3.37881 11.2863 3.45182 11.2137C3.52447 11.141 3.56631 11.0402 3.56631 10.9375C3.56631 10.8348 3.52451 10.734 3.45182 10.6613Z" fill="black"/>
<path d="M3.45182 12.8488C3.37881 12.7762 3.27842 12.7344 3.17529 12.7344C3.07252 12.7344 2.97217 12.7762 2.89912 12.8488C2.82646 12.9215 2.78467 13.0223 2.78467 13.125C2.78467 13.2277 2.82643 13.3285 2.89912 13.4012C2.97217 13.4738 3.07252 13.5156 3.17529 13.5156C3.27842 13.5156 3.37881 13.4738 3.45182 13.4012C3.52447 13.3285 3.56631 13.2277 3.56631 13.125C3.56631 13.0223 3.52451 12.9215 3.45182 12.8488Z" fill="black"/>
<path d="M3.17529 14.9219C3.07252 14.9219 2.97217 14.9637 2.89912 15.0363C2.82646 15.109 2.78467 15.2098 2.78467 15.3125C2.78467 15.4152 2.82643 15.516 2.89912 15.5887C2.97174 15.6613 3.07252 15.7031 3.17529 15.7031C3.27842 15.7031 3.3792 15.6613 3.45182 15.5887C3.52447 15.516 3.56631 15.4152 3.56631 15.3125C3.56631 15.2098 3.52451 15.109 3.45182 15.0363C3.37881 14.9637 3.27842 14.9219 3.17529 14.9219Z" fill="black"/>
<path d="M10.3909 10.5469H4.84399C4.62829 10.5469 4.45337 10.7218 4.45337 10.9375C4.45337 11.1532 4.62829 11.3281 4.84399 11.3281H10.3909C10.6066 11.3281 10.7815 11.1532 10.7815 10.9375C10.7815 10.7218 10.6066 10.5469 10.3909 10.5469Z" fill="black"/>
<path d="M19.1798 5.09063C18.8003 4.87153 18.3582 4.81333 17.9348 4.92673C17.5115 5.04016 17.1577 5.31165 16.9386 5.69114L12.0229 14.2053C11.996 14.252 11.979 14.3038 11.973 14.3573L11.627 17.4567C11.6098 17.6109 11.6855 17.7607 11.8199 17.8383C11.8805 17.8733 11.9479 17.8907 12.0152 17.8907C12.0969 17.8907 12.1783 17.8651 12.2468 17.8146L14.7579 15.9652C14.8013 15.9333 14.8377 15.8927 14.8646 15.846L19.7802 7.3318C20.2326 6.54837 19.9632 5.54298 19.1798 5.09063ZM12.6832 15.0376L13.8137 15.6903L12.5025 16.656L12.6832 15.0376ZM14.3833 15.117L12.8948 14.2577L16.8396 7.42524L18.328 8.28462L14.3833 15.117ZM19.1037 6.94114L18.7186 7.60806L17.2302 6.74868L17.6152 6.08177C17.73 5.88298 17.9153 5.74079 18.137 5.68137C18.3588 5.62192 18.5903 5.65247 18.7891 5.76723C18.9879 5.882 19.1301 6.06731 19.1895 6.28903C19.2489 6.51075 19.2184 6.74235 19.1037 6.94114Z" fill="black"/>
</svg>
