<svg width="402" height="199" viewBox="0 0 402 199" fill="none" xmlns="http://www.w3.org/2000/svg">
<path d="M360.534 168.725H40.8233C26.2128 169.653 17.6184 162.852 17.6184 157.597L18.0482 31.7853C19.767 22.8208 32.2289 20.9661 35.6666 20.9661H365.261C379.012 20.9661 384.598 28.3849 384.598 33.64V156.361C384.598 162.234 378.152 169.653 360.534 168.725Z" fill="#E8E8E8"/>
<path d="M365.434 9.78762H246.971V4.20008C246.971 2.29809 245.369 0.667969 239.783 0.667969H161.574C157.277 0.667969 155.027 1.75472 155.027 4.20008V9.78707H36.5656C16.4032 9.78707 0 20.1579 0 32.9055V156.668C0 169.415 16.4032 179.787 36.5656 179.787H155.028V193.73C155.028 196.791 158.344 199 163.185 199H237.956C242.796 199 246.972 196.791 246.972 193.73V179.787H365.434C385.597 179.787 402 169.416 402 156.668V32.906C401.999 20.1579 385.597 9.78762 365.434 9.78762ZM172.559 7.73202H229.441V9.78707H172.559V7.73202ZM229.441 190.198H199.281H172.559L172.558 179.787H229.441V190.198ZM365.434 20.8714C375.93 20.8714 384.468 26.2698 384.468 32.906V156.669C384.468 163.305 375.93 168.704 365.434 168.704H36.5656C26.0693 168.704 17.5308 163.305 17.5308 156.669V32.906C17.5308 26.2698 26.0693 20.8714 36.5656 20.8714H365.434Z" fill="black"/>
<path d="M123.604 53.9084C123.604 52.1126 126.621 51.2155 129.639 51.2155H160.434C163.362 51.2155 164.605 53.1792 164.605 54.9745C164.605 57.0508 163.096 58.8455 160.434 58.8455H137.448V68.328H150.85C153.513 68.328 155.021 69.9548 155.021 71.7507C155.021 73.2651 153.778 75.0609 150.85 75.0609H137.448V89.537C137.448 91.3323 133.988 92.2299 130.527 92.2299C127.065 92.2299 123.606 91.3323 123.606 89.537V53.9079H123.604V53.9084Z" fill="black"/>
<path d="M175.075 79.3247V64.4563C175.075 54.8055 184.57 51.2148 196.818 51.2148C209.064 51.2148 218.648 54.8055 218.648 64.4563V79.3247C218.648 88.9756 209.063 92.5662 196.818 92.5662C184.57 92.5662 175.075 88.9756 175.075 79.3247ZM204.805 64.4563C204.805 60.5848 201.787 58.8449 196.819 58.8449C191.849 58.8449 188.919 60.5848 188.919 64.4563V79.3247C188.919 83.1963 191.849 84.9356 196.819 84.9356C201.787 84.9356 204.805 83.1963 204.805 79.3247V64.4563Z" fill="black"/>
<path d="M234.618 53.8514C234.618 52.4489 236.304 51.2144 238.877 51.2144H257.247C269.405 51.2144 279.078 54.0758 279.078 63.2219C279.078 69.506 274.551 73.0972 268.34 74.6115L279.167 87.0119C279.522 87.3482 279.611 87.7411 279.611 88.0215C279.611 90.2102 274.995 92.5663 270.913 92.5663C269.139 92.5663 267.452 92.1174 266.475 90.9394L254.317 76.0151H248.46V89.537C248.46 91.3323 245 92.2299 241.539 92.2299C238.078 92.2299 234.618 91.3323 234.618 89.537V53.8514ZM248.461 58.8455V69.2816H257.247C262.217 69.2816 265.233 67.9916 265.233 64.063C265.233 60.1355 262.216 58.8444 257.247 58.8444H248.461V58.8455Z" fill="black"/>
<path d="M125.473 137.207C125.473 130.418 97.3409 131.596 97.3409 118.467C97.3409 110.05 108.966 106.853 120.059 106.853C124.762 106.853 137.718 107.413 137.718 111.79C137.718 113.304 136.121 116.39 132.216 116.39C129.021 116.39 127.335 114.258 120.059 114.258C113.758 114.258 111.184 115.885 111.184 117.625C111.184 123.236 139.316 122.169 139.316 136.309C139.316 144.388 129.997 148.765 117.129 148.765C105.505 148.765 95.7432 145.175 95.7432 141.471C95.7432 139.564 98.4057 136.759 101.776 136.759C105.949 136.759 108.611 140.911 116.865 140.911C120.946 140.91 125.473 139.9 125.473 137.207Z" fill="black"/>
<path d="M148.807 144.613C148.807 144.445 148.897 144.221 148.985 143.996L165.491 109.77C166.466 107.806 170.461 106.853 174.544 106.853C178.626 106.853 182.62 107.806 183.596 109.77L200.191 143.996C200.28 144.22 200.368 144.445 200.368 144.613C200.368 146.69 195.31 148.204 191.493 148.204C189.275 148.204 187.5 147.755 186.968 146.577L183.95 139.563H165.225L162.207 146.577C161.675 147.755 159.901 148.204 157.682 148.204C153.866 148.204 148.807 146.689 148.807 144.613ZM181.023 132.83L174.544 117.793L168.064 132.83H181.023Z" fill="black"/>
<path d="M218.644 148.204C215.628 148.204 212.609 147.306 212.609 145.511V109.826C212.609 107.974 216.071 107.189 219.532 107.189C222.992 107.189 226.453 107.974 226.453 109.826V140.573H246.686C249.348 140.573 250.681 142.481 250.681 144.389C250.681 146.296 249.349 148.204 246.686 148.204H218.644V148.204Z" fill="black"/>
<path d="M277.212 124.302H290.524C293.186 124.302 294.695 125.929 294.695 127.725C294.695 129.239 293.454 131.035 290.524 131.035H277.212V140.574H300.995C303.657 140.574 305.166 142.369 305.166 144.445C305.166 146.241 303.924 148.204 300.995 148.204H269.402C266.385 148.204 263.367 147.306 263.367 145.511V109.882C263.367 108.086 266.385 107.189 269.402 107.189H300.995C303.924 107.189 305.166 109.153 305.166 110.948C305.166 113.024 303.658 114.819 300.995 114.819H277.212V124.302Z" fill="black"/>
<path d="M230.329 7.73181H171.887V10.4487H230.329V7.73181Z" fill="#F07057"/>
<path d="M229.47 179.982H172.747V190.849H229.47V179.982Z" fill="#F07057"/>
<path d="M219.157 189.219C221.53 189.219 223.454 187.699 223.454 185.823V184.465C223.454 182.589 221.53 181.068 219.157 181.068C216.784 181.068 214.859 182.589 214.859 184.465V185.823C214.859 187.699 216.784 189.219 219.157 189.219Z" fill="black"/>
</svg>
