<svg width="20" height="20" viewBox="0 0 20 20" fill="none" xmlns="http://www.w3.org/2000/svg">
<rect width="20" height="20" rx="10" fill="#0587FF"/>
<rect x="2" y="2" width="16" height="16" rx="8" fill="#EEEEEE"/>
<path d="M12.4013 5.2C10.9806 5.2 9.82485 6.39445 9.82485 7.86267V9.01982H6.08884C5.58556 9.01982 5.19995 9.6009 5.19995 10.0889V14.0889C5.19995 14.5333 5.6444 14.9778 6.08884 14.9778H11.2196C11.5302 14.9778 12.0865 14.5333 12.0865 14.0889V9.89506C12.0865 9.45765 11.5936 9.01982 11.2831 9.01982H11.2196V7.86267C11.2196 7.1893 11.7497 6.64144 12.4013 6.64144C13.0529 6.64144 13.583 7.18926 13.583 7.86267C13.583 8.26072 13.8952 8.58339 14.2804 8.58339C14.6655 8.58339 14.9777 8.26072 14.9777 7.86267C14.9777 6.39449 13.8219 5.2 12.4013 5.2ZM9.18947 12.0553V13.0078H8.09697V12.0553C7.89177 11.8881 7.75986 11.6292 7.75986 11.3382C7.75986 10.834 8.15534 10.4252 8.64322 10.4252C9.13111 10.4252 9.52658 10.834 9.52658 11.3382C9.52658 11.6292 9.39468 11.8881 9.18947 12.0553Z" fill="#0587FF"/>
</svg>
