<svg width="92" height="124" viewBox="0 0 92 124" fill="none" xmlns="http://www.w3.org/2000/svg">
<g filter="url(#filter0_d)">
<path d="M53.7814 114.916L41.9434 77.363L71.7751 69.3831L83.1396 105.997L65.6194 101.303L53.7814 114.916Z" fill="#B31500"/>
</g>
<path d="M79.888 105.159L70.673 74.8035L69.0469 75.3455L77.7198 104.617L79.888 105.159Z" fill="#EEEEEE"/>
<path d="M57.1218 111.121L48.4489 81.8503L46.8228 82.3924L56.0377 112.205L57.1218 111.121Z" fill="#EEEEEE"/>
<g filter="url(#filter1_d)">
<path d="M39.8627 116L51.7007 78.4472L21.8689 70.4673L10.5044 107.081L28.0247 102.387L39.8627 116Z" fill="#DD240B"/>
</g>
<path d="M13.7565 106.243L22.9715 75.8877L24.5977 76.4298L15.9248 105.701L13.7565 106.243Z" fill="white"/>
<path d="M36.5232 112.206L45.1961 82.9346L46.8223 83.4766L37.6073 113.29L36.5232 112.206Z" fill="white"/>
<g filter="url(#filter2_d)">
<circle cx="45.7383" cy="41.7383" r="41.7383" fill="url(#paint0_linear)"/>
<circle cx="45.7383" cy="41.7383" r="41.2383" stroke="url(#paint1_linear)"/>
</g>
<path d="M80.472 41.7384C80.472 60.3151 65.1714 75.3879 46.2805 75.3879C27.3895 75.3879 12.0889 60.3151 12.0889 41.7384C12.0889 23.1617 27.3895 8.08887 46.2805 8.08887C65.1714 8.08887 80.472 23.1617 80.472 41.7384Z" fill="url(#paint2_linear)" stroke="url(#paint3_linear)"/>
<path d="M67.8054 28.187C67.8054 32.1606 70.4545 37.9003 71.3376 39.2249C73.5454 34.8097 71.7791 30.3946 67.8054 28.187Z" fill="#D9DBE0"/>
<path d="M67.8071 28.187C67.8071 32.1606 70.4562 37.9003 71.3392 39.2249C71.7807 35.6928 70.4562 30.8361 67.8071 28.187Z" fill="#24262A"/>
<path d="M72.9717 36.5758C71.8659 39.8157 72.4285 45.2327 72.7799 46.5584C75.8087 43.5729 75.5972 39.4816 72.9717 36.5758Z" fill="#D9DBE0"/>
<path d="M72.9714 36.5758C71.8655 39.8157 72.4282 45.2326 72.7795 46.5583C74.1225 43.8013 74.394 39.4729 72.9714 36.5758Z" fill="#24262A"/>
<path d="M69.2647 38.3422C68.2282 42.5195 68.9934 49.1148 69.402 50.6944C72.4392 46.5207 72.0824 41.5049 69.2647 38.3422Z" fill="#D9DBE0"/>
<path d="M69.2656 38.3422C68.2291 42.5196 68.9943 49.1149 69.4029 50.6944C70.7013 47.0748 70.8369 41.6885 69.2656 38.3422Z" fill="#24262A"/>
<path d="M67.9965 48.0551C64.7475 51.5741 62.0238 58.4755 61.5972 60.2547C66.8487 57.86 69.1456 52.7376 67.9965 48.0551Z" fill="#D9DBE0"/>
<path d="M67.9965 48.0557C64.7474 51.5748 62.0238 58.4762 61.5972 60.2553C64.8135 57.4303 67.7999 52.2201 67.9965 48.0557Z" fill="#24262A"/>
<path d="M73.9914 48.055C70.095 50.8404 66.0257 57.0443 65.2465 58.6997C70.875 57.4221 74.1649 52.8733 73.9914 48.055Z" fill="#D9DBE0"/>
<path d="M73.991 48.0552C70.0946 50.8406 66.0253 57.0445 65.2461 58.6998C68.9694 56.5873 72.9522 52.0927 73.991 48.0552Z" fill="#24262A"/>
<path d="M61.0969 56.8857C56.543 58.3698 50.7958 63.0621 49.5548 64.4063C55.3068 64.8813 59.8128 61.533 61.0969 56.8857Z" fill="#D9DBE0"/>
<path d="M61.0983 56.8862C56.5444 58.3703 50.7972 63.0626 49.5561 64.4068C53.7424 63.5124 58.8929 60.4242 61.0983 56.8862Z" fill="#24262A"/>
<path d="M67.2775 60.4175C62.5203 60.9738 55.9602 64.4397 54.4783 65.5126C60.0235 67.1133 65.1016 64.72 67.2775 60.4175Z" fill="#D9DBE0"/>
<path d="M67.2767 60.4179C62.5195 60.9742 55.9594 64.4401 54.4775 65.513C58.758 65.4622 64.4166 63.4511 67.2767 60.4179Z" fill="#24262A"/>
<path d="M23.6711 28.187C23.6711 32.1606 21.022 37.9003 20.139 39.2249C17.9312 34.8097 19.6975 30.3946 23.6711 28.187Z" fill="#D9DBE0"/>
<path d="M23.6695 28.187C23.6695 32.1606 21.0204 37.9003 20.1374 39.2249C19.6959 35.6928 21.0204 30.8361 23.6695 28.187Z" fill="#24262A"/>
<path d="M18.5048 36.5758C19.6106 39.8157 19.048 45.2327 18.6966 46.5584C15.6679 43.5729 15.8793 39.4816 18.5048 36.5758Z" fill="#D9DBE0"/>
<path d="M18.5052 36.5758C19.611 39.8157 19.0484 45.2326 18.697 46.5583C17.3541 43.8013 17.0825 39.4729 18.5052 36.5758Z" fill="#24262A"/>
<path d="M22.2114 38.3422C23.2479 42.5195 22.4827 49.1148 22.0741 50.6944C19.0369 46.5207 19.3937 41.5049 22.2114 38.3422Z" fill="#D9DBE0"/>
<path d="M22.2105 38.3422C23.247 42.5196 22.4818 49.1149 22.0732 50.6944C20.7748 47.0748 20.6391 41.6885 22.2105 38.3422Z" fill="#24262A"/>
<path d="M23.48 48.0551C26.7291 51.5741 29.4528 58.4755 29.8793 60.2547C24.6279 57.86 22.331 52.7376 23.48 48.0551Z" fill="#D9DBE0"/>
<path d="M23.4801 48.0557C26.7291 51.5748 29.4528 58.4762 29.8794 60.2553C26.6631 57.4303 23.6767 52.2201 23.4801 48.0557Z" fill="#24262A"/>
<path d="M17.4852 48.055C21.3816 50.8404 25.4508 57.0443 26.23 58.6997C20.6016 57.4221 17.3116 52.8733 17.4852 48.055Z" fill="#D9DBE0"/>
<path d="M17.4851 48.0552C21.3815 50.8406 25.4507 57.0445 26.2299 58.6998C22.5067 56.5873 18.5238 52.0927 17.4851 48.0552Z" fill="#24262A"/>
<path d="M30.3787 56.8857C34.9326 58.3698 40.6797 63.0621 41.9208 64.4063C36.1688 64.8813 31.6628 61.533 30.3787 56.8857Z" fill="#D9DBE0"/>
<path d="M30.3783 56.8862C34.9321 58.3703 40.6793 63.0626 41.9204 64.4068C37.7341 63.5124 32.5836 60.4242 30.3783 56.8862Z" fill="#24262A"/>
<path d="M24.1991 60.4175C28.9562 60.9738 35.5163 64.4397 36.9983 65.5126C31.4531 67.1133 26.3749 64.72 24.1991 60.4175Z" fill="#D9DBE0"/>
<path d="M24.1999 60.4179C28.957 60.9742 35.5171 64.4401 36.9991 65.513C32.7186 65.4622 27.06 63.4511 24.1999 60.4179Z" fill="#24262A"/>
<path d="M41.4785 67.6796C39.8156 68.454 37.3211 71.5514 35.6582 71.5514C33.9955 69.2283 42.31 66.1309 43.1408 66.1309C44.1807 66.1309 44.2496 66.389 43.9725 66.9052C43.1415 66.9052 42.4731 67.2165 41.4785 67.6796Z" fill="#24262A"/>
<path d="M50.753 67.6796C52.2081 68.454 54.3907 71.5514 55.8458 71.5514C57.3007 69.2283 50.0255 66.1309 49.2985 66.1309C48.3886 66.1309 48.3283 66.389 48.5708 66.9052C49.2979 66.9052 49.8827 67.2165 50.753 67.6796Z" fill="#24262A"/>
<path d="M49.8364 25.634H52.9864C55.3664 25.634 56.5564 26.992 56.5564 29.708V40.376C56.5564 42.896 55.3244 44.156 52.8604 44.156H47.0644V40.166H48.7024C49.2064 40.166 49.5144 40.082 49.6264 39.914C49.7664 39.718 49.8364 39.396 49.8364 38.948V25.634ZM45.3844 44.156H44.2084C43.7044 44.156 43.3824 44.254 43.2424 44.45C43.1304 44.618 43.0744 44.926 43.0744 45.374V56H39.5044C38.1324 56 37.2644 55.776 36.9004 55.328C36.5364 54.88 36.3544 53.76 36.3544 51.968V43.106C36.3544 41.874 36.5644 41.076 36.9844 40.712C37.4044 40.348 38.2864 40.166 39.6304 40.166H45.3844V44.156ZM55.5064 51.17C56.2064 51.17 56.5564 51.562 56.5564 52.346V56H44.7964L44.7544 51.17H55.5064ZM48.1564 29.624H44.1664C43.5784 29.624 43.2144 29.722 43.0744 29.918C42.9344 30.086 42.8644 30.408 42.8644 30.884V35.546H38.2444C37.2084 35.546 36.5924 35.462 36.3964 35.294C36.2284 35.126 36.1444 34.608 36.1444 33.74V30.128C36.1444 28.588 36.3684 27.454 36.8164 26.726C37.2924 25.998 38.3144 25.634 39.8824 25.634H48.1564V29.624Z" fill="#22252A"/>
<defs>
<filter id="filter0_d" x="37.9434" y="69.3831" width="49.1963" height="53.5327" filterUnits="userSpaceOnUse" color-interpolation-filters="sRGB">
<feFlood flood-opacity="0" result="BackgroundImageFix"/>
<feColorMatrix in="SourceAlpha" type="matrix" values="0 0 0 0 0 0 0 0 0 0 0 0 0 0 0 0 0 0 127 0"/>
<feOffset dy="4"/>
<feGaussianBlur stdDeviation="2"/>
<feColorMatrix type="matrix" values="0 0 0 0 0 0 0 0 0 0 0 0 0 0 0 0 0 0 0.25 0"/>
<feBlend mode="normal" in2="BackgroundImageFix" result="effect1_dropShadow"/>
<feBlend mode="normal" in="SourceGraphic" in2="effect1_dropShadow" result="shape"/>
</filter>
<filter id="filter1_d" x="6.50439" y="70.4673" width="49.1963" height="53.5327" filterUnits="userSpaceOnUse" color-interpolation-filters="sRGB">
<feFlood flood-opacity="0" result="BackgroundImageFix"/>
<feColorMatrix in="SourceAlpha" type="matrix" values="0 0 0 0 0 0 0 0 0 0 0 0 0 0 0 0 0 0 127 0"/>
<feOffset dy="4"/>
<feGaussianBlur stdDeviation="2"/>
<feColorMatrix type="matrix" values="0 0 0 0 0 0 0 0 0 0 0 0 0 0 0 0 0 0 0.25 0"/>
<feBlend mode="normal" in2="BackgroundImageFix" result="effect1_dropShadow"/>
<feBlend mode="normal" in="SourceGraphic" in2="effect1_dropShadow" result="shape"/>
</filter>
<filter id="filter2_d" x="0" y="0" width="91.4766" height="91.4766" filterUnits="userSpaceOnUse" color-interpolation-filters="sRGB">
<feFlood flood-opacity="0" result="BackgroundImageFix"/>
<feColorMatrix in="SourceAlpha" type="matrix" values="0 0 0 0 0 0 0 0 0 0 0 0 0 0 0 0 0 0 127 0"/>
<feOffset dy="4"/>
<feGaussianBlur stdDeviation="2"/>
<feColorMatrix type="matrix" values="0 0 0 0 0 0 0 0 0 0 0 0 0 0 0 0 0 0 0.25 0"/>
<feBlend mode="normal" in2="BackgroundImageFix" result="effect1_dropShadow"/>
<feBlend mode="normal" in="SourceGraphic" in2="effect1_dropShadow" result="shape"/>
</filter>
<linearGradient id="paint0_linear" x1="45.7383" y1="0" x2="45.7383" y2="83.4766" gradientUnits="userSpaceOnUse">
<stop stop-color="#A7AAB1"/>
<stop offset="0.265625" stop-color="#9EA3A9"/>
<stop offset="0.640625" stop-color="#989DA6"/>
<stop offset="0.885417" stop-color="#D5D6DD"/>
<stop offset="1" stop-color="#929A9F"/>
</linearGradient>
<linearGradient id="paint1_linear" x1="69.6074" y1="4.4347" x2="19.1301" y2="75.7811" gradientUnits="userSpaceOnUse">
<stop stop-color="#8A8E97"/>
<stop offset="0.307292" stop-color="#93989E"/>
<stop offset="0.71875" stop-color="#BABBBF"/>
<stop offset="1" stop-color="#989DA3"/>
</linearGradient>
<linearGradient id="paint2_linear" x1="46.2805" y1="7.58887" x2="46.2805" y2="75.8879" gradientUnits="userSpaceOnUse">
<stop stop-color="#CBCED5"/>
<stop offset="0.53125" stop-color="#F0F1F6"/>
<stop offset="1" stop-color="#797F8B"/>
</linearGradient>
<linearGradient id="paint3_linear" x1="19.7197" y1="11.9253" x2="74.4674" y2="75.8879" gradientUnits="userSpaceOnUse">
<stop stop-color="#C6C9D0"/>
<stop offset="0.333333" stop-color="#F1F2F7"/>
<stop offset="0.723958" stop-color="#969BA5"/>
<stop offset="1" stop-color="#838A95"/>
</linearGradient>
</defs>
</svg>
