<svg width="29" height="29" viewBox="0 0 29 29" fill="none" xmlns="http://www.w3.org/2000/svg">
<g clip-path="url(#clip0)">
<path d="M11.6491 16.8812L10.2205 15.4526L0.495398 24.4302C-0.147247 25.0234 -0.167411 26.0321 0.451048 26.6506C1.06951 27.2691 2.07822 27.2489 2.67147 26.6062L11.6491 16.8812Z" fill="#873F30"/>
<path d="M2.62859 26.6513C2.03063 27.2492 1.05477 27.2543 0.451268 26.6508C0.272736 26.4723 0.147674 26.2614 0.0756836 26.0372C0.609068 26.2107 1.21762 26.0838 1.6384 25.663C1.65318 25.6482 1.66791 25.6325 1.68224 25.6174L10.66 15.8921L11.6492 16.8813L2.67152 26.6065C2.65719 26.6217 2.64292 26.6369 2.62859 26.6513Z" fill="#6C3328"/>
<path d="M13.0561 12.0674L9.76636 15.9915L11.1102 17.3353L15.0343 14.0456L13.0561 12.0674Z" fill="#873F30"/>
<path d="M13.056 12.0674L11.993 13.3354L12.312 13.6543C12.5467 13.8891 12.5467 14.2697 12.312 14.5045L10.2957 16.5208L11.1101 17.3353L15.0342 14.0456L13.056 12.0674Z" fill="#6C3328"/>
<path d="M10.3112 18.0951L9.00671 16.7906C8.6296 16.4135 8.6296 15.802 9.00671 15.4249C9.38382 15.0478 9.99532 15.0478 10.3724 15.4249L11.6769 16.7294C12.054 17.1065 12.054 17.718 11.6769 18.0951C11.2998 18.4722 10.6883 18.4722 10.3112 18.0951Z" fill="#BA5D4F"/>
<path d="M11.6765 18.0952C11.4878 18.2839 11.2405 18.378 10.9941 18.3781C10.7468 18.3781 10.4995 18.2839 10.3108 18.0952L9.32202 17.1064C9.51075 17.2952 9.75804 17.3893 10.0049 17.3888C10.2517 17.3892 10.499 17.2951 10.6877 17.1064C11.0651 16.729 11.0647 16.1177 10.6877 15.7407L11.6765 16.7295C12.0539 17.107 12.054 17.7178 11.6765 18.0952Z" fill="#A34F41"/>
<path d="M14.7607 3.09863L17.6572 5.99512L13.1099 10.5425L10.2134 7.64601L14.7607 3.09863Z" fill="#BA5D4F"/>
<path d="M19.4546 16.8911L16.5581 13.9946L21.1055 9.44725L24.002 12.3437L19.4546 16.8911Z" fill="#A34F41"/>
<path d="M9.39797 8.64428L9.29738 8.54369C8.91585 8.16215 8.91585 7.54358 9.29738 7.16199L14.2748 2.18459C14.6563 1.80305 15.2749 1.80305 15.6565 2.18459L15.7571 2.28518C16.1386 2.66671 16.1386 3.28528 15.7571 3.66687L10.7797 8.64428C10.3981 9.02581 9.77956 9.02581 9.39797 8.64428Z" fill="#873F30"/>
<path d="M18.4571 17.7034L18.5577 17.804C18.9392 18.1855 19.5578 18.1855 19.9394 17.804L24.9168 12.8265C25.2983 12.445 25.2983 11.8264 24.9168 11.4448L24.8162 11.3443C24.4347 10.9627 23.8161 10.9627 23.4345 11.3443L18.4571 16.3217C18.0755 16.7033 18.0755 17.3218 18.4571 17.7034Z" fill="#6C3328"/>
<path d="M18.9138 4.93115L22.1666 8.18388L15.2986 15.0518L12.0459 11.7991L18.9138 4.93115Z" fill="#FCC16D"/>
<path d="M13.6501 13.4092L20.5181 6.54128L22.1644 8.18761L15.2965 15.0555L13.6501 13.4092Z" fill="#FCA62F"/>
<path d="M18.9297 4.79438L18.1328 4.46859C17.8596 4.35689 17.546 4.41999 17.3374 4.62871L11.7415 10.2246C11.5328 10.4333 11.4697 10.7468 11.5814 11.02L11.9072 11.8169C12.0393 12.14 12.4579 12.2243 12.7047 11.9775L19.0902 5.59194C19.3371 5.3451 19.2528 4.92647 18.9297 4.79438Z" fill="#873F30"/>
<path d="M22.307 8.17194L22.6328 8.96888C22.7445 9.24205 22.6814 9.55562 22.4727 9.76428L16.8768 15.3601C16.6681 15.5689 16.3546 15.632 16.0814 15.5203L15.2845 15.1945C14.9614 15.0624 14.8771 14.6438 15.1239 14.3969L21.5095 8.01137C21.7563 7.76453 22.1749 7.84881 22.307 8.17194Z" fill="#6C3328"/>
<path d="M25.2572 23.8329H13.3921V22.1678C13.3921 21.8241 13.6708 21.5454 14.0145 21.5454H24.6348C24.9786 21.5454 25.2572 21.8241 25.2572 22.1678V23.8329Z" fill="#BA5D4F"/>
<path d="M25.257 22.1678V23.8328H23.9549V22.1678C23.9549 21.8243 23.6761 21.5454 23.3325 21.5454H24.6346C24.9782 21.5454 25.257 21.8243 25.257 22.1678Z" fill="#A34F41"/>
<path d="M27.8723 27.101H10.7772C10.3237 27.101 10.0225 26.6317 10.2113 26.2194L10.8157 24.8999C11.3391 23.7569 12.4809 23.0239 13.7381 23.0239H24.9114C26.1685 23.0239 27.3104 23.7569 27.8338 24.8999L28.4382 26.2194C28.627 26.6317 28.3257 27.101 27.8723 27.101Z" fill="#873F30"/>
<path d="M27.8725 27.1013H26.2081C26.6613 27.1013 26.9625 26.632 26.7739 26.22L26.1696 24.8999C25.6461 23.7571 24.504 23.0239 23.2473 23.0239H24.911C26.1683 23.0239 27.3104 23.7571 27.8339 24.8999L28.4383 26.22C28.6269 26.632 28.3256 27.1013 27.8725 27.1013Z" fill="#6C3328"/>
<path d="M26.9655 20.515C26.8547 20.515 26.7441 20.4725 26.6598 20.3878C26.4919 20.2189 26.4927 19.9459 26.6616 19.7781L27.1281 19.3143C27.297 19.1465 27.57 19.1473 27.7379 19.3161C27.9057 19.485 27.9049 19.758 27.7361 19.9258L27.2695 20.3896C27.1854 20.4732 27.0754 20.515 26.9655 20.515Z" fill="#FCC16D"/>
<path d="M25.6051 19.5505C25.5704 19.5505 25.5351 19.5463 25.4999 19.5375C25.269 19.4795 25.1287 19.2454 25.1866 19.0144L25.3484 18.3693C25.4064 18.1383 25.6407 17.9981 25.8715 18.056C26.1024 18.114 26.2426 18.3481 26.1847 18.579L26.0229 19.2242C25.9739 19.4199 25.7982 19.5505 25.6051 19.5505Z" fill="#FCC16D"/>
<path d="M27.9223 21.8809C27.7283 21.8809 27.5521 21.749 27.5039 21.5521C27.4473 21.3208 27.5889 21.0874 27.8202 21.0309L28.4665 20.8728C28.698 20.8162 28.9311 20.9578 28.9877 21.1892C29.0443 21.4205 28.9027 21.6538 28.6714 21.7104L28.0251 21.8684C27.9907 21.8768 27.9562 21.8809 27.9223 21.8809Z" fill="#FCC16D"/>
</g>
<defs>
<clipPath id="clip0">
<rect width="29" height="29" fill="white"/>
</clipPath>
</defs>
</svg>
