<svg width="32" height="32" viewBox="0 0 32 32" fill="none" xmlns="http://www.w3.org/2000/svg">
<path d="M16 32C24.8366 32 32 24.8366 32 16C32 7.16344 24.8366 0 16 0C7.16344 0 0 7.16344 0 16C0 24.8366 7.16344 32 16 32Z" fill="#FFCE00"/>
<path d="M32 16C32 15.5731 31.9833 15.1502 31.9505 14.7317L25.5823 8.36363L24.3124 9.03438L18.5657 3.28763L13.4344 5.80663L16.1266 8.49881L8.42554 24.9529L15.4638 31.9912C15.6419 31.9971 15.8206 32 16.0001 32C24.8366 32 32 24.8366 32 16Z" fill="#FFA300"/>
<path d="M14.4423 4.46268H17.5576V8.49437H14.4423V4.46268Z" fill="#555A66"/>
<path d="M15.9886 4.46268H17.5577V8.49437H15.9886V4.46268Z" fill="#333940"/>
<path d="M6.41614 8.36372L8.61871 6.16115L11.4691 9.01155L9.26654 11.2141L6.41614 8.36372Z" fill="#555A66"/>
<path d="M22.733 11.2174L20.5305 9.01484L23.3809 6.16444L25.5834 8.36701L22.733 11.2174Z" fill="#333940"/>
<path d="M15.9999 28.1401C21.8524 28.1401 26.5967 23.3958 26.5967 17.5434C26.5967 11.691 21.8524 6.94662 15.9999 6.94662C10.1475 6.94662 5.4032 11.691 5.4032 17.5434C5.4032 23.3958 10.1475 28.1401 15.9999 28.1401Z" fill="#707789"/>
<path d="M16 6.94662C15.9962 6.94662 15.9925 6.94675 15.9886 6.94675V28.1399C15.9925 28.1399 15.9962 28.1401 16 28.1401C21.8525 28.1401 26.5968 23.3958 26.5968 17.5433C26.5968 11.6909 21.8525 6.94662 16 6.94662Z" fill="#555A66"/>
<path d="M16 25.5974C20.4481 25.5974 24.054 21.9915 24.054 17.5434C24.054 13.0952 20.4481 9.48931 16 9.48931C11.5518 9.48931 7.94592 13.0952 7.94592 17.5434C7.94592 21.9915 11.5518 25.5974 16 25.5974Z" fill="white"/>
<path d="M16 9.48931C15.9962 9.48931 15.9925 9.48944 15.9886 9.48944V25.5972C15.9925 25.5972 15.9962 25.5974 16 25.5974C20.4481 25.5974 24.0541 21.9914 24.0541 17.5433C24.0541 13.0952 20.4481 9.48931 16 9.48931Z" fill="#E9EDF5"/>
<path d="M13.4344 3.28763H18.5656V5.80663H13.4344V3.28763Z" fill="#707789"/>
<path d="M15.9886 3.28763H18.5656V5.80663H15.9886V3.28763Z" fill="#555A66"/>
<path d="M15.3339 16.8803L19.7526 12.4615L21.0782 13.7871L16.6595 18.2059L15.3339 16.8803Z" fill="#333940"/>
<path d="M15.9999 19.1855C16.9068 19.1855 17.642 18.4503 17.642 17.5434C17.642 16.6365 16.9068 15.9013 15.9999 15.9013C15.093 15.9013 14.3578 16.6365 14.3578 17.5434C14.3578 18.4503 15.093 19.1855 15.9999 19.1855Z" fill="#707789"/>
<path d="M16 15.9012C15.9962 15.9012 15.9925 15.9014 15.9886 15.9015V19.1852C15.9925 19.1852 15.9962 19.1855 16 19.1855C16.907 19.1855 17.6421 18.4503 17.6421 17.5434C17.6421 16.6364 16.907 15.9012 16 15.9012Z" fill="#555A66"/>
</svg>
