<svg width="132" height="98" viewBox="0 0 132 98" fill="none" xmlns="http://www.w3.org/2000/svg">
<path d="M106 41C120.5 41 121.5 25 124 15.5" stroke="#0B9079" stroke-width="5" stroke-linecap="round"/>
<path d="M36.5225 51.4288C23.5 58.5 11.5 39.5 9 30" stroke="#0B9079" stroke-width="5" stroke-linecap="round"/>
<path d="M98.1536 9.13786L34.4138 15.7785C32.1319 16.4707 30.7279 18.6843 31.0443 21.3124L38.9065 82.4616C39.4681 85.5052 42.276 86.612 44.5223 86.612L104.05 80.5247C105.98 79.8335 107.665 78.7267 107.42 75.2675L104.05 12.4582C103.376 8.9165 99.8384 8.76893 98.1536 9.13786Z" fill="#0B9179"/>
<path d="M32.1318 17.759L34.9398 14.4387L36.9053 18.0357L32.1318 19.9725V17.759Z" fill="#0B9079"/>
<path d="M106.261 79.7383L109.35 75.8646L104.015 74.2044L106.261 79.7383Z" fill="#0B9079"/>
<path d="M100.926 6.13786L37.1863 12.7785C34.94 13.6086 33.536 15.8222 33.8169 18.3124L41.679 79.4616C42.2406 82.5052 45.0485 83.612 47.2949 83.612L106.823 77.5247C108.788 76.9713 110.192 75.8645 110.192 72.2675L106.823 9.45818C106.149 5.9165 102.611 5.76893 100.926 6.13786Z" fill="#15D5B2"/>
<path d="M50.1026 83.3353L73.1276 9.1815L55.1569 10.8417L41.1173 75.5879L41.6789 79.7383C42.3528 82.8372 45.7035 83.612 47.2947 83.612L50.1026 83.3353Z" fill="white" fill-opacity="0.29"/>
<path d="M48.4179 11.6717L39.9941 12.5018L35.7822 33.8072L37.7478 48.1952L48.4179 11.6717Z" fill="white" fill-opacity="0.29"/>
<path d="M64.3064 54.5262C63.5255 52.973 64.3063 51.161 65.8681 51.6788L65.3475 52.4553C68.3842 52.8005 75.2446 53.411 79.0882 52.4553C83.2529 51.4199 87.8194 49.7804 89.5546 48.0547L88.7738 47.0193C90.4396 46.8122 91.3767 48.3136 90.8561 49.6079L90.3355 48.8313C89.3811 50.6433 86.7717 63.8979 80.9412 64.9334C75.1106 65.9688 67.4298 54.6124 64.8269 53.4907L64.3064 54.5262Z" fill="#0D0030"/>
<path d="M118.19 7.97402C118.439 9.73147 121.215 13.8111 122.909 15.6352C123.635 15.7568 124.578 16 125.45 16C126.539 16 132.347 9.4333 131.984 4.32586C131.621 -0.781572 125.087 -0.416755 123.635 0.677694C122.938 1.20303 121.699 2.98819 121.457 6.14993C121.094 5.4203 120.463 3.2314 119.642 3.2314C117.827 3.2314 117.827 5.4203 118.19 7.97402Z" fill="#0B9079"/>
<path d="M15.7833 20.9708C15.498 22.9479 12.3262 27.5375 10.3902 29.5896C9.56052 29.7264 8.48174 30 7.48608 30C6.24151 30 -0.396227 22.6125 0.018631 16.8666C0.43349 11.1207 7.90094 11.5312 9.56038 12.7624C10.3569 13.3534 11.773 15.3617 12.0496 18.9187C12.4645 18.0978 13.1852 15.6353 14.1239 15.6353C16.1982 15.6353 16.1979 18.0978 15.7833 20.9708Z" fill="#0B9079"/>
<path d="M123 10L121 6.11765C121 5.83529 121.667 3.97059 122 3.5C122.399 4.06373 122.832 8.33816 122.999 9.99145L123 10Z" fill="#01463A"/>
<path d="M10 23L12 18.4706C12 18.1412 11.8333 16.549 11.5 16C11.1 16.6588 10.1667 21.0784 10 23Z" fill="#01463A"/>
<path d="M80.8815 38.0993C80.7148 38.266 79.8816 38.5993 79.3815 38.0993C78.1463 36.8646 80.2048 34.8838 81.3815 34.0993C82.8813 33.0993 85.3813 31.5993 88.3815 32.0993C90.3543 32.4281 92.1068 33.3245 93.3815 34.5993C94.3814 35.5993 92.8814 37.0993 91.8815 36.0993C91.0481 35.4326 88.8815 34.0993 86.8815 34.0993C84.3815 34.0993 82.3815 36.0993 80.8815 38.0993Z" fill="#0D0030"/>
<path d="M53.8815 42.0993C53.7148 42.266 52.8816 42.5993 52.3815 42.0993C51.1463 40.8646 53.2048 38.8838 54.3815 38.0993C55.8813 37.0993 58.3813 35.5993 61.3815 36.0993C63.3543 36.4281 65.1068 37.3245 66.3815 38.5993C67.3814 39.5993 65.8814 41.0993 64.8815 40.0993C64.0481 39.4326 61.8815 38.0993 59.8815 38.0993C57.3815 38.0993 55.3815 40.0993 53.8815 42.0993Z" fill="#0D0030"/>
</svg>
