<svg width="54" height="23" viewBox="0 0 54 23" fill="none" xmlns="http://www.w3.org/2000/svg">
<rect x="0.5" y="0.5" width="53" height="22" rx="11" stroke="#CCCCCC"/>
<path d="M42.7136 18C44.7844 18 46.6756 17.158 47.9286 15.7783C48.114 15.5742 47.9119 15.276 47.6254 15.3248C44.3682 15.8792 41.377 13.6472 41.377 10.7087C41.377 9.01598 42.3909 7.45943 44.0388 6.62133C44.2928 6.49214 44.2289 6.14796 43.9403 6.10031C43.5356 6.03363 43.1251 6.00005 42.7136 6C39.0078 6 36 8.68385 36 12C36 15.3119 39.0031 18 42.7136 18Z" fill="#63BDFF"/>
<path d="M13.5 7.74304C11.4283 7.74304 9.74298 9.42871 9.74298 11.5003C9.74298 13.572 11.4283 15.2577 13.5 15.2577C15.5713 15.2577 17.2569 13.5723 17.2569 11.5003C17.2569 9.42838 15.5713 7.74304 13.5 7.74304Z" fill="#999999"/>
<path d="M13.5 6.63862C13.0951 6.63862 12.7669 6.31045 12.7669 5.90589V4.73306C12.7669 4.32817 13.0951 4 13.5 4C13.9049 4 14.233 4.32817 14.233 4.73306V5.90589C14.233 6.31045 13.9045 6.63862 13.5 6.63862Z" fill="#999999"/>
<path d="M13.5 16.3611C13.0951 16.3611 12.7669 16.6893 12.7669 17.0941V18.2666C12.7669 18.6719 13.0951 19 13.5 19C13.9049 19 14.233 18.6719 14.233 18.2666V17.0941C14.233 16.6893 13.9045 16.3611 13.5 16.3611Z" fill="#999999"/>
<path d="M16.9371 8.06257C16.6512 7.77626 16.6512 7.31224 16.9371 7.02593L17.7665 6.19654C18.0525 5.91056 18.5169 5.91056 18.8032 6.19654C19.0895 6.48286 19.0895 6.94721 18.8032 7.23319L17.9738 8.06257C17.6878 8.34889 17.2238 8.34889 16.9371 8.06257Z" fill="#999999"/>
<path d="M10.0625 14.9378C9.7762 14.6511 9.31218 14.6511 9.02587 14.9378L8.19648 15.7668C7.9105 16.0528 7.91017 16.5175 8.19648 16.8035C8.4828 17.0894 8.94715 17.0894 9.23313 16.8035L10.0625 15.9737C10.3488 15.6878 10.3488 15.2234 10.0625 14.9378Z" fill="#999999"/>
<path d="M18.3611 11.5C18.3611 11.0951 18.6893 10.767 19.0941 10.767H20.267C20.6719 10.767 21 11.0951 21 11.5C21 11.9049 20.6719 12.2328 20.267 12.2328H19.0941C18.6893 12.2328 18.3611 11.9049 18.3611 11.5Z" fill="#999999"/>
<path d="M8.63862 11.5C8.63862 11.0951 8.31045 10.767 7.90556 10.767H6.73306C6.32817 10.767 6 11.0951 6 11.5C6 11.9049 6.32817 12.2328 6.73306 12.2328H7.90589C8.31045 12.2328 8.63862 11.9049 8.63862 11.5Z" fill="#999999"/>
<path d="M16.9371 14.9378C17.2235 14.6518 17.6878 14.6518 17.9738 14.9378L18.8032 15.7671C19.0895 16.0528 19.0895 16.5175 18.8032 16.8035C18.5169 17.0894 18.0528 17.0894 17.7665 16.8035L16.9371 15.9741C16.6508 15.6878 16.6508 15.2237 16.9371 14.9378Z" fill="#999999"/>
<path d="M10.0625 8.06261C10.3488 7.7763 10.3488 7.31228 10.0625 7.02597L9.23313 6.19691C8.94682 5.9106 8.4828 5.9106 8.19649 6.19691C7.91017 6.4829 7.91017 6.94725 8.19649 7.23323L9.02587 8.06261C9.31219 8.34926 9.7762 8.34926 10.0625 8.06261Z" fill="#999999"/>
</svg>
