<svg width="54" height="23" viewBox="0 0 54 23" fill="none" xmlns="http://www.w3.org/2000/svg">
<path d="M42.5 0.5H11.5C5.42487 0.5 0.5 5.42487 0.5 11.5C0.5 17.5751 5.42487 22.5 11.5 22.5H42.5C48.5751 22.5 53.5 17.5751 53.5 11.5C53.5 5.42487 48.5751 0.5 42.5 0.5Z" stroke="#CCCCCC"/>
<path d="M42.7136 18C44.7844 18 46.6756 17.158 47.9286 15.7783C48.114 15.5742 47.9119 15.276 47.6254 15.3248C44.3682 15.8792 41.377 13.6472 41.377 10.7087C41.377 9.01598 42.3909 7.45943 44.0388 6.62133C44.2928 6.49214 44.2289 6.14796 43.9403 6.10031C43.5356 6.03363 43.1251 6.00005 42.7136 6C39.0078 6 36 8.68385 36 12C36 15.3119 39.0031 18 42.7136 18Z" fill="#CCCCCC"/>
<path d="M13.5001 7.74304C11.4285 7.74304 9.74316 9.42872 9.74316 11.5003C9.74316 13.572 11.4285 15.2576 13.5001 15.2576C15.5714 15.2576 17.2571 13.5723 17.2571 11.5003C17.2571 9.42838 15.5714 7.74304 13.5001 7.74304Z" fill="#E6C728"/>
<path d="M13.4997 6.63862C13.0948 6.63862 12.7666 6.31045 12.7666 5.90589V4.73306C12.7666 4.32817 13.0948 4 13.4997 4C13.9046 4 14.2327 4.32817 14.2327 4.73306V5.90589C14.2327 6.31045 13.9042 6.63862 13.4997 6.63862Z" fill="#E6C728"/>
<path d="M13.4997 16.361C13.0948 16.361 12.7666 16.6892 12.7666 17.0941V18.2666C12.7666 18.6718 13.0948 19 13.4997 19C13.9046 19 14.2327 18.6718 14.2327 18.2666V17.0941C14.2327 16.6892 13.9042 16.361 13.4997 16.361Z" fill="#E6C728"/>
<path d="M16.9371 8.06258C16.6512 7.77626 16.6512 7.31224 16.9371 7.02593L17.7665 6.19654C18.0525 5.91056 18.5169 5.91056 18.8032 6.19654C19.0895 6.48286 19.0895 6.94721 18.8032 7.23319L17.9738 8.06258C17.6878 8.34889 17.2238 8.34889 16.9371 8.06258Z" fill="#E6C728"/>
<path d="M10.0621 14.9378C9.77577 14.6511 9.31176 14.6511 9.02544 14.9378L8.19606 15.7668C7.91007 16.0528 7.90974 16.5175 8.19606 16.8035C8.48237 17.0895 8.94672 17.0895 9.2327 16.8035L10.0621 15.9738C10.3484 15.6878 10.3484 15.2234 10.0621 14.9378Z" fill="#E6C728"/>
<path d="M18.3613 11.4999C18.3613 11.095 18.6895 10.7668 19.0944 10.7668H20.2672C20.6721 10.7668 21.0003 11.095 21.0003 11.4999C21.0003 11.9048 20.6721 12.2326 20.2672 12.2326H19.0944C18.6895 12.2326 18.3613 11.9048 18.3613 11.4999Z" fill="#E6C728"/>
<path d="M8.63862 11.4999C8.63862 11.095 8.31045 10.7668 7.90556 10.7668H6.73306C6.32817 10.7668 6 11.095 6 11.4999C6 11.9048 6.32817 12.2326 6.73306 12.2326H7.90589C8.31045 12.2326 8.63862 11.9048 8.63862 11.4999Z" fill="#E6C728"/>
<path d="M16.9374 14.9378C17.2237 14.6518 17.6881 14.6518 17.974 14.9378L18.8034 15.7672C19.0897 16.0528 19.0897 16.5175 18.8034 16.8035C18.5171 17.0895 18.0531 17.0895 17.7668 16.8035L16.9374 15.9741C16.6511 15.6878 16.6511 15.2238 16.9374 14.9378Z" fill="#E6C728"/>
<path d="M10.0622 8.06262C10.3485 7.7763 10.3485 7.31228 10.0622 7.02597L9.23283 6.19692C8.94651 5.9106 8.4825 5.9106 8.19618 6.19692C7.90987 6.4829 7.90987 6.94725 8.19618 7.23323L9.02557 8.06262C9.31188 8.34926 9.7759 8.34926 10.0622 8.06262Z" fill="#E6C728"/>
</svg>
