<svg width="18" height="18" viewBox="0 0 18 18" fill="none" xmlns="http://www.w3.org/2000/svg">
<circle cx="9" cy="9" r="9" fill="white"/>
<path d="M13.1015 3C11.5033 3 10.203 4.34376 10.203 5.9955V7.2973H6C5.43381 7.2973 5 7.95102 5 8.5V13C5 13.5 5.5 14 6 14H11.7721C12.1215 14 12.7474 13.5 12.7474 13V8.28194C12.7474 7.78986 12.1928 7.2973 11.8435 7.2973H11.7721V5.9955C11.7721 5.23796 12.3685 4.62162 13.1015 4.62162C13.8345 4.62162 14.4309 5.23792 14.4309 5.9955C14.4309 6.44332 14.7822 6.80632 15.2155 6.80632C15.6488 6.80632 16 6.44332 16 5.9955C16 4.3438 14.6997 3 13.1015 3ZM9.48821 10.7122V11.7838H8.25915V10.7122C8.0283 10.5242 7.8799 10.2328 7.8799 9.90544C7.8799 9.3382 8.32482 8.87839 8.87368 8.87839C9.42255 8.87839 9.86746 9.3382 9.86746 9.90544C9.86746 10.2328 9.71907 10.5242 9.48821 10.7122Z" fill="#0587FF"/>
</svg>
