<svg width="136" height="92" viewBox="0 0 136 92" fill="none" xmlns="http://www.w3.org/2000/svg">
<path d="M39.0503 6.82036L103.5 8.5C105.782 9.19217 107.272 13.1425 106.956 15.7706L99.0936 76.9198C98.532 79.9634 95.7241 81.0702 93.4778 81.0702L33.9499 74.9829C32.0199 74.2916 30.3352 73.1849 30.5803 69.7257L32.0001 10.2367C32.674 6.69507 37.3656 6.45143 39.0503 6.82036Z" fill="#C68200"/>
<path d="M105.868 11.759L103.06 8.43867L101.095 12.0357L105.868 13.9725V11.759Z" fill="#C68200"/>
<path d="M31.7391 73.7383L28.6503 69.8646L33.9854 68.2044L31.7391 73.7383Z" fill="#C68200"/>
<path d="M12.5 39C15.6667 40 19.2101 45.535 22 46C27 46.8333 32.5 45 32.5 45" stroke="#C68200" stroke-width="5" stroke-linecap="round"/>
<path d="M36.9997 6.5L100.5 7.5C103 7.5 105.781 9.50976 105.5 12L96.321 73.4615C95.7595 76.5051 92.9516 77.6119 90.7052 77.6119L31.1773 71.5246C29.2118 70.9712 27.8078 69.8645 27.8078 66.2675L30.9997 10C31.8221 6.99998 34.9997 6.5 36.9997 6.5Z" fill="#FFAC0C"/>
<path d="M34 72L74.5 7L57 6.5L28.5 59L27.5 66.5C27.5 67.8333 27.6 70.2 30 71C30.7038 71.2346 34 72 34 72Z" fill="white" fill-opacity="0.33"/>
<path d="M29.5 37.5L47.5 6.5H42L30 30L29.5 37.5Z" fill="white" fill-opacity="0.33"/>
<ellipse cx="70.739" cy="33.2319" rx="9.50102" ry="8.89516" transform="rotate(8.71391 70.739 33.2319)" fill="white"/>
<ellipse cx="53.0546" cy="31.6271" rx="8.01084" ry="7.5" transform="rotate(8.71391 53.0546 31.6271)" fill="white"/>
<rect x="44.3623" y="47" width="37" height="3" rx="1.5" transform="rotate(6.93464 44.3623 47)" fill="#221E1F"/>
<circle cx="66" cy="32" r="4" fill="#221E1F"/>
<circle cx="57" cy="32" r="3" fill="#221E1F"/>
<path d="M102.5 50C105.667 51 109.02 51.5052 113 50.5C117.254 49.4256 120.5 45.8333 122.5 44.5" stroke="#C68200" stroke-width="5" stroke-linecap="round"/>
<path d="M8.56218 34.7003C10.3039 34.979 14.2499 36.9395 15.9942 38.0871C16.0834 38.5303 16.2843 39.1128 16.2459 39.634C16.1978 40.2854 9.3925 43.2764 4.31495 42.6833C-0.762609 42.0902 -0.11032 38.2085 1.04526 37.4205C1.59994 37.0422 3.43496 36.4324 6.59882 36.5203C5.88719 36.2495 3.73207 35.7112 3.76833 35.2198C3.84846 34.1341 6.03141 34.2953 8.56218 34.7003Z" fill="#C68200"/>
<path d="M127.013 39.7003C125.271 39.979 121.325 41.9395 119.58 43.0871C119.491 43.5303 119.29 44.1128 119.329 44.634C119.377 45.2854 126.182 48.2764 131.26 47.6833C136.337 47.0902 135.685 43.2085 134.529 42.4205C133.975 42.0422 132.14 41.4324 128.976 41.5203C129.688 41.2495 131.843 40.7112 131.806 40.2198C131.726 39.1341 129.543 39.2953 127.013 39.7003Z" fill="#C68200"/>
<path d="M10.8003 37.3171L8.01694 36.142C7.80934 36.1267 6.41457 36.347 6.0567 36.4822C6.45698 36.7053 9.58441 37.1458 10.7941 37.3162L10.8003 37.3171Z" fill="#7C5200"/>
<path d="M124.774 42.3171L127.558 41.142C127.765 41.1267 129.16 41.347 129.518 41.4822C129.118 41.7053 125.99 42.1458 124.781 42.3162L124.774 42.3171Z" fill="#7C5200"/>
</svg>
