<svg width="147" height="167" viewBox="0 0 147 167" fill="none" xmlns="http://www.w3.org/2000/svg">
<ellipse cx="73.0155" cy="160.749" rx="73" ry="5.5" fill="#C4C4C4"/>
<path d="M119.579 6.49826L6.07888 18.4984C2.01553 19.7491 -0.484468 23.7491 0.0789161 28.4984L14.0789 138.998C15.0789 144.498 20.0789 146.498 24.0789 146.498L130.079 135.498C133.516 134.249 136.516 132.249 136.079 125.998L130.079 12.4983C128.879 6.09826 122.579 5.8316 119.579 6.49826Z" fill="#481878"/>
<path d="M2.0155 21.2491L7.0155 15.2491L10.5155 21.7491L2.0155 25.2491V21.2491Z" fill="#481878"/>
<path d="M134.016 133.249L139.516 126.249L130.016 123.249L134.016 133.249Z" fill="#481878"/>
<path d="M124.516 0.249117L11.0155 12.2492C7.0155 13.7491 4.51553 17.7492 5.01555 22.2492L19.0156 132.749C20.0155 138.249 25.0155 140.249 29.0155 140.249L135.016 129.249C138.516 128.249 141.016 126.249 141.016 119.749L135.016 6.24912C133.816 -0.150883 127.516 -0.41755 124.516 0.249117Z" fill="#7E33C9"/>
<path d="M34.0155 139.749L75.0155 5.74915L43.0155 8.74915L18.0155 125.749L19.0155 133.249C20.2155 138.849 26.1822 140.249 29.0155 140.249L34.0155 139.749Z" fill="white" fill-opacity="0.29"/>
<path d="M31.0155 10.2491L16.0155 11.7491L8.5155 50.2491L12.0155 76.2491L31.0155 10.2491Z" fill="white" fill-opacity="0.29"/>
<ellipse cx="40.6265" cy="56.1726" rx="10.4769" ry="16.0892" transform="rotate(-16.8118 40.6265 56.1726)" fill="black"/>
<ellipse cx="96.7059" cy="48.7308" rx="9.66794" ry="15.0877" transform="rotate(4.03651 96.7059 48.7308)" fill="#0D0030"/>
<ellipse cx="41.5053" cy="57.2092" rx="10.3504" ry="15.8949" transform="rotate(-16.8118 41.5053 57.2092)" fill="white"/>
<ellipse cx="97.4842" cy="49.4049" rx="9.46766" ry="14.7751" transform="rotate(4.03651 97.4842 49.4049)" fill="white"/>
<circle cx="45.8359" cy="60" r="5" fill="#0D0030"/>
<ellipse cx="97.1179" cy="51" rx="4.5" ry="5" fill="#0D0030"/>
<path d="M51.5787 87.0591C50.1037 84.1578 51.5786 80.773 54.5286 81.7401L53.5453 83.1907C59.2813 83.8354 71.3599 86.91 78.6201 85.1249C86.4867 83.1906 95.9921 78.1939 99.2699 74.9703L97.7949 73.036C100.942 72.6492 102.712 75.4539 101.728 77.8716L100.745 76.4209C98.9421 79.8057 87.6667 93.8288 76.6534 95.763C65.6402 97.6972 57.4786 87.2202 52.562 85.1249L51.5787 87.0591Z" fill="#0D0030"/>
</svg>
