<svg width="39" height="39" viewBox="0 0 39 39" fill="none" xmlns="http://www.w3.org/2000/svg">
<g clip-path="url(#clip0)">
<path d="M26.3197 9.29681L19.4811 12.352L13.5252 7.81012C13.1082 7.49209 12.5131 7.82707 12.5686 8.34856L13.361 15.7966L7.20097 20.0574C6.7696 20.3557 6.9043 21.0253 7.41741 21.1337L14.7458 22.6816L16.8945 29.8568C17.0449 30.3592 17.7234 30.438 17.985 29.9835L21.7217 23.4922L29.2098 23.6659C29.7341 23.6781 30.0186 23.0573 29.6672 22.6679L24.6483 17.1081L27.1275 10.0403C27.301 9.5454 26.7985 9.08288 26.3197 9.29681Z" fill="#FFDC64"/>
<path d="M6.28604 11.6125C6.87639 11.8862 8.92396 13.3363 10.1069 14.1872C10.2929 14.3209 10.1578 14.6124 9.93548 14.5568C8.52177 14.2037 6.09204 13.5778 5.50167 13.3041C5.03455 13.0875 4.83144 12.5332 5.04806 12.0661C5.26463 11.599 5.81892 11.3959 6.28604 11.6125Z" fill="#FFF082"/>
<path d="M19.5749 4.13339C19.5026 4.78008 19.6798 7.28284 19.7934 8.73559C19.8112 8.96398 20.1305 8.99968 20.1983 8.78085C20.63 7.38913 21.3556 4.98727 21.4279 4.34056C21.4852 3.82887 21.1167 3.36766 20.605 3.31045C20.0933 3.25322 19.6321 3.6217 19.5749 4.13339Z" fill="#FFF082"/>
<path d="M32.4062 14.682C31.7681 14.8096 29.4375 15.7389 28.088 16.2885C27.8759 16.3749 27.9389 16.6899 28.1679 16.6881C29.625 16.6765 32.1337 16.638 32.7718 16.5104C33.2767 16.4095 33.6042 15.9183 33.5032 15.4134C33.4022 14.9085 32.9111 14.5811 32.4062 14.682Z" fill="#FFF082"/>
<path d="M8.64623 28.0548C9.0864 27.5756 11.0901 26.0654 12.2601 25.1969C12.444 25.0604 12.6806 25.2777 12.5603 25.4726C11.7943 26.7122 10.4597 28.8368 10.0196 29.3161C9.67128 29.6953 9.08153 29.7204 8.70228 29.3721C8.32303 29.0237 8.29796 28.434 8.64623 28.0548Z" fill="#FFF082"/>
<path d="M24.8991 30.9808C24.5799 30.4138 23.7654 28.0406 23.3026 26.6589C23.2299 26.4417 23.5098 26.2842 23.6577 26.4591C24.5987 27.5716 26.2048 29.4992 26.524 30.0663C26.7765 30.515 26.6175 31.0834 26.1688 31.336C25.7201 31.5886 25.1516 31.4295 24.8991 30.9808Z" fill="#FFF082"/>
<path d="M15.691 9.46178L13.5252 7.81015C13.1082 7.49212 12.513 7.8271 12.5685 8.34859L13.3609 15.7966L7.20097 20.0574C6.7696 20.3557 6.9043 21.0253 7.41741 21.1337L14.7457 22.6816L16.8945 29.8568C17.0449 30.3592 17.7234 30.438 17.985 29.9835L18.4823 29.1196C15.2453 20.5033 15.4129 12.7467 15.691 9.46178Z" fill="#FFC850"/>
</g>
<defs>
<clipPath id="clip0">
<rect width="28.5514" height="28.5514" fill="white" transform="translate(0 14.0039) rotate(-29.3721)"/>
</clipPath>
</defs>
</svg>
