<svg width="28" height="28" viewBox="0 0 28 28" fill="none" xmlns="http://www.w3.org/2000/svg">
<path d="M8.08691 17.1561C12.5532 17.1561 16.1738 16.3772 16.1738 15.4163C16.1738 14.4555 12.5532 13.6766 8.08691 13.6766C3.62063 13.6766 0 14.4555 0 15.4163C0 16.3772 3.62063 17.1561 8.08691 17.1561Z" fill="#FCD462"/>
<path d="M8.08788 17.156C3.62157 17.156 0.000976562 16.377 0.000976562 15.4161V17.4459C0.000976562 18.4068 3.62163 19.1856 8.08788 19.1856C12.5541 19.1856 16.1748 18.4067 16.1748 17.4459V15.4161C16.1748 16.377 12.5541 17.156 8.08788 17.156Z" fill="#F6C358"/>
<path d="M1.41897 16.4079V18.4346C1.24827 18.3834 1.09042 18.3237 0.945312 18.2682V16.2415C1.09042 16.297 1.24827 16.3568 1.41897 16.4079Z" fill="#DC8744"/>
<path d="M3.39019 16.8389V18.8698C3.2281 18.8443 3.07444 18.8187 2.9209 18.7888V16.7621C3.07444 16.7877 3.2281 16.8133 3.39019 16.8389Z" fill="#DC8744"/>
<path d="M5.36623 17.0607V19.0916C5.20402 19.0788 5.04624 19.0661 4.89258 19.0533V17.0223C5.04618 17.0351 5.20402 17.0479 5.36623 17.0607Z" fill="#DC8744"/>
<path d="M7.33648 17.1546V19.1855C7.1787 19.1855 7.02073 19.1813 6.86719 19.1727V17.1418C7.02079 17.1503 7.1787 17.1546 7.33648 17.1546Z" fill="#DC8744"/>
<path d="M9.31252 17.1418V19.1727C9.15462 19.1812 8.99677 19.1855 8.83887 19.1855V17.1546C8.99683 17.1546 9.15462 17.1503 9.31252 17.1418Z" fill="#DC8744"/>
<path d="M11.2837 17.0223V19.0533C11.1302 19.0661 10.9765 19.0789 10.8145 19.0917V17.0607C10.9765 17.048 11.1302 17.0352 11.2837 17.0223Z" fill="#DC8744"/>
<path d="M13.2588 16.7621V18.7887C13.1095 18.8186 12.9516 18.8442 12.7852 18.8698V16.8388C12.9517 16.8133 13.1095 16.7877 13.2588 16.7621Z" fill="#DC8744"/>
<path d="M15.23 16.2416V18.2683C15.0893 18.328 14.9314 18.3834 14.7607 18.4347V16.408C14.9314 16.3568 15.0893 16.3013 15.23 16.2416Z" fill="#DC8744"/>
<path d="M10.4648 13.8266C14.9311 13.8266 18.5518 13.0477 18.5518 12.0869C18.5518 11.1261 14.9311 10.3472 10.4648 10.3472C5.99856 10.3472 2.37793 11.1261 2.37793 12.0869C2.37793 13.0477 5.99856 13.8266 10.4648 13.8266Z" fill="#FCD462"/>
<path d="M18.553 12.0855V14.1165C18.553 14.4109 18.2117 14.6883 17.6057 14.9314C17.465 14.9912 17.3071 15.0466 17.1365 15.0978C16.714 15.2344 16.2063 15.3538 15.6346 15.452C15.4852 15.4819 15.3274 15.5074 15.1609 15.533C14.6959 15.6056 14.1924 15.6653 13.6591 15.7165C13.5055 15.7293 13.3519 15.7421 13.1898 15.7549C12.7076 15.7932 12.2084 15.8188 11.6879 15.8359C11.53 15.8444 11.3722 15.8487 11.2142 15.8487C10.9668 15.853 10.7151 15.8573 10.4633 15.8573C10.2116 15.8573 9.95985 15.853 9.71232 15.8487C9.55453 15.8487 9.39657 15.8445 9.24303 15.8359C8.72674 15.8188 8.22325 15.7932 7.74116 15.7549C7.57895 15.7421 7.42116 15.7293 7.2675 15.7165C6.73418 15.6653 6.23074 15.6056 5.76564 15.533C5.60355 15.5074 5.44988 15.4819 5.29634 15.452C4.72457 15.3538 4.21683 15.2344 3.79448 15.0978C3.62378 15.0466 3.46593 14.9869 3.32082 14.9314C2.71927 14.6882 2.37793 14.4109 2.37793 14.1165V12.0855C2.37793 12.3799 2.71927 12.6615 3.32082 12.9048C3.46593 12.9603 3.62378 13.0199 3.79448 13.0712C4.21689 13.2034 4.72457 13.3229 5.29634 13.4253C5.44988 13.4509 5.60355 13.4765 5.76564 13.5021C6.23074 13.5746 6.73418 13.6343 7.2675 13.6855C7.42116 13.6983 7.57895 13.7111 7.74116 13.7239C8.22325 13.7623 8.72674 13.7879 9.24303 13.805C9.39657 13.8135 9.55447 13.8178 9.71232 13.8178C9.95979 13.822 10.2116 13.8263 10.4633 13.8263C10.7151 13.8263 10.9668 13.8221 11.2142 13.8178C11.3722 13.8178 11.53 13.8135 11.6879 13.805C12.2084 13.7879 12.7076 13.7623 13.1898 13.7239C13.3519 13.7111 13.5055 13.6983 13.6591 13.6855C14.1924 13.6343 14.6959 13.5746 15.1609 13.5021C15.3274 13.4765 15.4852 13.4509 15.6346 13.4253C16.2063 13.3229 16.7141 13.2034 17.1365 13.0712C17.3071 13.02 17.465 12.9645 17.6057 12.9048C18.2117 12.6615 18.553 12.3842 18.553 12.0855Z" fill="#F6C358"/>
<path d="M3.79495 13.0712V15.0978C3.62425 15.0467 3.4664 14.9869 3.32129 14.9314V12.9048C3.4664 12.9603 3.62425 13.02 3.79495 13.0712Z" fill="#DC8744"/>
<path d="M5.76617 13.5021V15.533C5.60408 15.5074 5.45042 15.4818 5.29688 15.4519V13.4253C5.45048 13.4509 5.60414 13.4765 5.76617 13.5021Z" fill="#DC8744"/>
<path d="M7.74123 13.724V15.7549C7.57902 15.7421 7.42124 15.7293 7.26758 15.7165V13.6856C7.42124 13.6984 7.57908 13.7112 7.74123 13.724Z" fill="#DC8744"/>
<path d="M9.71246 13.8178V15.8487C9.55467 15.8487 9.3967 15.8445 9.24316 15.8359V13.805C9.39676 13.8135 9.55467 13.8178 9.71246 13.8178Z" fill="#DC8744"/>
<path d="M11.6885 13.805V15.8359C11.5306 15.8444 11.3727 15.8487 11.2148 15.8487V13.8178C11.3728 13.8178 11.5306 13.8135 11.6885 13.805Z" fill="#DC8744"/>
<path d="M13.6597 13.6856V15.7165C13.5062 15.7293 13.3525 15.7421 13.1904 15.7549V13.724C13.3525 13.7112 13.5062 13.6984 13.6597 13.6856Z" fill="#DC8744"/>
<path d="M15.6348 13.4253V15.4519C15.4854 15.4818 15.3276 15.5074 15.1611 15.533V13.5021C15.3276 13.4765 15.4854 13.4509 15.6348 13.4253Z" fill="#DC8744"/>
<path d="M17.606 12.9048V14.9314C17.4653 14.9912 17.3074 15.0466 17.1367 15.0978V13.0712C17.3074 13.02 17.4653 12.9645 17.606 12.9048Z" fill="#DC8744"/>
<path d="M8.08691 10.4982C12.5532 10.4982 16.1738 9.71928 16.1738 8.75846C16.1738 7.79765 12.5532 7.01875 8.08691 7.01875C3.62063 7.01875 0 7.79765 0 8.75846C0 9.71928 3.62063 10.4982 8.08691 10.4982Z" fill="#FCD462"/>
<path d="M8.08788 10.4982C3.62157 10.4982 0.000976562 9.71928 0.000976562 8.75839V10.7881C0.000976562 11.749 3.62163 12.5279 8.08788 12.5279C12.5541 12.5279 16.1748 11.749 16.1748 10.7881V8.75839C16.1748 9.71928 12.5541 10.4982 8.08788 10.4982Z" fill="#F6C358"/>
<path d="M1.41897 9.75044V11.7771C1.24827 11.7259 1.09042 11.6662 0.945312 11.6107V9.58405C1.09042 9.63953 1.24827 9.69926 1.41897 9.75044Z" fill="#DC8744"/>
<path d="M3.39019 10.1814V12.2124C3.2281 12.1868 3.07444 12.1612 2.9209 12.1313V10.1047C3.07444 10.1303 3.2281 10.1558 3.39019 10.1814Z" fill="#DC8744"/>
<path d="M5.36623 10.4032V12.4341C5.20402 12.4213 5.04624 12.4086 4.89258 12.3958V10.3648C5.04618 10.3776 5.20402 10.3904 5.36623 10.4032Z" fill="#DC8744"/>
<path d="M7.33648 10.4971V12.528C7.1787 12.528 7.02073 12.5238 6.86719 12.5153V10.4843C7.02079 10.4928 7.1787 10.4971 7.33648 10.4971Z" fill="#DC8744"/>
<path d="M9.31252 10.4843V12.5153C9.15462 12.5237 8.99677 12.528 8.83887 12.528V10.4971C8.99683 10.4971 9.15462 10.4928 9.31252 10.4843Z" fill="#DC8744"/>
<path d="M11.2837 10.3648V12.3958C11.1302 12.4086 10.9765 12.4213 10.8145 12.4341V10.4032C10.9765 10.3905 11.1302 10.3777 11.2837 10.3648Z" fill="#DC8744"/>
<path d="M13.2588 10.1047V12.1313C13.1095 12.1612 12.9516 12.1868 12.7852 12.2124V10.1814C12.9517 10.1558 13.1095 10.1303 13.2588 10.1047Z" fill="#DC8744"/>
<path d="M15.23 9.58414V11.6108C15.0893 11.6705 14.9314 11.7259 14.7607 11.7772V9.75053C14.9314 9.69929 15.0893 9.64381 15.23 9.58414Z" fill="#DC8744"/>
<path d="M19.9725 27.6384C24.4058 27.6384 27.9997 24.0445 27.9997 19.6112C27.9997 15.1779 24.4058 11.584 19.9725 11.584C15.5392 11.584 11.9453 15.1779 11.9453 19.6112C11.9453 24.0445 15.5392 27.6384 19.9725 27.6384Z" fill="#F6C358"/>
<path d="M19.9728 26.4611C23.7558 26.4611 26.8225 23.3943 26.8225 19.6113C26.8225 15.8283 23.7558 12.7616 19.9728 12.7616C16.1898 12.7616 13.123 15.8283 13.123 19.6113C13.123 23.3943 16.1898 26.4611 19.9728 26.4611Z" fill="#FCD462"/>
<path d="M19.9768 25.6054C19.581 25.6054 19.1906 25.5675 18.8109 25.4927L18.8998 25.0404C19.2509 25.1094 19.612 25.1444 19.9732 25.1444L19.9787 25.5611L19.9786 25.6054C19.9779 25.6054 19.9773 25.6054 19.9768 25.6054ZM21.1478 25.4904L21.0578 25.0382C21.4126 24.9676 21.7614 24.8616 22.0947 24.7232L22.2717 25.1489C21.9105 25.299 21.5322 25.4139 21.1478 25.4904ZM17.6863 25.1536C17.3245 25.0042 16.9759 24.8181 16.6502 24.6005L16.9062 24.2172C17.2069 24.4179 17.5286 24.5896 17.8624 24.7275L17.6863 25.1536ZM23.3067 24.5937L23.0501 24.2107C23.3499 24.0097 23.6316 23.778 23.8874 23.5219L24.2136 23.8477C23.9367 24.1251 23.6315 24.376 23.3067 24.5937ZM15.7417 23.8566C15.4644 23.5803 15.2132 23.2755 14.9948 22.9507L15.3776 22.6934C15.5792 22.9934 15.8113 23.2749 16.0672 23.5302L15.7417 23.8566ZM24.9585 22.9402L24.5754 22.6837C24.7765 22.383 24.9486 22.0614 25.0867 21.728L25.5127 21.9045C25.3629 22.2657 25.1765 22.6142 24.9585 22.9402ZM14.4386 21.9162C14.2878 21.5546 14.1726 21.1765 14.0959 20.7926L14.548 20.7023C14.6188 21.0566 14.725 21.4053 14.864 21.7388L14.4386 21.9162ZM25.8529 20.7803L25.4006 20.6909C25.4704 20.3377 25.5058 19.9746 25.5058 19.6118V19.5875H25.9668V19.6118C25.9668 20.0045 25.9285 20.3977 25.8529 20.7803ZM13.9795 19.624V19.6118C13.9795 19.2229 14.017 18.8339 14.0909 18.4557L14.5434 18.5442C14.4752 18.8934 14.4405 19.2525 14.4405 19.6119L13.9795 19.624ZM25.3962 18.5098C25.3246 18.1558 25.2175 17.8075 25.0777 17.4741L25.5029 17.2959C25.6545 17.657 25.7705 18.0348 25.8479 18.4187L25.3962 18.5098ZM14.8552 17.5064L14.4289 17.3308C14.5778 16.969 14.7635 16.6202 14.9807 16.2939L15.3646 16.5495C15.164 16.8506 14.9927 17.1725 14.8552 17.5064ZM24.5624 16.5204C24.3604 16.2212 24.1278 15.9403 23.8709 15.6852L24.1958 15.3581C24.4738 15.6341 24.7257 15.9385 24.9444 16.2624L24.5624 16.5204ZM16.0507 15.7099L15.7239 15.3848C16.0001 15.1071 16.3047 14.8555 16.6292 14.6369L16.8867 15.0194C16.5871 15.2211 16.3058 15.4535 16.0507 15.7099ZM23.0306 15C22.729 14.7996 22.4069 14.6286 22.0731 14.4916L22.2483 14.065C22.6099 14.2136 22.959 14.3989 23.2856 14.6159L23.0306 15ZM17.8408 14.505L17.6629 14.0796C18.0241 13.9286 18.402 13.813 18.786 13.7358L18.8769 14.1879C18.5226 14.259 18.174 14.3657 17.8408 14.505ZM21.0351 14.181C20.6875 14.1134 20.3302 14.0792 19.9731 14.0792L19.9604 13.7577L19.9688 13.6182C20.351 13.6198 20.7465 13.6552 21.123 13.7285L21.0351 14.181Z" fill="#F6C358"/>
<path d="M10.4648 7.16858C14.9311 7.16858 18.5518 6.38968 18.5518 5.42886C18.5518 4.46804 14.9311 3.68915 10.4648 3.68915C5.99856 3.68915 2.37793 4.46804 2.37793 5.42886C2.37793 6.38968 5.99856 7.16858 10.4648 7.16858Z" fill="#FCD462"/>
<path d="M18.553 5.4278V7.45875C18.553 7.75315 18.2117 8.03052 17.6057 8.27368C17.465 8.33342 17.3071 8.38884 17.1365 8.44008C16.714 8.57664 16.2063 8.6961 15.6346 8.79422C15.4852 8.82411 15.3274 8.8497 15.1609 8.87529C14.6959 8.94782 14.1924 9.00755 13.6591 9.05873C13.5055 9.07152 13.3519 9.08432 13.1898 9.09711C12.7076 9.1355 12.2084 9.16109 11.6879 9.17819C11.53 9.18668 11.3722 9.19098 11.2142 9.19098C10.9668 9.19523 10.7151 9.19953 10.4633 9.19953C10.2116 9.19953 9.95985 9.19529 9.71232 9.19098C9.55453 9.19098 9.39657 9.18674 9.24303 9.17819C8.72674 9.16109 8.22325 9.1355 7.74116 9.09711C7.57895 9.08432 7.42116 9.07152 7.2675 9.05873C6.73418 9.00755 6.23074 8.94782 5.76564 8.87529C5.60355 8.8497 5.44988 8.82411 5.29634 8.79422C4.72457 8.6961 4.21683 8.57664 3.79448 8.44008C3.62378 8.3889 3.46593 8.32917 3.32082 8.27368C2.71927 8.03046 2.37793 7.75315 2.37793 7.45875V5.4278C2.37793 5.7222 2.71927 6.00381 3.32082 6.24704C3.46593 6.30252 3.62378 6.3622 3.79448 6.41344C4.21689 6.54569 4.72457 6.66515 5.29634 6.76757C5.44988 6.79316 5.60355 6.81875 5.76564 6.84434C6.23074 6.91687 6.73418 6.9766 7.2675 7.02778C7.42116 7.04057 7.57895 7.05337 7.74116 7.06616C8.22325 7.10455 8.72674 7.1302 9.24303 7.14724C9.39657 7.15579 9.55447 7.16003 9.71232 7.16003C9.95979 7.16428 10.2116 7.16858 10.4633 7.16858C10.7151 7.16858 10.9668 7.16434 11.2142 7.16003C11.3722 7.16003 11.53 7.15579 11.6879 7.14724C12.2084 7.1302 12.7076 7.10455 13.1898 7.06616C13.3519 7.05337 13.5055 7.04057 13.6591 7.02778C14.1924 6.9766 14.6959 6.91687 15.1609 6.84434C15.3274 6.81875 15.4852 6.79316 15.6346 6.76757C16.2063 6.66515 16.7141 6.54569 17.1365 6.41344C17.3071 6.36225 17.465 6.30677 17.6057 6.24704C18.2117 6.00381 18.553 5.72651 18.553 5.4278Z" fill="#F6C358"/>
<path d="M3.79495 6.41348V8.44012C3.62425 8.38894 3.4664 8.32921 3.32129 8.27373V6.24709C3.4664 6.30257 3.62425 6.36224 3.79495 6.41348Z" fill="#DC8744"/>
<path d="M5.76617 6.84438V8.87533C5.60408 8.84974 5.45042 8.82415 5.29688 8.79425V6.76761C5.45048 6.7932 5.60414 6.81879 5.76617 6.84438Z" fill="#DC8744"/>
<path d="M7.74123 7.06625V9.0972C7.57902 9.0844 7.42124 9.07161 7.26758 9.05881V7.02786C7.42124 7.04066 7.57908 7.05345 7.74123 7.06625Z" fill="#DC8744"/>
<path d="M9.71246 7.16015V9.1911C9.55467 9.1911 9.3967 9.18685 9.24316 9.1783V7.14735C9.39676 7.1559 9.55467 7.16015 9.71246 7.16015Z" fill="#DC8744"/>
<path d="M11.6885 7.14735V9.1783C11.5306 9.18679 11.3727 9.1911 11.2148 9.1911V7.16015C11.3728 7.16015 11.5306 7.1559 11.6885 7.14735Z" fill="#DC8744"/>
<path d="M13.6597 7.02786V9.05881C13.5062 9.07161 13.3525 9.0844 13.1904 9.0972V7.06625C13.3525 7.05345 13.5062 7.04066 13.6597 7.02786Z" fill="#DC8744"/>
<path d="M15.6348 6.76761V8.79425C15.4854 8.82415 15.3276 8.84974 15.1611 8.87533V6.84438C15.3276 6.81879 15.4854 6.7932 15.6348 6.76761Z" fill="#DC8744"/>
<path d="M17.606 6.24709V8.27373C17.4653 8.33346 17.3074 8.38888 17.1367 8.44012V6.41348C17.3074 6.36224 17.4653 6.30682 17.606 6.24709Z" fill="#DC8744"/>
<path d="M16.177 2.10249V4.12914C16.177 4.42779 15.8356 4.70516 15.2297 4.94832C15.0889 5.00805 14.9311 5.06354 14.7604 5.11472C14.739 5.12327 14.7219 5.13176 14.7006 5.13606C14.5513 5.17869 14.3849 5.22569 14.2099 5.26832C13.9198 5.34084 13.6041 5.40912 13.2585 5.46885C13.1049 5.49444 12.947 5.52003 12.7849 5.54562C12.7166 5.55412 12.6484 5.56697 12.5801 5.57552C12.4223 5.60111 12.2601 5.62246 12.0894 5.6438C11.8292 5.6737 11.5603 5.70353 11.283 5.72488C11.1294 5.74192 10.9716 5.75477 10.8137 5.76751C10.6942 5.77606 10.5747 5.78461 10.4552 5.7931C10.2931 5.80589 10.131 5.81444 9.9646 5.82299C9.75127 5.83154 9.53363 5.84434 9.31181 5.84858C9.15396 5.85283 8.99606 5.85713 8.83821 5.85713C8.67182 5.86568 8.50548 5.86568 8.33472 5.86568C8.2537 5.86993 8.17263 5.86993 8.08725 5.86993C8.00617 5.86993 7.9251 5.86993 7.84408 5.86568C7.67338 5.86568 7.50274 5.86568 7.33634 5.85713C7.1785 5.85713 7.02059 5.85289 6.86699 5.84858C6.64511 5.84434 6.42323 5.83154 6.2099 5.82299C6.04356 5.8145 5.87711 5.80595 5.71926 5.7931C5.5998 5.78461 5.48028 5.77606 5.36507 5.76751C5.20291 5.75471 5.04507 5.74192 4.89147 5.72488C4.6141 5.70353 4.34535 5.6737 4.08932 5.6438C3.91868 5.62246 3.75653 5.60117 3.59869 5.57552C3.5261 5.56697 3.45788 5.55418 3.3896 5.54562C3.22745 5.52003 3.0696 5.49444 2.92025 5.46885C2.5746 5.40482 2.2546 5.34084 1.9645 5.26832C1.78956 5.22569 1.62741 5.17869 1.47381 5.13176C1.45677 5.12751 1.43542 5.11896 1.41832 5.11472C1.24768 5.05923 1.08977 5.00381 0.944723 4.94832C0.343295 4.70516 0.00195312 4.42785 0.00195312 4.12914V2.10249C0.00195312 2.42249 0.403025 2.72114 1.0985 2.97716C1.19662 3.0113 1.30328 3.04969 1.4185 3.08383C1.4356 3.08807 1.45695 3.09662 1.47399 3.10087C1.62759 3.1478 1.78974 3.19474 1.96468 3.23743C2.25478 3.30995 2.57478 3.37823 2.92043 3.43796C3.06972 3.46355 3.22763 3.48915 3.38978 3.51474C3.45806 3.52329 3.52628 3.53608 3.59887 3.54463C3.75665 3.57022 3.91886 3.59157 4.0895 3.61291C4.34552 3.64281 4.61428 3.67264 4.89165 3.69399C5.04525 3.71109 5.20309 3.72388 5.36524 3.73668C5.48046 3.74517 5.59992 3.75372 5.71944 3.76227C5.87723 3.77506 6.04374 3.78361 6.21008 3.7921C6.42341 3.80065 6.64529 3.81345 6.86717 3.81775C7.02077 3.822 7.17862 3.82624 7.33652 3.82624C7.50292 3.83479 7.67362 3.83479 7.84426 3.83479C7.92528 3.83904 8.00635 3.83904 8.08743 3.83904C8.17281 3.83904 8.25382 3.83904 8.3349 3.83479C8.5056 3.83479 8.672 3.83479 8.83839 3.82624C8.99624 3.82624 9.15414 3.822 9.31199 3.81775C9.53387 3.81351 9.75145 3.80065 9.96478 3.7921C10.1312 3.78361 10.2933 3.77506 10.4554 3.76227C10.5749 3.75372 10.6944 3.74517 10.8139 3.73668C10.9717 3.72388 11.1296 3.71109 11.2832 3.69399C11.5606 3.67264 11.8293 3.64281 12.0896 3.61291C12.2603 3.59157 12.4224 3.57028 12.5803 3.54463C12.6486 3.53608 12.7168 3.52329 12.7851 3.51474C12.9472 3.48915 13.1051 3.46355 13.2587 3.43796C13.6043 3.37823 13.92 3.30995 14.2101 3.23743C14.3851 3.1948 14.5515 3.14786 14.7008 3.10517C14.7221 3.10093 14.7392 3.09238 14.7605 3.08383C14.8715 3.04969 14.9781 3.01555 15.0763 2.97716C15.7759 2.72114 16.177 2.42249 16.177 2.10249Z" fill="#F6C358"/>
<path d="M1.41793 2.97728V5.11489C1.24729 5.05941 1.08939 5.00398 0.944336 4.9485V2.97728H1.41793Z" fill="#DC8744"/>
<path d="M3.38927 2.74251V5.54571C3.22712 5.52012 3.06928 5.49453 2.91992 5.46894V2.74251H3.38927Z" fill="#DC8744"/>
<path d="M5.3652 2.62733V5.76763C5.20305 5.75483 5.0452 5.74204 4.8916 5.725V2.62733H5.3652Z" fill="#DC8744"/>
<path d="M7.33557 2.60173V5.85718C7.17772 5.85718 7.01981 5.85294 6.86621 5.84863V2.60173H7.33557Z" fill="#DC8744"/>
<path d="M9.31149 2.62733V5.84871C9.15364 5.85295 8.99574 5.85726 8.83789 5.85726V2.62739H9.31149V2.62733Z" fill="#DC8744"/>
<path d="M11.2828 2.74251V5.7249C11.1292 5.74194 10.9714 5.7548 10.8135 5.76753V2.74251H11.2828Z" fill="#DC8744"/>
<path d="M13.2578 2.97728V5.46903C13.1042 5.49462 12.9463 5.52021 12.7842 5.5458V2.97728H13.2578Z" fill="#DC8744"/>
<path d="M15.2291 2.97728V4.9485C15.0883 5.00823 14.9305 5.06371 14.7598 5.11489V2.97728H15.2291Z" fill="#DC8744"/>
<path d="M8.08789 0.361603C3.62163 0.361603 0.000976562 1.14055 0.000976562 2.10143C0.000976562 3.06232 3.62163 3.8412 8.08789 3.8412C12.5542 3.8412 16.1749 3.06226 16.1749 2.10143C16.1749 1.14055 12.5541 0.361603 8.08789 0.361603Z" fill="#FCD462"/>
<path d="M8.08729 0.821106C4.08142 0.821106 0.833984 1.39419 0.833984 2.10109C0.833984 2.80799 4.08142 3.38108 8.08729 3.38108C12.0932 3.38108 15.3407 2.80799 15.3407 2.10109C15.3407 1.39419 12.0932 0.821106 8.08729 0.821106Z" fill="#F6C358"/>
<path d="M9.13509 1.89912C9.43702 1.82785 9.58369 1.7237 9.54184 1.61697C9.47427 1.44472 8.92606 1.31665 8.31393 1.31665H8.18915L8.18891 1.20735H7.96769L7.96003 1.31665H7.69277L7.70969 1.20735H7.48847L7.46366 1.31665H7.23454H6.94061L6.89458 1.43408H7.19944L7.08351 1.82146H6.74271L6.68047 1.9802H7.03598L6.87514 2.51765H6.46971L6.38086 2.7442H6.80728H7.13965L7.08261 2.9955H7.43316L7.47203 2.7442H7.85976L7.84213 2.9955H8.19267L8.19214 2.7442H8.37318C9.26124 2.7442 9.8876 2.49906 9.78267 2.23138C9.72838 2.0926 9.48659 1.97314 9.13509 1.89912ZM8.36385 2.51759H7.50706L7.59017 1.98014H8.34149C8.77629 1.98014 9.15697 2.08884 9.19218 2.23126C9.23003 2.38432 8.85963 2.51759 8.36385 2.51759ZM8.33492 1.8214H7.61469L7.6746 1.43402H8.31883C8.69162 1.43402 9.01467 1.5136 9.0402 1.61691C9.06734 1.72675 8.75165 1.8214 8.33492 1.8214Z" fill="#DC8744"/>
<path d="M20.8275 20.0082L19.9699 19.1593L19.1123 20.0082L19.9699 20.8571L20.8275 20.0082Z" fill="#AA7B09"/>
<path d="M23.7367 20.0082L22.8959 19.1759L22.0551 20.0082L22.8959 20.8404L23.7367 20.0082Z" fill="#AA7B09"/>
<path d="M17.0439 19.1759L17.8847 20.0082L17.0439 20.8404L16.2031 20.0082L17.0439 19.1759Z" fill="#AA7B09"/>
<path d="M19.9699 22.0722L18.4901 20.6074L17.6493 21.4397L19.9699 23.7367L22.2905 21.4397L21.4497 20.6074L19.9699 22.0722Z" fill="#AA7B09"/>
<path d="M19.9699 16.263L17.6493 18.56L18.4901 19.3923L19.9699 17.9275L21.4497 19.3923L22.2905 18.56L19.9699 16.263Z" fill="#AA7B09"/>
<path d="M19.9697 17.9275V16.263L22.2903 18.56L21.4495 19.3923L19.9697 17.9275Z" fill="#594107"/>
<path d="M22.8957 20.8404L22.0549 20.0082L22.8957 19.1759L23.7365 20.0082L22.8957 20.8404Z" fill="#594107"/>
<path d="M19.9697 20.8571V19.1593L20.8273 20.0082L19.9697 20.8571Z" fill="#594107"/>
<path d="M19.9697 23.7367V22.0722L21.4495 20.6074L22.2903 21.4397L19.9697 23.7367Z" fill="#594107"/>
</svg>
