<svg width="138" height="138" viewBox="0 0 138 138" fill="none" xmlns="http://www.w3.org/2000/svg">
<g clip-path="url(#clip0)">
<path d="M134.634 124.533H122.749V48.6657C122.749 46.81 121.239 45.3 119.383 45.3H111.704C110.588 45.3 109.684 46.2041 109.684 47.3194C109.684 48.4347 110.588 49.3387 111.704 49.3387H118.71V124.533H99.5282V49.3387H102.208C103.323 49.3387 104.227 48.4347 104.227 47.3194C104.227 46.2041 103.323 45.3 102.208 45.3H98.8552C96.9994 45.3 95.4895 46.81 95.4895 48.6657V124.534H82.6299V74.2318C82.6299 72.3761 81.12 70.8662 79.2643 70.8662H58.7362C56.8805 70.8662 55.3706 72.3761 55.3706 74.2318V124.533H42.5107V96.318C42.5107 94.4623 41.0008 92.9524 39.1451 92.9524H18.6173C16.7616 92.9524 15.2517 94.4623 15.2517 96.318V105.349C15.2517 106.464 16.1557 107.368 17.271 107.368C18.3863 107.368 19.2904 106.464 19.2904 105.349V96.9913H38.4718V124.534H19.2904V114.739C19.2904 113.624 18.3863 112.72 17.271 112.72C16.1557 112.72 15.2517 113.624 15.2517 114.739V124.534H3.36564C1.50991 124.533 0 126.043 0 127.899V134.339C0 136.194 1.50991 137.704 3.36564 137.704H134.634C136.49 137.704 138 136.194 138 134.339V127.899C138 126.043 136.49 124.533 134.634 124.533ZM59.4093 74.9051H78.591V124.534H59.4093V74.9051ZM133.961 133.666H4.03893V128.573H17.2713H40.4917H57.3902H80.6106H97.5089H120.729H133.961V133.666H133.961Z" fill="#DFDFDF"/>
<path d="M16.7775 74.2429L15.6222 80.9782C15.3002 82.8563 16.0578 84.7185 17.5993 85.8384C18.4704 86.4713 19.4895 86.7931 20.5153 86.7931C21.305 86.7931 22.0988 86.6023 22.8325 86.2168L28.881 83.0369L34.9296 86.2168C36.6158 87.1033 38.6208 86.9583 40.1628 85.8387C41.7042 84.7185 42.4619 82.8561 42.1398 80.9782L40.9846 74.2429L45.8779 69.473C47.2423 68.1432 47.7242 66.1912 47.1356 64.3792C46.5466 62.5668 45.0098 61.2709 43.1241 60.9968L36.3616 60.0141L33.3375 53.8863C32.4941 52.1775 30.7866 51.1163 28.881 51.1163C26.9757 51.1163 25.2682 52.1777 24.4251 53.8863L21.401 60.0141L14.6382 60.9968C12.7525 61.2709 11.2157 62.5666 10.6267 64.3792C10.0381 66.1915 10.5197 68.1432 11.8841 69.4728L16.7775 74.2429ZM14.4678 65.6271C14.5217 65.4616 14.7023 65.0689 15.219 64.9937L22.2904 63.966C23.4125 63.8034 24.382 63.0989 24.8841 62.0819L28.0468 55.6738C28.2778 55.2057 28.7072 55.155 28.881 55.155C29.0549 55.155 29.4842 55.2054 29.7155 55.6738L32.8782 62.0817C33.38 63.0986 34.3495 63.8032 35.4713 63.966L42.5433 64.9937C43.06 65.0689 43.2406 65.4616 43.2945 65.6271C43.3484 65.7926 43.433 66.2165 43.0589 66.5807L37.9421 71.5686C37.1298 72.3597 36.7594 73.4998 36.9513 74.6173L38.1594 81.6607C38.2475 82.1752 37.9297 82.4687 37.789 82.5709C37.6481 82.673 37.2707 82.8849 36.8093 82.6415L30.4839 79.316C29.9821 79.0522 29.4314 78.9204 28.881 78.9204C28.3306 78.9204 27.78 79.0524 27.2781 79.316L20.9528 82.6415C20.4905 82.8846 20.1137 82.673 19.973 82.5709C19.8323 82.4685 19.5145 82.1752 19.6027 81.6607L20.8107 74.6176C21.0026 73.4998 20.632 72.36 19.8205 71.5689L14.7031 66.581C14.3293 66.2165 14.4139 65.7926 14.4678 65.6271Z" fill="#DFDFDF"/>
<path d="M56.896 49.6734L55.7408 56.409C55.4187 58.2868 56.1761 60.149 57.7176 61.2689C58.5887 61.9018 59.6078 62.2233 60.6339 62.2233C61.4236 62.2233 62.2174 62.0328 62.9511 61.6473L68.9996 58.4674L75.0482 61.6473C76.7346 62.5344 78.7399 62.3891 80.2819 61.2689C81.8234 60.149 82.5807 58.2865 82.2587 56.409L81.1032 49.6734L85.9968 44.9035C87.3612 43.5736 87.8428 41.6217 87.2542 39.8096C86.6655 37.9973 85.1284 36.7017 83.2425 36.4276L76.4802 35.4449L73.4558 29.3168C72.6124 27.6082 70.9049 26.5468 68.9996 26.5468C67.0943 26.5468 65.3868 27.6082 64.5435 29.3168L61.5193 35.4449L54.7565 36.4276C52.8711 36.7017 51.334 37.9973 50.7451 39.8096C50.1561 41.6214 50.6378 43.5736 52.0024 44.9038L56.896 49.6734ZM54.5862 41.0576C54.6401 40.8921 54.8207 40.4996 55.3373 40.4244L62.4098 39.3967C63.5316 39.2334 64.5006 38.5294 65.0025 37.5127L68.1651 31.1043C68.3961 30.6361 68.8255 30.5857 68.9993 30.5857C69.1732 30.5857 69.6025 30.6361 69.8335 31.1043L72.9968 37.5135C73.4984 38.5296 74.4676 39.2334 75.5896 39.3967L82.6616 40.4244C83.1783 40.4996 83.3589 40.8926 83.4128 41.0578C83.4664 41.2233 83.5511 41.647 83.1772 42.0114L78.0599 46.9997C77.2483 47.791 76.8783 48.9303 77.0696 50.0481L78.2777 57.0914C78.3658 57.606 78.048 57.8992 77.9073 58.0014C77.7667 58.1033 77.3893 58.3157 76.9273 58.072L70.6022 54.7468C70.1006 54.4829 69.55 54.3509 68.9993 54.3509C68.449 54.3509 67.8983 54.4829 67.3964 54.7465L61.0711 58.072C60.6086 58.3154 60.2318 58.1033 60.0913 58.0014C59.9506 57.8992 59.6331 57.606 59.7213 57.0914L60.9293 50.0481C61.1209 48.9308 60.7509 47.7913 59.9388 46.9994L54.8215 42.0117C54.4479 41.647 54.5325 41.2233 54.5862 41.0576Z" fill="#DFDFDF"/>
<path d="M97.015 23.422L95.8598 30.1573C95.5375 32.0351 96.2951 33.8976 97.8366 35.0175C99.3783 36.1374 101.383 36.2821 103.07 35.3959L109.119 32.216L115.167 35.3959C115.901 35.7814 116.695 35.9719 117.485 35.9719C118.511 35.9719 119.53 35.6504 120.401 35.0175C121.942 33.8976 122.7 32.0351 122.377 30.1573L121.222 23.422L126.116 18.6521C127.48 17.3222 127.962 15.3703 127.373 13.5585C126.784 11.7462 125.247 10.4503 123.362 10.1762L116.599 9.19318L113.575 3.06538C112.731 1.35682 111.024 0.29541 109.119 0.29541C107.213 0.29541 105.506 1.35682 104.662 3.06538L101.638 9.19318L94.8758 10.1762C92.9901 10.45 91.453 11.7459 90.8641 13.5582C90.2754 15.37 90.757 17.3222 92.1214 18.6521L97.015 23.422ZM94.7054 14.8064C94.7591 14.6409 94.9396 14.2482 95.4566 14.173L102.528 13.1453C103.651 12.9825 104.62 12.2782 105.122 11.2613L108.284 4.85318C108.516 4.38501 108.945 4.33461 109.119 4.33461C109.292 4.33461 109.722 4.38501 109.953 4.85318L113.116 11.2616C113.618 12.2782 114.587 12.9828 115.709 13.1453L122.781 14.173C123.298 14.2482 123.478 14.6412 123.532 14.8064C123.586 14.9719 123.67 15.3956 123.296 15.76L118.179 20.7485C117.368 21.5399 116.997 22.6792 117.189 23.7969L118.397 30.84C118.485 31.3548 118.167 31.6481 118.026 31.7502C117.886 31.8527 117.509 32.0642 117.046 31.8209L110.721 28.4957C110.219 28.2318 109.669 28.0997 109.118 28.0997C108.568 28.0997 108.017 28.2318 107.516 28.4954L101.19 31.8209C100.728 32.0642 100.351 31.8521 100.21 31.7502C100.07 31.6478 99.7521 31.3548 99.84 30.84L101.048 23.7975C101.24 22.68 100.87 21.5404 100.058 20.7482L94.9404 15.76C94.5666 15.3956 94.6515 14.9717 94.7054 14.8064Z" fill="#DFDFDF"/>
</g>
<defs>
<clipPath id="clip0">
<rect width="138" height="138" fill="white"/>
</clipPath>
</defs>
</svg>
