<svg width="405" height="531" viewBox="0 0 405 531" fill="none" xmlns="http://www.w3.org/2000/svg">
<path d="M333 10L322 3L331 12.5L333 10Z" fill="#220909"/>
<path d="M123.5 239L114.5 229L126.5 236.5L123.5 239Z" fill="#220909"/>
<rect x="119" y="7" width="222" height="238" rx="18" fill="#220909"/>
<rect x="110" width="220" height="235" rx="18" fill="url(#paint0_linear)"/>
<path d="M330 83C293 80 200 72 110 107.5V218.5C112 227.5 116 233 126.5 235H314C321 234 329.5 228.5 330 218V83Z" fill="white" fill-opacity="0.08"/>
<path d="M180.479 268.714L171.5 263L178.847 270.755L180.479 268.714Z" fill="#0C2913"/>
<path d="M12.0003 454L4.65332 445.837L14.4492 451.959L12.0003 454Z" fill="#0C2913"/>
<rect x="7.34717" y="265.714" width="181.224" height="194.286" rx="18" fill="#0C2913"/>
<rect y="260" width="179.592" height="191.837" rx="18" fill="url(#paint1_linear)"/>
<path d="M179.592 327.755C149.388 325.306 73.4699 318.776 0.000488281 347.755V435.239C0.500488 444 7.50049 450.5 16.275 451.837H166.531C172.245 451.02 179.184 446.531 179.592 437.959V327.755Z" fill="white" fill-opacity="0.08"/>
<path d="M389.5 328.5L381.733 323.557L388.088 330.265L389.5 328.5Z" fill="#091929"/>
<path d="M245.501 487.5L239.146 480.439L247.619 485.735L245.501 487.5Z" fill="#091929"/>
<rect x="241.355" y="325.943" width="156.759" height="168.057" rx="18" fill="#091929"/>
<rect x="235" y="321" width="155.347" height="165.939" rx="18" fill="url(#paint2_linear)"/>
<path d="M390.347 379.608C364.22 377.49 298.551 371.841 235 396.908V470C235.5 479 243 486.5 251.353 486.939H379.049C383.992 486.233 389.994 482.349 390.347 474.935V379.608Z" fill="white" fill-opacity="0.08"/>
<g filter="url(#filter0_d)">
<path d="M294.51 297.682L280.121 252.036L316.382 242.336L330.196 286.841L308.9 281.136L294.51 297.682Z" fill="#B31500"/>
</g>
<path d="M326.242 285.822L315.041 248.925L313.064 249.584L323.607 285.164L326.242 285.822Z" fill="#EEEEEE"/>
<path d="M298.569 293.07L288.027 257.491L286.051 258.15L297.252 294.388L298.569 293.07Z" fill="#EEEEEE"/>
<g filter="url(#filter1_d)">
<path d="M277.592 299L291.981 253.354L255.72 243.654L241.907 288.159L263.203 282.453L277.592 299Z" fill="#DD240B"/>
</g>
<path d="M245.861 287.14L257.061 250.243L259.038 250.902L248.496 286.481L245.861 287.14Z" fill="white"/>
<path d="M273.533 294.388L284.075 258.809L286.052 259.467L274.851 295.706L273.533 294.388Z" fill="white"/>
<g filter="url(#filter2_d)">
<circle cx="284.734" cy="208.734" r="50.7336" fill="url(#paint3_linear)"/>
<circle cx="284.734" cy="208.734" r="50.2336" stroke="url(#paint4_linear)"/>
</g>
<path d="M327.061 208.734C327.061 231.375 308.413 249.743 285.393 249.743C262.373 249.743 243.725 231.375 243.725 208.734C243.725 186.092 262.373 167.724 285.393 167.724C308.413 167.724 327.061 186.092 327.061 208.734Z" fill="url(#paint5_linear)" stroke="url(#paint6_linear)"/>
<path d="M311.557 192.262C311.557 197.092 314.777 204.068 315.851 205.678C318.534 200.312 316.387 194.945 311.557 192.262Z" fill="#FCDD97"/>
<path d="M311.559 192.262C311.559 197.092 314.779 204.068 315.852 205.678C316.389 201.385 314.779 195.482 311.559 192.262Z" fill="#5D2801"/>
<path d="M317.836 202.459C316.492 206.397 317.176 212.982 317.603 214.593C321.285 210.964 321.028 205.991 317.836 202.459Z" fill="#FCDD97"/>
<path d="M317.837 202.459C316.493 206.397 317.177 212.981 317.604 214.592C319.237 211.241 319.567 205.98 317.837 202.459Z" fill="#5D2801"/>
<path d="M313.332 204.606C312.072 209.683 313.002 217.7 313.499 219.62C317.191 214.547 316.757 208.45 313.332 204.606Z" fill="#FCDD97"/>
<path d="M313.333 204.605C312.073 209.683 313.003 217.7 313.499 219.62C315.078 215.22 315.243 208.673 313.333 204.605Z" fill="#5D2801"/>
<path d="M311.79 216.412C307.84 220.689 304.53 229.078 304.011 231.241C310.394 228.33 313.186 222.104 311.79 216.412Z" fill="#FCDD97"/>
<path d="M311.791 216.413C307.842 220.69 304.531 229.079 304.013 231.242C307.922 227.808 311.552 221.475 311.791 216.413Z" fill="#5D2801"/>
<path d="M319.077 216.412C314.341 219.798 309.394 227.339 308.447 229.351C315.289 227.798 319.288 222.269 319.077 216.412Z" fill="#FCDD97"/>
<path d="M319.077 216.412C314.341 219.798 309.394 227.339 308.447 229.351C312.973 226.783 317.814 221.32 319.077 216.412Z" fill="#5D2801"/>
<path d="M303.403 227.146C297.867 228.95 290.882 234.653 289.373 236.287C296.365 236.864 301.842 232.794 303.403 227.146Z" fill="#FCDD97"/>
<path d="M303.404 227.146C297.869 228.95 290.883 234.654 289.375 236.288C294.463 235.2 300.724 231.447 303.404 227.146Z" fill="#5D2801"/>
<path d="M310.916 231.439C305.133 232.115 297.159 236.328 295.358 237.632C302.098 239.577 308.271 236.668 310.916 231.439Z" fill="#FCDD97"/>
<path d="M310.914 231.439C305.132 232.115 297.158 236.328 295.356 237.632C300.559 237.571 307.438 235.126 310.914 231.439Z" fill="#5D2801"/>
<path d="M257.912 192.262C257.912 197.092 254.692 204.068 253.618 205.678C250.935 200.312 253.082 194.945 257.912 192.262Z" fill="#FCDD97"/>
<path d="M257.91 192.262C257.91 197.092 254.69 204.068 253.616 205.678C253.08 201.385 254.69 195.482 257.91 192.262Z" fill="#5D2801"/>
<path d="M251.631 202.459C252.976 206.397 252.292 212.981 251.865 214.593C248.183 210.964 248.44 205.991 251.631 202.459Z" fill="#FCDD97"/>
<path d="M251.631 202.459C252.975 206.397 252.292 212.981 251.864 214.592C250.232 211.241 249.902 205.98 251.631 202.459Z" fill="#5D2801"/>
<path d="M256.137 204.606C257.397 209.683 256.466 217.7 255.97 219.62C252.278 214.547 252.712 208.45 256.137 204.606Z" fill="#FCDD97"/>
<path d="M256.134 204.605C257.394 209.683 256.464 217.7 255.967 219.62C254.389 215.22 254.224 208.673 256.134 204.605Z" fill="#5D2801"/>
<path d="M257.678 216.412C261.627 220.689 264.938 229.078 265.457 231.241C259.073 228.33 256.281 222.103 257.678 216.412Z" fill="#FCDD97"/>
<path d="M257.678 216.413C261.627 220.69 264.938 229.079 265.456 231.242C261.547 227.808 257.917 221.475 257.678 216.413Z" fill="#5D2801"/>
<path d="M250.392 216.412C255.128 219.797 260.074 227.338 261.022 229.35C254.18 227.798 250.181 222.268 250.392 216.412Z" fill="#FCDD97"/>
<path d="M250.392 216.412C255.128 219.798 260.074 227.339 261.021 229.351C256.496 226.783 251.655 221.32 250.392 216.412Z" fill="#5D2801"/>
<path d="M266.066 227.145C271.601 228.949 278.587 234.653 280.096 236.287C273.104 236.864 267.627 232.794 266.066 227.145Z" fill="#FCDD97"/>
<path d="M266.065 227.146C271.6 228.95 278.586 234.654 280.094 236.287C275.006 235.2 268.745 231.446 266.065 227.146Z" fill="#5D2801"/>
<path d="M258.553 231.439C264.336 232.115 272.309 236.328 274.111 237.632C267.37 239.577 261.198 236.668 258.553 231.439Z" fill="#FCDD97"/>
<path d="M258.554 231.439C264.336 232.115 272.31 236.328 274.111 237.632C268.908 237.571 262.03 235.126 258.554 231.439Z" fill="#5D2801"/>
<path d="M279.556 240.266C277.535 241.207 274.503 244.972 272.481 244.972C270.46 242.148 280.567 238.383 281.577 238.383C282.841 238.383 282.924 238.697 282.587 239.325C281.577 239.325 280.765 239.703 279.556 240.266Z" fill="#6F3604"/>
<path d="M290.828 240.266C292.597 241.207 295.25 244.972 297.019 244.972C298.787 242.148 289.944 238.383 289.06 238.383C287.954 238.383 287.881 238.697 288.176 239.325C289.06 239.325 289.771 239.703 290.828 240.266Z" fill="#6F3604"/>
<path d="M284.108 187.742H288.938C289.98 187.742 290.655 187.911 290.962 188.248C291.299 188.585 291.468 189.291 291.468 190.364V215.71H295.194C295.654 215.71 295.96 215.771 296.114 215.894C296.267 216.017 296.344 216.247 296.344 216.584V221H285.764C285.273 221 284.874 220.847 284.568 220.54C284.261 220.203 284.108 219.758 284.108 219.206V187.742ZM282.728 221H276.058V216.584C276.058 216.247 276.134 216.017 276.288 215.894C276.441 215.771 276.748 215.71 277.208 215.71H282.728V221ZM282.728 193.032H277.668C276.901 193.032 276.518 192.603 276.518 191.744V187.742H282.728V193.032Z" fill="#6D3200"/>
<g filter="url(#filter3_d)">
<path d="M159.781 492.916L147.943 455.363L177.775 447.383L189.14 483.997L171.619 479.303L159.781 492.916Z" fill="#B31500"/>
</g>
<path d="M185.888 483.159L176.673 452.803L175.047 453.346L183.72 482.617L185.888 483.159Z" fill="#EEEEEE"/>
<path d="M163.122 489.121L154.449 459.85L152.823 460.392L162.038 490.205L163.122 489.121Z" fill="#EEEEEE"/>
<g filter="url(#filter4_d)">
<path d="M145.863 494L157.701 456.447L127.869 448.467L116.504 485.081L134.025 480.387L145.863 494Z" fill="#DD240B"/>
</g>
<path d="M119.757 484.243L128.971 453.888L130.598 454.43L121.925 483.701L119.757 484.243Z" fill="white"/>
<path d="M142.523 490.206L151.196 460.935L152.822 461.477L143.607 491.29L142.523 490.206Z" fill="white"/>
<g filter="url(#filter5_d)">
<circle cx="151.738" cy="419.738" r="41.7383" fill="url(#paint7_linear)"/>
<circle cx="151.738" cy="419.738" r="41.2383" stroke="url(#paint8_linear)"/>
</g>
<path d="M186.472 419.738C186.472 438.315 171.171 453.388 152.28 453.388C133.39 453.388 118.089 438.315 118.089 419.738C118.089 401.162 133.39 386.089 152.28 386.089C171.171 386.089 186.472 401.162 186.472 419.738Z" fill="url(#paint9_linear)" stroke="url(#paint10_linear)"/>
<path d="M173.805 406.187C173.805 410.161 176.455 415.9 177.338 417.225C179.545 412.81 177.779 408.395 173.805 406.187Z" fill="#D9DBE0"/>
<path d="M173.807 406.187C173.807 410.161 176.456 415.9 177.339 417.225C177.781 413.693 176.456 408.836 173.807 406.187Z" fill="#24262A"/>
<path d="M178.972 414.576C177.866 417.816 178.429 423.233 178.78 424.558C181.809 421.573 181.597 417.482 178.972 414.576Z" fill="#D9DBE0"/>
<path d="M178.971 414.576C177.866 417.816 178.428 423.233 178.78 424.558C180.122 421.801 180.394 417.473 178.971 414.576Z" fill="#24262A"/>
<path d="M175.265 416.342C174.228 420.52 174.993 427.115 175.402 428.694C178.439 424.521 178.082 419.505 175.265 416.342Z" fill="#D9DBE0"/>
<path d="M175.266 416.342C174.229 420.52 174.994 427.115 175.403 428.694C176.701 425.075 176.837 419.688 175.266 416.342Z" fill="#24262A"/>
<path d="M173.997 426.055C170.747 429.574 168.024 436.476 167.597 438.255C172.849 435.86 175.146 430.738 173.997 426.055Z" fill="#D9DBE0"/>
<path d="M173.996 426.056C170.747 429.575 168.024 436.476 167.597 438.255C170.813 435.43 173.8 430.22 173.996 426.056Z" fill="#24262A"/>
<path d="M179.991 426.055C176.095 428.84 172.026 435.044 171.247 436.7C176.875 435.422 180.165 430.873 179.991 426.055Z" fill="#D9DBE0"/>
<path d="M179.991 426.055C176.095 428.841 172.025 435.044 171.246 436.7C174.969 434.587 178.952 430.093 179.991 426.055Z" fill="#24262A"/>
<path d="M167.097 434.886C162.543 436.37 156.796 441.062 155.555 442.406C161.307 442.881 165.813 439.533 167.097 434.886Z" fill="#D9DBE0"/>
<path d="M167.098 434.886C162.544 436.37 156.797 441.063 155.556 442.407C159.742 441.512 164.893 438.424 167.098 434.886Z" fill="#24262A"/>
<path d="M173.278 438.418C168.52 438.974 161.96 442.44 160.478 443.513C166.024 445.113 171.102 442.72 173.278 438.418Z" fill="#D9DBE0"/>
<path d="M173.277 438.418C168.52 438.974 161.959 442.44 160.477 443.513C164.758 443.462 170.417 441.451 173.277 438.418Z" fill="#24262A"/>
<path d="M129.671 406.187C129.671 410.161 127.022 415.9 126.139 417.225C123.931 412.81 125.698 408.395 129.671 406.187Z" fill="#D9DBE0"/>
<path d="M129.669 406.187C129.669 410.161 127.02 415.9 126.137 417.225C125.696 413.693 127.02 408.836 129.669 406.187Z" fill="#24262A"/>
<path d="M124.505 414.576C125.611 417.816 125.048 423.233 124.697 424.558C121.668 421.573 121.879 417.482 124.505 414.576Z" fill="#D9DBE0"/>
<path d="M124.505 414.576C125.611 417.816 125.048 423.233 124.697 424.558C123.354 421.801 123.083 417.473 124.505 414.576Z" fill="#24262A"/>
<path d="M128.211 416.342C129.248 420.52 128.483 427.115 128.074 428.694C125.037 424.521 125.394 419.505 128.211 416.342Z" fill="#D9DBE0"/>
<path d="M128.21 416.342C129.247 420.52 128.482 427.115 128.073 428.694C126.775 425.075 126.639 419.688 128.21 416.342Z" fill="#24262A"/>
<path d="M129.48 426.055C132.729 429.574 135.453 436.476 135.879 438.255C130.628 435.86 128.331 430.738 129.48 426.055Z" fill="#D9DBE0"/>
<path d="M129.48 426.056C132.729 429.575 135.453 436.476 135.879 438.255C132.663 435.43 129.677 430.22 129.48 426.056Z" fill="#24262A"/>
<path d="M123.485 426.055C127.382 428.84 131.451 435.044 132.23 436.7C126.602 435.422 123.312 430.873 123.485 426.055Z" fill="#D9DBE0"/>
<path d="M123.485 426.055C127.381 428.841 131.451 435.044 132.23 436.7C128.507 434.587 124.524 430.093 123.485 426.055Z" fill="#24262A"/>
<path d="M136.379 434.886C140.933 436.37 146.68 441.062 147.921 442.406C142.169 442.881 137.663 439.533 136.379 434.886Z" fill="#D9DBE0"/>
<path d="M136.378 434.886C140.932 436.37 146.679 441.063 147.92 442.407C143.734 441.512 138.584 438.424 136.378 434.886Z" fill="#24262A"/>
<path d="M130.199 438.418C134.956 438.974 141.516 442.44 142.998 443.513C137.453 445.113 132.375 442.72 130.199 438.418Z" fill="#D9DBE0"/>
<path d="M130.2 438.418C134.957 438.974 141.517 442.44 142.999 443.513C138.719 443.462 133.06 441.451 130.2 438.418Z" fill="#24262A"/>
<path d="M147.479 445.68C145.816 446.454 143.321 449.551 141.658 449.551C139.995 447.228 148.31 444.131 149.141 444.131C150.181 444.131 150.25 444.389 149.972 444.905C149.141 444.905 148.473 445.216 147.479 445.68Z" fill="#24262A"/>
<path d="M156.753 445.68C158.208 446.454 160.391 449.551 161.846 449.551C163.301 447.228 156.025 444.131 155.298 444.131C154.389 444.131 154.328 444.389 154.571 444.905C155.298 444.905 155.883 445.216 156.753 445.68Z" fill="#24262A"/>
<path d="M155.836 403.634H158.986C161.366 403.634 162.556 404.992 162.556 407.708V418.376C162.556 420.896 161.324 422.156 158.86 422.156H153.064V418.166H154.702C155.206 418.166 155.514 418.082 155.626 417.914C155.766 417.718 155.836 417.396 155.836 416.948V403.634ZM151.384 422.156H150.208C149.704 422.156 149.382 422.254 149.242 422.45C149.13 422.618 149.074 422.926 149.074 423.374V434H145.504C144.132 434 143.264 433.776 142.9 433.328C142.536 432.88 142.354 431.76 142.354 429.968V421.106C142.354 419.874 142.564 419.076 142.984 418.712C143.404 418.348 144.286 418.166 145.63 418.166H151.384V422.156ZM161.506 429.17C162.206 429.17 162.556 429.562 162.556 430.346V434H150.796L150.754 429.17H161.506ZM154.156 407.624H150.166C149.578 407.624 149.214 407.722 149.074 407.918C148.934 408.086 148.864 408.408 148.864 408.884V413.546H144.244C143.208 413.546 142.592 413.462 142.396 413.294C142.228 413.126 142.144 412.608 142.144 411.74V408.128C142.144 406.588 142.368 405.454 142.816 404.726C143.292 403.998 144.314 403.634 145.882 403.634H154.156V407.624Z" fill="#22252A"/>
<g filter="url(#filter6_d)">
<path d="M375.48 522.196L366.703 494.355L388.82 488.439L397.245 515.584L384.256 512.104L375.48 522.196Z" fill="#B31500"/>
</g>
<path d="M394.834 514.962L388.002 492.458L386.797 492.86L393.227 514.561L394.834 514.962Z" fill="#EEEEEE"/>
<path d="M377.956 519.383L371.526 497.682L370.32 498.084L377.152 520.187L377.956 519.383Z" fill="#EEEEEE"/>
<g filter="url(#filter7_d)">
<path d="M365.159 523L373.936 495.159L351.819 489.243L343.393 516.388L356.383 512.908L365.159 523Z" fill="#DD240B"/>
</g>
<path d="M345.805 515.766L352.637 493.261L353.843 493.663L347.413 515.364L345.805 515.766Z" fill="white"/>
<path d="M362.683 520.187L369.113 498.486L370.318 498.888L363.487 520.991L362.683 520.187Z" fill="white"/>
<g filter="url(#filter8_d)">
<circle cx="369.515" cy="467.944" r="30.9439" fill="url(#paint11_linear)"/>
<circle cx="369.515" cy="467.944" r="30.4439" stroke="url(#paint12_linear)"/>
</g>
<path d="M395.137 467.944C395.137 481.643 383.853 492.762 369.917 492.762C355.981 492.762 344.697 481.643 344.697 467.944C344.697 454.245 355.981 443.126 369.917 443.126C383.853 443.126 395.137 454.245 395.137 467.944Z" fill="url(#paint13_linear)" stroke="url(#paint14_linear)"/>
<path d="M385.875 457.897C385.875 460.843 387.839 465.098 388.494 466.08C390.131 462.807 388.821 459.534 385.875 457.897Z" fill="#EBC299"/>
<path d="M385.877 457.897C385.877 460.843 387.841 465.098 388.496 466.08C388.823 463.462 387.841 459.861 385.877 457.897Z" fill="#521D10"/>
<path d="M389.705 464.118C388.886 466.519 389.303 470.536 389.563 471.518C391.809 469.305 391.652 466.272 389.705 464.118Z" fill="#EBC299"/>
<path d="M389.707 464.116C388.887 466.518 389.304 470.534 389.565 471.517C390.56 469.473 390.762 466.264 389.707 464.116Z" fill="#521D10"/>
<path d="M386.959 465.426C386.191 468.523 386.758 473.413 387.061 474.584C389.313 471.49 389.048 467.771 386.959 465.426Z" fill="#EBC299"/>
<path d="M386.961 465.426C386.192 468.523 386.76 473.413 387.062 474.584C388.025 471.9 388.126 467.907 386.961 465.426Z" fill="#521D10"/>
<path d="M386.018 472.628C383.609 475.237 381.59 480.353 381.274 481.672C385.167 479.897 386.87 476.099 386.018 472.628Z" fill="#EBC299"/>
<path d="M386.02 472.628C383.611 475.236 381.592 480.353 381.276 481.672C383.66 479.578 385.874 475.715 386.02 472.628Z" fill="#521D10"/>
<path d="M390.463 472.627C387.575 474.692 384.558 479.292 383.98 480.519C388.153 479.572 390.592 476.199 390.463 472.627Z" fill="#EBC299"/>
<path d="M390.463 472.627C387.574 474.692 384.557 479.292 383.979 480.519C386.74 478.953 389.693 475.62 390.463 472.627Z" fill="#521D10"/>
<path d="M380.903 479.174C377.527 480.274 373.266 483.753 372.346 484.75C376.61 485.102 379.951 482.619 380.903 479.174Z" fill="#EBC299"/>
<path d="M380.903 479.174C377.527 480.274 373.266 483.753 372.346 484.75C375.449 484.087 379.268 481.797 380.903 479.174Z" fill="#521D10"/>
<path d="M385.484 481.792C381.958 482.205 377.094 484.774 375.995 485.57C380.106 486.756 383.871 484.982 385.484 481.792Z" fill="#EBC299"/>
<path d="M385.484 481.793C381.957 482.205 377.093 484.775 375.995 485.57C379.168 485.533 383.363 484.042 385.484 481.793Z" fill="#521D10"/>
<path d="M353.157 457.897C353.157 460.843 351.193 465.098 350.538 466.08C348.901 462.807 350.211 459.534 353.157 457.897Z" fill="#EBC299"/>
<path d="M353.156 457.897C353.156 460.843 351.192 465.098 350.538 466.08C350.21 463.462 351.192 459.861 353.156 457.897Z" fill="#521D10"/>
<path d="M349.327 464.117C350.147 466.519 349.729 470.535 349.469 471.517C347.223 469.304 347.38 466.271 349.327 464.117Z" fill="#EBC299"/>
<path d="M349.327 464.117C350.147 466.519 349.73 470.535 349.469 471.517C348.474 469.473 348.272 466.264 349.327 464.117Z" fill="#521D10"/>
<path d="M352.074 465.427C352.842 468.524 352.275 473.413 351.972 474.585C349.72 471.49 349.985 467.772 352.074 465.427Z" fill="#EBC299"/>
<path d="M352.072 465.426C352.84 468.523 352.273 473.413 351.97 474.584C351.007 471.9 350.907 467.907 352.072 465.426Z" fill="#521D10"/>
<path d="M353.014 472.627C355.423 475.236 357.442 480.353 357.758 481.672C353.865 479.896 352.162 476.099 353.014 472.627Z" fill="#EBC299"/>
<path d="M353.013 472.628C355.422 475.236 357.441 480.353 357.758 481.672C355.373 479.578 353.159 475.715 353.013 472.628Z" fill="#521D10"/>
<path d="M348.571 472.627C351.46 474.692 354.476 479.292 355.054 480.519C350.881 479.572 348.442 476.199 348.571 472.627Z" fill="#EBC299"/>
<path d="M348.572 472.627C351.46 474.692 354.477 479.292 355.055 480.519C352.294 478.953 349.342 475.62 348.572 472.627Z" fill="#521D10"/>
<path d="M358.132 479.174C361.508 480.274 365.768 483.753 366.689 484.75C362.424 485.102 359.083 482.619 358.132 479.174Z" fill="#EBC299"/>
<path d="M358.132 479.175C361.508 480.275 365.768 483.754 366.689 484.75C363.585 484.087 359.766 481.797 358.132 479.175Z" fill="#521D10"/>
<path d="M353.55 481.792C357.077 482.205 361.94 484.774 363.039 485.57C358.928 486.756 355.163 484.982 353.55 481.792Z" fill="#EBC299"/>
<path d="M353.55 481.793C357.077 482.205 361.941 484.775 363.039 485.57C359.866 485.533 355.671 484.042 353.55 481.793Z" fill="#521D10"/>
<path d="M366.357 487.176C365.125 487.75 363.275 490.047 362.042 490.047C360.81 488.324 366.974 486.028 367.59 486.028C368.361 486.028 368.412 486.219 368.206 486.602C367.59 486.602 367.095 486.833 366.357 487.176Z" fill="#4E1C0D"/>
<path d="M373.232 487.176C374.311 487.75 375.929 490.047 377.008 490.047C378.087 488.324 372.693 486.028 372.154 486.028C371.48 486.028 371.435 486.219 371.615 486.602C372.154 486.602 372.587 486.833 373.232 487.176Z" fill="#4E1C0D"/>
<path d="M371.12 456.756H373.5C374.265 456.756 374.807 456.924 375.124 457.26C375.441 457.577 375.6 458.137 375.6 458.94V464.064C375.6 464.923 375.376 465.567 374.928 465.996C375.395 466.407 375.628 467.144 375.628 468.208V474.592C375.628 475.637 375.479 476.3 375.18 476.58C374.881 476.86 374.237 477 373.248 477H371.148V468.88C371.148 468.581 371.101 468.376 371.008 468.264C370.933 468.133 370.728 468.068 370.392 468.068H367.368V465.408H369.44L370.364 465.38C370.793 465.38 371.036 465.287 371.092 465.1C371.111 465.044 371.12 464.96 371.12 464.848V456.756ZM370.028 459.416H367.368C366.976 459.416 366.733 459.481 366.64 459.612C366.547 459.724 366.5 459.939 366.5 460.256V463.364H363.42C362.729 463.364 362.319 463.308 362.188 463.196C362.076 463.084 362.02 462.739 362.02 462.16V459.752C362.02 458.725 362.169 457.969 362.468 457.484C362.785 456.999 363.467 456.756 364.512 456.756H370.028V459.416ZM366.5 470.392V473.5C366.5 473.817 366.547 474.041 366.64 474.172C366.733 474.284 366.976 474.34 367.368 474.34H370.028V477H364.512C363.467 477 362.785 476.757 362.468 476.272C362.169 475.787 362.02 475.031 362.02 474.004V471.596C362.02 471.017 362.076 470.672 362.188 470.56C362.319 470.448 362.729 470.392 363.42 470.392H366.5Z" fill="#501B0E"/>
<defs>
<filter id="filter0_d" x="276.121" y="242.336" width="58.0748" height="63.3458" filterUnits="userSpaceOnUse" color-interpolation-filters="sRGB">
<feFlood flood-opacity="0" result="BackgroundImageFix"/>
<feColorMatrix in="SourceAlpha" type="matrix" values="0 0 0 0 0 0 0 0 0 0 0 0 0 0 0 0 0 0 127 0"/>
<feOffset dy="4"/>
<feGaussianBlur stdDeviation="2"/>
<feColorMatrix type="matrix" values="0 0 0 0 0 0 0 0 0 0 0 0 0 0 0 0 0 0 0.25 0"/>
<feBlend mode="normal" in2="BackgroundImageFix" result="effect1_dropShadow"/>
<feBlend mode="normal" in="SourceGraphic" in2="effect1_dropShadow" result="shape"/>
</filter>
<filter id="filter1_d" x="237.906" y="243.654" width="58.0748" height="63.3458" filterUnits="userSpaceOnUse" color-interpolation-filters="sRGB">
<feFlood flood-opacity="0" result="BackgroundImageFix"/>
<feColorMatrix in="SourceAlpha" type="matrix" values="0 0 0 0 0 0 0 0 0 0 0 0 0 0 0 0 0 0 127 0"/>
<feOffset dy="4"/>
<feGaussianBlur stdDeviation="2"/>
<feColorMatrix type="matrix" values="0 0 0 0 0 0 0 0 0 0 0 0 0 0 0 0 0 0 0.25 0"/>
<feBlend mode="normal" in2="BackgroundImageFix" result="effect1_dropShadow"/>
<feBlend mode="normal" in="SourceGraphic" in2="effect1_dropShadow" result="shape"/>
</filter>
<filter id="filter2_d" x="230" y="158" width="109.467" height="109.467" filterUnits="userSpaceOnUse" color-interpolation-filters="sRGB">
<feFlood flood-opacity="0" result="BackgroundImageFix"/>
<feColorMatrix in="SourceAlpha" type="matrix" values="0 0 0 0 0 0 0 0 0 0 0 0 0 0 0 0 0 0 127 0"/>
<feOffset dy="4"/>
<feGaussianBlur stdDeviation="2"/>
<feColorMatrix type="matrix" values="0 0 0 0 0 0 0 0 0 0 0 0 0 0 0 0 0 0 0.25 0"/>
<feBlend mode="normal" in2="BackgroundImageFix" result="effect1_dropShadow"/>
<feBlend mode="normal" in="SourceGraphic" in2="effect1_dropShadow" result="shape"/>
</filter>
<filter id="filter3_d" x="143.943" y="447.383" width="49.1963" height="53.5327" filterUnits="userSpaceOnUse" color-interpolation-filters="sRGB">
<feFlood flood-opacity="0" result="BackgroundImageFix"/>
<feColorMatrix in="SourceAlpha" type="matrix" values="0 0 0 0 0 0 0 0 0 0 0 0 0 0 0 0 0 0 127 0"/>
<feOffset dy="4"/>
<feGaussianBlur stdDeviation="2"/>
<feColorMatrix type="matrix" values="0 0 0 0 0 0 0 0 0 0 0 0 0 0 0 0 0 0 0.25 0"/>
<feBlend mode="normal" in2="BackgroundImageFix" result="effect1_dropShadow"/>
<feBlend mode="normal" in="SourceGraphic" in2="effect1_dropShadow" result="shape"/>
</filter>
<filter id="filter4_d" x="112.504" y="448.467" width="49.1963" height="53.5327" filterUnits="userSpaceOnUse" color-interpolation-filters="sRGB">
<feFlood flood-opacity="0" result="BackgroundImageFix"/>
<feColorMatrix in="SourceAlpha" type="matrix" values="0 0 0 0 0 0 0 0 0 0 0 0 0 0 0 0 0 0 127 0"/>
<feOffset dy="4"/>
<feGaussianBlur stdDeviation="2"/>
<feColorMatrix type="matrix" values="0 0 0 0 0 0 0 0 0 0 0 0 0 0 0 0 0 0 0.25 0"/>
<feBlend mode="normal" in2="BackgroundImageFix" result="effect1_dropShadow"/>
<feBlend mode="normal" in="SourceGraphic" in2="effect1_dropShadow" result="shape"/>
</filter>
<filter id="filter5_d" x="106" y="378" width="91.4766" height="91.4766" filterUnits="userSpaceOnUse" color-interpolation-filters="sRGB">
<feFlood flood-opacity="0" result="BackgroundImageFix"/>
<feColorMatrix in="SourceAlpha" type="matrix" values="0 0 0 0 0 0 0 0 0 0 0 0 0 0 0 0 0 0 127 0"/>
<feOffset dy="4"/>
<feGaussianBlur stdDeviation="2"/>
<feColorMatrix type="matrix" values="0 0 0 0 0 0 0 0 0 0 0 0 0 0 0 0 0 0 0.25 0"/>
<feBlend mode="normal" in2="BackgroundImageFix" result="effect1_dropShadow"/>
<feBlend mode="normal" in="SourceGraphic" in2="effect1_dropShadow" result="shape"/>
</filter>
<filter id="filter6_d" x="362.703" y="488.439" width="38.5421" height="41.757" filterUnits="userSpaceOnUse" color-interpolation-filters="sRGB">
<feFlood flood-opacity="0" result="BackgroundImageFix"/>
<feColorMatrix in="SourceAlpha" type="matrix" values="0 0 0 0 0 0 0 0 0 0 0 0 0 0 0 0 0 0 127 0"/>
<feOffset dy="4"/>
<feGaussianBlur stdDeviation="2"/>
<feColorMatrix type="matrix" values="0 0 0 0 0 0 0 0 0 0 0 0 0 0 0 0 0 0 0.25 0"/>
<feBlend mode="normal" in2="BackgroundImageFix" result="effect1_dropShadow"/>
<feBlend mode="normal" in="SourceGraphic" in2="effect1_dropShadow" result="shape"/>
</filter>
<filter id="filter7_d" x="339.394" y="489.243" width="38.5421" height="41.757" filterUnits="userSpaceOnUse" color-interpolation-filters="sRGB">
<feFlood flood-opacity="0" result="BackgroundImageFix"/>
<feColorMatrix in="SourceAlpha" type="matrix" values="0 0 0 0 0 0 0 0 0 0 0 0 0 0 0 0 0 0 127 0"/>
<feOffset dy="4"/>
<feGaussianBlur stdDeviation="2"/>
<feColorMatrix type="matrix" values="0 0 0 0 0 0 0 0 0 0 0 0 0 0 0 0 0 0 0.25 0"/>
<feBlend mode="normal" in2="BackgroundImageFix" result="effect1_dropShadow"/>
<feBlend mode="normal" in="SourceGraphic" in2="effect1_dropShadow" result="shape"/>
</filter>
<filter id="filter8_d" x="334.571" y="437" width="69.8879" height="69.8879" filterUnits="userSpaceOnUse" color-interpolation-filters="sRGB">
<feFlood flood-opacity="0" result="BackgroundImageFix"/>
<feColorMatrix in="SourceAlpha" type="matrix" values="0 0 0 0 0 0 0 0 0 0 0 0 0 0 0 0 0 0 127 0"/>
<feOffset dy="4"/>
<feGaussianBlur stdDeviation="2"/>
<feColorMatrix type="matrix" values="0 0 0 0 0 0 0 0 0 0 0 0 0 0 0 0 0 0 0.25 0"/>
<feBlend mode="normal" in2="BackgroundImageFix" result="effect1_dropShadow"/>
<feBlend mode="normal" in="SourceGraphic" in2="effect1_dropShadow" result="shape"/>
</filter>
<linearGradient id="paint0_linear" x1="135.5" y1="5.50001" x2="294.5" y2="235" gradientUnits="userSpaceOnUse">
<stop stop-color="#723030"/>
<stop offset="1" stop-color="#470C0C"/>
</linearGradient>
<linearGradient id="paint1_linear" x1="20.8163" y1="264.49" x2="150.612" y2="451.837" gradientUnits="userSpaceOnUse">
<stop stop-color="#30725E"/>
<stop offset="1" stop-color="#1C470C"/>
</linearGradient>
<linearGradient id="paint2_linear" x1="253.006" y1="324.884" x2="365.28" y2="486.939" gradientUnits="userSpaceOnUse">
<stop stop-color="#305A72"/>
<stop offset="1" stop-color="#0C2447"/>
</linearGradient>
<linearGradient id="paint3_linear" x1="284.734" y1="158" x2="284.734" y2="259.467" gradientUnits="userSpaceOnUse">
<stop stop-color="#EEA82C"/>
<stop offset="0.265625" stop-color="#FDCE67"/>
<stop offset="0.640625" stop-color="#C26F0B"/>
<stop offset="0.885417" stop-color="#E9BF62"/>
<stop offset="1" stop-color="#E4911E"/>
</linearGradient>
<linearGradient id="paint4_linear" x1="313.747" y1="163.39" x2="252.391" y2="250.113" gradientUnits="userSpaceOnUse">
<stop stop-color="#FBC954"/>
<stop offset="0.307292" stop-color="#FEE48E"/>
<stop offset="0.71875" stop-color="#D89A2A"/>
<stop offset="1" stop-color="#FDF0B1"/>
</linearGradient>
<linearGradient id="paint5_linear" x1="285.393" y1="167.224" x2="285.393" y2="250.243" gradientUnits="userSpaceOnUse">
<stop stop-color="#F9CB58"/>
<stop offset="0.53125" stop-color="#FDE794"/>
<stop offset="1" stop-color="#CE8A0B"/>
</linearGradient>
<linearGradient id="paint6_linear" x1="253.108" y1="172.495" x2="319.655" y2="250.243" gradientUnits="userSpaceOnUse">
<stop stop-color="#DD9731"/>
<stop offset="0.333333" stop-color="#ECD48A"/>
<stop offset="0.723958" stop-color="#C27C1C"/>
<stop offset="1" stop-color="#B16B06"/>
</linearGradient>
<linearGradient id="paint7_linear" x1="151.738" y1="378" x2="151.738" y2="461.477" gradientUnits="userSpaceOnUse">
<stop stop-color="#A7AAB1"/>
<stop offset="0.265625" stop-color="#9EA3A9"/>
<stop offset="0.640625" stop-color="#989DA6"/>
<stop offset="0.885417" stop-color="#D5D6DD"/>
<stop offset="1" stop-color="#929A9F"/>
</linearGradient>
<linearGradient id="paint8_linear" x1="175.607" y1="382.435" x2="125.13" y2="453.781" gradientUnits="userSpaceOnUse">
<stop stop-color="#8A8E97"/>
<stop offset="0.307292" stop-color="#93989E"/>
<stop offset="0.71875" stop-color="#BABBBF"/>
<stop offset="1" stop-color="#989DA3"/>
</linearGradient>
<linearGradient id="paint9_linear" x1="152.28" y1="385.589" x2="152.28" y2="453.888" gradientUnits="userSpaceOnUse">
<stop stop-color="#CBCED5"/>
<stop offset="0.53125" stop-color="#F0F1F6"/>
<stop offset="1" stop-color="#797F8B"/>
</linearGradient>
<linearGradient id="paint10_linear" x1="125.72" y1="389.925" x2="180.467" y2="453.888" gradientUnits="userSpaceOnUse">
<stop stop-color="#C6C9D0"/>
<stop offset="0.333333" stop-color="#F1F2F7"/>
<stop offset="0.723958" stop-color="#969BA5"/>
<stop offset="1" stop-color="#838A95"/>
</linearGradient>
<linearGradient id="paint11_linear" x1="369.515" y1="437" x2="369.515" y2="498.888" gradientUnits="userSpaceOnUse">
<stop stop-color="#C57230"/>
<stop offset="0.265625" stop-color="#EECDA5"/>
<stop offset="0.640625" stop-color="#95471B"/>
<stop offset="0.885417" stop-color="#E8CBA0"/>
<stop offset="1" stop-color="#C26831"/>
</linearGradient>
<linearGradient id="paint12_linear" x1="387.211" y1="440.288" x2="349.788" y2="493.183" gradientUnits="userSpaceOnUse">
<stop stop-color="#E3C69C"/>
<stop offset="0.307292" stop-color="#E9BE8F"/>
<stop offset="0.71875" stop-color="#A1562A"/>
<stop offset="1" stop-color="#D9A169"/>
</linearGradient>
<linearGradient id="paint13_linear" x1="369.917" y1="442.626" x2="369.917" y2="493.262" gradientUnits="userSpaceOnUse">
<stop stop-color="#E2B075"/>
<stop offset="0.53125" stop-color="#EDD5A8"/>
<stop offset="1" stop-color="#B06231"/>
</linearGradient>
<linearGradient id="paint14_linear" x1="350.225" y1="445.841" x2="390.814" y2="493.262" gradientUnits="userSpaceOnUse">
<stop stop-color="#CD7A36"/>
<stop offset="0.333333" stop-color="#E2B982"/>
<stop offset="0.723958" stop-color="#AB693E"/>
<stop offset="1" stop-color="#C9703D"/>
</linearGradient>
</defs>
</svg>
