<svg width="411" height="174" viewBox="0 0 411 174" fill="none" xmlns="http://www.w3.org/2000/svg">
<path d="M253.428 35.8218C253.77 27.8856 248.101 15.9812 234.923 16.5481C233.241 18.7211 230.885 23.0671 234.923 23.0671C239.97 23.0671 246.419 27.3187 246.419 34.9715C246.419 42.6242 241.372 45.4586 233.241 46.8758C225.109 48.2929 215.492 53.0944 231.839 53.3948C247.26 53.6782 253.148 42.3408 253.428 35.8218Z" fill="#FDBE24"/>
<path d="M153.015 35.8218C152.674 27.8856 158.342 15.9812 171.52 16.5481C173.203 18.7211 175.558 23.0671 171.52 23.0671C166.474 23.0671 160.025 27.3187 160.025 34.9715C160.025 42.6242 165.072 45.4586 173.203 46.8758C181.334 48.2929 190.951 53.0944 174.605 53.3948C159.183 53.6782 153.295 42.3408 153.015 35.8218Z" fill="#FDBE24"/>
<path d="M238.277 0H168.833C167.471 0.288961 166.381 0.866883 165.837 2.88961C165.292 4.91234 166.654 10.4026 168.016 11.8474C168.445 12.3028 169.105 12.7143 171.011 12.7143H235.009C235.735 12.7143 237.344 12.5569 238.005 12.1364C239.367 11.2695 240.728 5.79721 240.728 3.46753C240.728 1.4448 239.185 0.385281 238.277 0Z" fill="#FDC01A"/>
<path d="M233.994 47.2528C234.654 44.6213 235.368 23.1307 235.643 12.7143H170.8C171.349 23.4048 172.558 45.3888 172.998 47.801C173.547 50.8163 180.416 72.4714 203.496 72.4714C226.576 72.4714 233.17 50.5422 233.994 47.2528Z" fill="#FFD21D"/>
<path d="M214.028 85.1858H193.685L189.871 87.0929V88.3643H217.843V87.0929L214.028 85.1858Z" fill="#FFC022"/>
<path d="M174.614 25.4286V19.0715H182.879V25.4286H174.614Z" fill="#FEEA3D"/>
<path d="M182.243 31.7858H175.25C175.25 39.4144 176.605 45.9676 178.429 50.2215C182.243 59.1215 191.779 64.2072 191.779 64.2072C189.871 62.0882 184.913 56.4515 182.879 50.8572C180.844 45.2629 181.819 35.812 182.243 31.7858Z" fill="#FEEA3D"/>
<path d="M236.914 48.3143C241.364 47.6786 246.45 45.1357 247.085 40.05" stroke="#FAF186" stroke-linecap="round"/>
<path d="M162.536 21.6143C158.722 24.1571 155.543 27.9714 155.543 32.4214" stroke="#FAF186" stroke-linecap="round"/>
<path d="M201.411 20.3879C202.131 18.8539 204.313 18.8538 205.032 20.3879L208.734 28.2776C209.025 28.899 209.615 29.3274 210.296 29.4127L218.944 30.495C220.625 30.7054 221.299 32.7805 220.063 33.939L213.703 39.8975C213.202 40.3667 212.977 41.06 213.106 41.734L214.749 50.2927C215.068 51.9568 213.303 53.2392 211.819 52.4212L204.187 48.214C203.586 47.8827 202.857 47.8827 202.256 48.214L194.624 52.4212C193.14 53.2392 191.375 51.9568 191.694 50.2927L193.337 41.734C193.467 41.06 193.241 40.3667 192.741 39.8975L186.381 33.939C185.144 32.7805 185.818 30.7054 187.5 30.495L196.147 29.4127C196.828 29.3274 197.418 28.899 197.71 28.2776L201.411 20.3879Z" fill="#FAFFF9"/>
<g filter="url(#filter0_d)">
<path d="M222.293 61.0286L223.972 65.0711L228.014 66.75L223.972 68.429L222.293 72.4714L220.614 68.429L216.571 66.75L220.614 65.0711L222.293 61.0286Z" fill="#FFF8FF"/>
</g>
<path d="M229.286 47.0428L230.405 49.7378L233.1 50.8571L230.405 51.9764L229.286 54.6714L228.167 51.9764L225.472 50.8571L228.167 49.7378L229.286 47.0428Z" fill="#FFF8FF"/>
<path d="M180.972 20.3429L182.091 23.0379L184.786 24.1572L182.091 25.2765L180.972 27.9715L179.852 25.2765L177.157 24.1572L179.852 23.0379L180.972 20.3429Z" fill="#FFF8FF"/>
<path d="M170.8 14.6214V12.7143H235.007V19.0714L170.8 14.6214Z" fill="#FEAA2E"/>
<path d="M221.657 2.54282H229.286" stroke="#F1FFFF" stroke-width="2" stroke-linecap="round"/>
<path d="M175.25 10.1714L177.302 15.1122L182.243 17.1642L177.302 19.2163L175.25 24.1571L173.198 19.2163L168.257 17.1642L173.198 15.1122L175.25 10.1714Z" fill="#FFF8FF"/>
<path d="M193.686 83.1782L196.491 72.4715H211.222L214.028 82.5091V85.1857H193.686V83.1782Z" fill="#FFD21D"/>
<path d="M202.586 72.4714C198.517 72.4714 197.288 71.6238 196.864 71.2L196.229 73.1071L202.586 74.3786C205.703 75.0019 210.214 75.65 212.121 75.65L210.85 71.2C210.002 71.6238 206.654 72.4714 202.586 72.4714Z" fill="#FFAA2B"/>
<path d="M398.43 119.364H340.106H321V173.364H411L375.302 147.603L398.43 119.364Z" fill="#07568F"/>
<path d="M12.5 119.364H70.5H89.5V173.864H0L35.5 147.864L12.5 119.364Z" fill="#07568F"/>
<path d="M46 99.3643H365L348 158.364H62.7376L46 99.3643Z" fill="#0E6EB5"/>
<g filter="url(#filter1_d)">
<path d="M91.1276 139.364V121.22H84.6116V116.18H104.412V121.22H97.8956V139.364H91.1276ZM112.885 139.724C110.893 139.724 109.129 139.4 107.593 138.752C106.081 138.08 104.893 137.084 104.029 135.764C103.189 134.444 102.769 132.812 102.769 130.868C102.769 128.156 103.537 125.996 105.073 124.388C106.609 122.756 108.901 121.94 111.949 121.94C114.733 121.94 116.905 122.648 118.465 124.064C120.049 125.48 120.841 127.412 120.841 129.86V132.848H108.997C109.309 133.76 109.921 134.408 110.833 134.792C111.745 135.176 112.981 135.368 114.541 135.368C115.525 135.368 116.509 135.284 117.493 135.116C118.501 134.924 119.305 134.708 119.905 134.468V138.536C118.225 139.328 115.885 139.724 112.885 139.724ZM108.997 129.176H115.009V128.564C115.009 127.892 114.793 127.34 114.361 126.908C113.953 126.476 113.221 126.26 112.165 126.26C110.989 126.26 110.161 126.512 109.681 127.016C109.225 127.496 108.997 128.216 108.997 129.176ZM128.68 139.724C127.6 139.724 126.592 139.532 125.656 139.148C124.744 138.764 124.012 138.164 123.46 137.348C122.908 136.532 122.632 135.5 122.632 134.252C122.632 132.452 123.232 131.06 124.432 130.076C125.632 129.068 127.444 128.564 129.868 128.564H134.296V128.24C134.296 127.568 134.02 127.076 133.468 126.764C132.916 126.452 131.944 126.296 130.552 126.296C128.584 126.296 126.64 126.596 124.72 127.196V123.128C125.584 122.792 126.664 122.516 127.96 122.3C129.256 122.06 130.576 121.94 131.92 121.94C134.632 121.94 136.78 122.492 138.364 123.596C139.948 124.7 140.74 126.452 140.74 128.852V139.364H134.836L134.512 137.996C133.912 138.524 133.132 138.944 132.172 139.256C131.236 139.568 130.072 139.724 128.68 139.724ZM130.984 135.764C131.752 135.764 132.4 135.632 132.928 135.368C133.48 135.104 133.936 134.78 134.296 134.396V132.272H131.02C129.532 132.272 128.788 132.86 128.788 134.036C128.788 135.188 129.52 135.764 130.984 135.764ZM143.813 139.364V122.3H150.077L150.257 123.668C151.001 123.164 151.829 122.756 152.741 122.444C153.677 122.108 154.697 121.94 155.801 121.94C156.905 121.94 157.769 122.096 158.393 122.408C159.017 122.72 159.521 123.176 159.905 123.776C160.673 123.224 161.537 122.78 162.497 122.444C163.481 122.108 164.633 121.94 165.953 121.94C167.945 121.94 169.409 122.468 170.345 123.524C171.281 124.556 171.749 126.14 171.749 128.276V139.364H165.089V129.068C165.089 128.3 164.933 127.76 164.621 127.448C164.309 127.112 163.793 126.944 163.073 126.944C162.137 126.944 161.369 127.28 160.769 127.952C160.817 128.264 160.841 128.564 160.841 128.852C160.841 129.116 160.841 129.416 160.841 129.752V139.364H154.577V128.96C154.577 128.264 154.457 127.76 154.217 127.448C153.977 127.112 153.521 126.944 152.849 126.944C152.393 126.944 151.949 127.064 151.517 127.304C151.085 127.544 150.701 127.832 150.365 128.168V139.364H143.813ZM182.204 139.364V116.18H194.264C196.16 116.18 197.708 116.528 198.908 117.224C200.132 117.92 201.044 118.892 201.644 120.14C202.244 121.364 202.544 122.792 202.544 124.424C202.544 125.984 202.148 127.364 201.356 128.564C200.588 129.74 199.556 130.64 198.26 131.264C198.524 131.48 198.752 131.744 198.944 132.056C199.136 132.344 199.352 132.752 199.592 133.28L202.256 139.364H195.2L192.752 133.784C192.56 133.352 192.32 133.052 192.032 132.884C191.768 132.692 191.384 132.596 190.88 132.596H188.972V139.364H182.204ZM188.972 127.412H192.536C193.52 127.412 194.276 127.16 194.804 126.656C195.356 126.128 195.632 125.384 195.632 124.424C195.632 122.384 194.672 121.364 192.752 121.364H188.972V127.412ZM208.766 139.724C207.686 139.724 206.678 139.532 205.742 139.148C204.83 138.764 204.098 138.164 203.546 137.348C202.994 136.532 202.718 135.5 202.718 134.252C202.718 132.452 203.318 131.06 204.518 130.076C205.718 129.068 207.53 128.564 209.954 128.564H214.382V128.24C214.382 127.568 214.106 127.076 213.554 126.764C213.002 126.452 212.03 126.296 210.638 126.296C208.67 126.296 206.726 126.596 204.806 127.196V123.128C205.67 122.792 206.75 122.516 208.046 122.3C209.342 122.06 210.662 121.94 212.006 121.94C214.718 121.94 216.866 122.492 218.45 123.596C220.034 124.7 220.826 126.452 220.826 128.852V139.364H214.922L214.598 137.996C213.998 138.524 213.218 138.944 212.258 139.256C211.322 139.568 210.158 139.724 208.766 139.724ZM211.07 135.764C211.838 135.764 212.486 135.632 213.014 135.368C213.566 135.104 214.022 134.78 214.382 134.396V132.272H211.106C209.618 132.272 208.874 132.86 208.874 134.036C208.874 135.188 209.606 135.764 211.07 135.764ZM223.899 139.364V122.3H230.235L230.415 123.596C231.063 123.164 231.915 122.78 232.971 122.444C234.051 122.108 235.203 121.94 236.427 121.94C238.563 121.94 240.123 122.468 241.107 123.524C242.091 124.58 242.583 126.212 242.583 128.42V139.364H235.815V129.104C235.815 128.336 235.647 127.784 235.311 127.448C234.975 127.112 234.387 126.944 233.547 126.944C233.043 126.944 232.515 127.064 231.963 127.304C231.435 127.544 231.003 127.832 230.667 128.168V139.364H223.899ZM245.626 139.364V115.1H252.394V127.088L257.146 122.3H264.814L258.01 129.5L265.21 139.364H258.01L253.798 133.028L252.394 134.432V139.364H245.626ZM266.783 120.032V115.136H274.091V120.032H266.783ZM267.323 139.364V127.232H264.839L265.415 122.3H274.091V139.364H267.323ZM277.337 139.364V122.3H283.673L283.853 123.596C284.501 123.164 285.353 122.78 286.409 122.444C287.489 122.108 288.641 121.94 289.865 121.94C292.001 121.94 293.561 122.468 294.545 123.524C295.529 124.58 296.021 126.212 296.021 128.42V139.364H289.253V129.104C289.253 128.336 289.085 127.784 288.749 127.448C288.413 127.112 287.825 126.944 286.985 126.944C286.481 126.944 285.953 127.064 285.401 127.304C284.873 127.544 284.441 127.832 284.105 128.168V139.364H277.337ZM306.551 145.7C305.711 145.7 304.799 145.664 303.815 145.592C302.831 145.544 301.895 145.448 301.007 145.304C300.143 145.16 299.423 144.992 298.847 144.8V140.48C299.495 140.696 300.239 140.876 301.079 141.02C301.943 141.164 302.819 141.272 303.707 141.344C304.595 141.416 305.411 141.452 306.155 141.452C307.427 141.452 308.423 141.38 309.143 141.236C309.887 141.116 310.259 140.888 310.259 140.552C310.259 140.264 310.139 140.072 309.899 139.976C309.659 139.904 309.203 139.868 308.531 139.868H304.031C302.279 139.868 300.923 139.592 299.963 139.04C299.027 138.464 298.559 137.612 298.559 136.484C298.559 134.9 299.435 133.796 301.187 133.172C300.203 132.668 299.483 132.032 299.027 131.264C298.571 130.496 298.343 129.524 298.343 128.348C298.343 126.14 299.087 124.52 300.575 123.488C302.087 122.456 304.259 121.94 307.091 121.94C307.691 121.94 308.363 121.988 309.107 122.084C309.851 122.156 310.391 122.228 310.727 122.3H317.423L317.279 126.404H315.011C315.443 126.956 315.659 127.628 315.659 128.42C315.659 130.172 315.143 131.564 314.111 132.596C313.103 133.604 311.507 134.108 309.323 134.108C309.011 134.108 308.675 134.096 308.315 134.072C307.955 134.024 307.619 133.988 307.307 133.964C306.779 134.012 306.323 134.108 305.939 134.252C305.555 134.396 305.363 134.636 305.363 134.972C305.363 135.212 305.471 135.38 305.687 135.476C305.903 135.548 306.203 135.584 306.587 135.584H310.511C312.263 135.584 313.643 135.992 314.651 136.808C315.659 137.624 316.163 138.824 316.163 140.408C316.163 142.088 315.383 143.384 313.823 144.296C312.263 145.232 309.839 145.7 306.551 145.7ZM307.127 130.4C308.183 130.4 308.915 130.22 309.323 129.86C309.731 129.5 309.935 128.9 309.935 128.06C309.935 127.22 309.731 126.608 309.323 126.224C308.915 125.84 308.183 125.648 307.127 125.648C306.143 125.648 305.423 125.84 304.967 126.224C304.535 126.584 304.319 127.196 304.319 128.06C304.319 128.876 304.523 129.476 304.931 129.86C305.363 130.22 306.095 130.4 307.127 130.4ZM325.305 139.724C323.841 139.724 322.461 139.616 321.165 139.4C319.893 139.208 318.885 138.956 318.141 138.644V133.784C318.981 134.168 319.977 134.468 321.129 134.684C322.305 134.9 323.301 135.008 324.117 135.008C324.981 135.008 325.629 134.984 326.061 134.936C326.517 134.888 326.745 134.684 326.745 134.324C326.745 133.916 326.349 133.604 325.557 133.388C324.765 133.172 323.769 132.86 322.569 132.452C321.009 131.9 319.845 131.252 319.077 130.508C318.309 129.764 317.925 128.684 317.925 127.268C317.925 125.564 318.597 124.256 319.941 123.344C321.285 122.408 323.397 121.94 326.277 121.94C327.381 121.94 328.521 122.024 329.697 122.192C330.873 122.36 331.797 122.552 332.469 122.768V127.52C331.749 127.208 330.957 126.98 330.093 126.836C329.253 126.692 328.485 126.62 327.789 126.62C327.021 126.62 326.337 126.656 325.737 126.728C325.137 126.8 324.837 127.004 324.837 127.34C324.837 127.724 325.173 128 325.845 128.168C326.541 128.336 327.465 128.6 328.617 128.96C329.913 129.344 330.921 129.764 331.641 130.22C332.385 130.676 332.901 131.228 333.189 131.876C333.501 132.524 333.657 133.328 333.657 134.288C333.657 136.016 332.949 137.36 331.533 138.32C330.141 139.256 328.065 139.724 325.305 139.724Z" fill="white"/>
</g>
<path d="M168.453 84.5975C168.222 83.3438 167.905 82.1924 167.508 81.1787C167.102 80.1179 166.611 79.2094 166.032 78.4517C165.743 78.0676 165.431 77.7268 165.092 77.4338C164.754 77.1409 164.394 76.8681 164 76.6613C163.606 76.4586 163.188 76.2719 162.732 76.1497C162.273 76.0339 161.787 75.9379 161.254 75.9032C161.057 77.2395 161.081 78.4332 161.322 79.4947C161.444 80.0183 161.621 80.5041 161.848 80.958C162.076 81.4069 162.35 81.8412 162.678 82.2066C163.608 83.2924 164.942 84.0404 166.512 84.42C166.108 84.3728 165.66 84.3163 165.164 84.2504C164.187 84.1095 163.033 83.915 161.742 83.6388L161.663 83.5L161.58 83.3534C161.336 82.9176 161.031 82.3751 160.749 81.8188C160.495 81.3195 160.219 80.7568 159.978 80.2485C160.305 79.9686 160.435 79.5023 160.267 79.0799C160.056 78.5481 159.454 78.2885 158.923 78.4995C158.391 78.7105 158.132 79.3125 158.343 79.8442C158.525 80.3024 158.997 80.5579 159.465 80.4845C159.708 80.998 159.988 81.5686 160.246 82.0745C160.5 82.5764 160.771 83.0638 161.001 83.4749C159.95 83.2332 158.819 82.9359 157.625 82.5711C157.649 81.9682 157.65 81.3839 157.624 80.8229C157.598 80.2237 157.546 79.6493 157.465 79.1042C157.383 78.559 157.274 78.043 157.135 77.5605C156.998 77.0727 156.834 76.6083 156.637 76.1859C155.848 74.482 154.594 73.3305 152.594 72.7308C152.123 73.9648 151.897 75.1033 151.906 76.1625C151.912 76.6888 151.97 77.2069 152.094 77.6812C152.216 78.1582 152.395 78.6134 152.624 79.0461C153.279 80.2634 154.377 81.2632 155.777 81.9662L155.703 81.9409C154.341 81.4624 152.917 80.8899 151.461 80.2203L151.386 79.9832C151.217 79.4568 151.016 78.7094 150.879 78.1928C150.708 77.5453 150.561 76.9406 150.462 76.476C150.881 76.2428 151.079 75.7446 150.903 75.3014C150.711 74.8182 150.15 74.5873 149.651 74.7859C149.151 74.9844 148.901 75.5372 149.093 76.0204C149.23 76.3652 149.556 76.5777 149.912 76.6014C150.012 77.0735 150.16 77.685 150.333 78.3371C150.51 79.0061 150.65 79.5091 150.767 79.8942C149.75 79.4074 148.719 78.8722 147.685 78.2867C147.996 77.1155 148.192 75.9953 148.261 74.9589C148.294 74.4272 148.301 73.9081 148.274 73.41C148.246 72.9137 148.183 72.4424 148.081 71.9994C147.687 70.1974 146.728 68.8297 144.938 67.8361C144.584 68.3767 144.291 68.9091 144.06 69.4345C143.832 69.9567 143.668 70.4679 143.563 70.9729C143.353 71.982 143.381 72.9661 143.649 73.8751C144.007 75.1433 144.808 76.3024 145.945 77.255C145.119 76.7424 144.295 76.1983 143.477 75.6187C143.092 75.3453 142.709 75.0619 142.327 74.7736C142.319 74.6763 142.309 74.5678 142.3 74.4492C142.257 73.871 142.218 73.2112 142.192 72.6363C142.162 72.073 142.159 71.4972 142.157 71.0343L142.157 70.8434L142.19 70.8341C142.625 70.6614 142.837 70.1689 142.664 69.7338C142.491 69.299 141.999 69.0863 141.564 69.2589C141.13 69.4316 140.917 69.9244 141.09 70.3592C141.184 70.5945 141.372 70.7616 141.593 70.8408L141.592 71.0369C141.595 71.506 141.597 72.0896 141.628 72.6639C141.652 73.1836 141.686 73.7719 141.724 74.3111C140.822 73.6071 139.933 72.8633 139.063 72.081C139.601 71.0326 140.018 70.0087 140.296 69.0383C140.595 68.0234 140.751 67.0621 140.74 66.173C140.736 64.3686 140.103 62.8571 138.592 61.5341C137.693 62.4206 137.037 63.3296 136.634 64.2466C136.23 65.164 136.048 66.1152 136.119 67.0364C136.194 68.3049 136.707 69.5525 137.569 70.6823C136.582 69.7181 135.625 68.7052 134.71 67.6484C134.725 67.5337 134.743 67.3988 134.765 67.2446C134.844 66.6841 134.942 66.0508 135.034 65.5054C135.115 64.9974 135.225 64.476 135.312 64.0567L135.364 63.8193C135.433 63.8105 135.502 63.7962 135.57 63.7693C136.004 63.5966 136.217 63.1039 136.044 62.6691C135.871 62.2342 135.379 62.0215 134.944 62.1942C134.509 62.3669 134.297 62.8596 134.47 63.2944C134.539 63.47 134.663 63.6071 134.812 63.6996L134.76 63.9405C134.671 64.3656 134.56 64.8943 134.476 65.4134C134.389 65.9321 134.296 66.5298 134.22 67.071C133.532 66.2518 132.869 65.4085 132.237 64.5414C132.187 64.4725 132.139 64.4025 132.089 64.3334C132.816 63.4463 133.422 62.5574 133.886 61.6901C134.375 60.7847 134.726 59.8934 134.893 59.0434C135.26 57.3134 134.951 55.7367 133.766 54.1557C132.731 54.8212 131.935 55.5517 131.358 56.3521C131.07 56.7518 130.836 57.1684 130.656 57.5994C130.484 58.0256 130.369 58.4649 130.303 58.9159C130.159 59.8245 130.272 60.7486 130.547 61.6931C130.652 62.0125 130.781 62.3328 130.929 62.6527C130.189 61.5322 129.496 60.3843 128.854 59.2174L129.01 58.76C129.179 58.2967 129.402 57.7151 129.62 57.1665L129.957 56.3359C130.051 56.1137 130.144 55.9038 130.227 55.7185L130.259 55.6483C130.386 55.6593 130.517 55.645 130.643 55.5948C131.078 55.4221 131.29 54.9296 131.117 54.4945C130.945 54.0597 130.452 53.8472 130.018 54.0199C129.583 54.1926 129.37 54.6851 129.543 55.1199C129.589 55.2361 129.659 55.335 129.744 55.4163L129.711 55.4883C129.627 55.6766 129.532 55.89 129.435 56.1194L129.096 56.9556C128.879 57.5012 128.659 58.0762 128.488 58.5449C127.949 57.5296 127.449 56.5013 126.988 55.4665C127.853 54.7694 128.609 54.0431 129.225 53.3083C129.548 52.9241 129.825 52.5407 130.077 52.1499C130.331 51.7579 130.546 51.3644 130.716 50.9698C131.059 50.1799 131.205 49.394 131.215 48.5749C131.211 48.1678 131.155 47.7577 131.041 47.3419C130.935 46.9241 130.8 46.4928 130.588 46.0554C128.357 46.9188 126.927 48.2635 126.346 49.9378C126.197 50.3561 126.087 50.7968 126.033 51.2503C125.992 51.6992 125.996 52.1641 126.043 52.64C126.066 52.878 126.099 53.1187 126.143 53.3616C126.154 53.4257 126.169 53.49 126.182 53.5544C125.773 52.5211 125.401 51.4849 125.074 50.4513C125.009 50.245 124.944 50.04 124.879 49.8348L125.172 49.3399C125.359 49.0172 125.646 48.5836 125.923 48.1643L126.061 47.9558C126.338 47.5401 126.657 47.0742 126.944 46.667C127.118 46.7171 127.308 46.7154 127.489 46.6434C127.923 46.4707 128.136 45.978 127.963 45.5432C127.79 45.1083 127.298 44.8956 126.863 45.0683C126.428 45.241 126.216 45.7337 126.389 46.1685C126.414 46.2308 126.446 46.2871 126.483 46.3398C126.298 46.6025 125.965 47.0807 125.59 47.6435L125.452 47.8524C125.171 48.2786 124.879 48.7192 124.685 49.054L124.65 49.1123C124.604 48.9589 124.56 48.8046 124.523 48.6493C124.364 48.0471 124.208 47.4507 124.052 46.8607C123.967 46.5673 123.92 46.2671 123.853 45.9727L123.847 45.9444C124.807 45.4477 125.664 44.9032 126.39 44.3227C126.773 44.0187 127.107 43.7071 127.426 43.3821C127.745 43.057 128.026 42.7226 128.265 42.3788C128.504 42.0347 128.701 41.6814 128.851 41.3172C128.889 41.2261 128.923 41.1346 128.956 41.042C128.993 40.949 129.027 40.8551 129.057 40.7606C129.119 40.5717 129.169 40.3798 129.206 40.1844C129.281 39.7941 129.306 39.3904 129.277 38.9702C129.264 38.5486 129.212 38.1092 129.095 37.6487C126.8 38.0425 125.168 39.0523 124.291 40.5399C124.066 40.9108 123.881 41.3105 123.736 41.7341C123.61 42.1553 123.524 42.6002 123.476 43.064C123.452 43.2961 123.438 43.5327 123.433 43.7732C123.432 43.8129 123.433 43.8531 123.433 43.8929C123.404 43.7135 123.376 43.5332 123.347 43.3552C123.26 42.7808 123.158 42.216 123.085 41.656C123.026 41.1109 122.968 40.5739 122.91 40.0454L123.342 39.5703C123.695 39.202 124.105 38.7848 124.468 38.4255C124.807 38.0889 125.191 37.7166 125.536 37.3912C125.747 37.5037 126.004 37.5294 126.244 37.4339C126.679 37.2612 126.891 36.7687 126.718 36.3337C126.545 35.8988 126.053 35.6863 125.618 35.859C125.184 36.0317 124.971 36.5241 125.144 36.959L125.153 36.9757C124.805 37.3048 124.414 37.6828 124.07 38.0243C123.705 38.3867 123.29 38.8076 122.929 39.1848L122.836 39.2868C122.814 38.9855 122.798 38.6859 122.781 38.3903C122.753 37.8631 122.711 37.3462 122.697 36.839C122.69 36.6197 122.687 36.4033 122.683 36.1879C124.754 35.5955 126.411 34.7388 127.58 33.6339C127.874 33.35 128.129 33.0489 128.342 32.7283C128.557 32.4079 128.758 32.0701 128.9 31.709C129.045 31.3481 129.146 30.9651 129.198 30.5557C129.272 30.1487 129.3 29.7155 129.277 29.2509C128.139 29.2248 127.143 29.3729 126.279 29.6878C125.852 29.8454 125.439 30.0424 125.093 30.2814C124.741 30.5201 124.422 30.7971 124.137 31.1094C123.852 31.4213 123.6 31.7684 123.381 32.1458C123.171 32.5237 123.011 32.9332 122.875 33.3674C122.809 33.5876 122.748 33.8142 122.697 34.0466C122.752 32.0483 122.918 30.2743 123.115 28.7774C124.935 28.5427 126.446 28.0215 127.572 27.2126C127.856 27.0044 128.109 26.7757 128.33 26.5248C128.442 26.3996 128.538 26.2676 128.639 26.1322C128.741 25.997 128.834 25.8561 128.918 25.7089C129.087 25.4147 129.221 25.0955 129.317 24.7487C129.366 24.5752 129.404 24.3945 129.434 24.2067C129.473 24.0213 129.503 23.8282 129.523 23.6274C128.562 23.4856 127.689 23.5035 126.93 23.6803C126.177 23.8582 125.522 24.1904 124.963 24.6541C124.687 24.8867 124.419 25.1484 124.205 25.4455C123.989 25.7422 123.798 26.068 123.632 26.4189C123.539 26.6164 123.453 26.8222 123.375 27.0347C123.481 26.4633 123.576 25.9517 123.658 25.5063C123.732 25.0515 123.841 24.6744 123.908 24.3642L123.922 24.3058C124.135 24.1315 124.338 23.9555 124.528 23.7772C124.862 23.4701 125.139 23.1509 125.423 22.836C125.699 22.5188 125.937 22.194 126.136 21.8598C126.236 21.693 126.325 21.5237 126.405 21.3517C126.444 21.2658 126.481 21.1793 126.516 21.092C126.554 21.0056 126.591 20.9194 126.625 20.832C126.9 20.1354 126.99 19.3874 126.927 18.5877C126.879 17.7937 126.647 16.9361 126.215 15.9975C125.27 16.3515 124.5 16.8514 123.899 17.4545C123.314 18.063 122.929 18.7863 122.691 19.562C122.662 19.6592 122.634 19.7569 122.611 19.8562C122.591 19.9566 122.574 20.0576 122.559 20.1596C122.53 20.3633 122.51 20.5702 122.501 20.7793C122.481 21.1976 122.501 21.6253 122.559 22.0571C122.609 22.4866 122.74 22.9322 122.884 23.371C122.971 23.6254 123.071 23.8794 123.181 24.1323L123.167 24.1921C123.096 24.5067 122.982 24.8889 122.902 25.3498C122.813 25.8089 122.711 26.3364 122.596 26.9273C122.448 27.7744 122.298 28.7596 122.169 29.8617C122.165 29.7928 122.162 29.7231 122.159 29.6548C122.151 29.4179 122.134 29.1841 122.108 28.9538C122.007 28.033 121.745 27.162 121.392 26.365C121.026 25.5662 120.49 24.8274 119.8 24.1778C119.12 23.531 118.262 22.9676 117.204 22.5287C116.738 23.6411 116.596 24.7237 116.633 25.7116C116.644 25.9592 116.665 26.2006 116.704 26.4372C116.749 26.6749 116.807 26.9067 116.876 27.1322C117.014 27.5835 117.199 28.0098 117.427 28.409C117.871 29.2064 118.538 29.9011 119.332 30.4806C120.094 31.0375 120.985 31.4887 121.975 31.8424C121.898 32.8283 121.844 33.8869 121.826 35.0057L121.15 34.3697L120.539 33.7484C120.135 33.3326 119.729 32.8995 119.42 32.5663C119.478 32.4604 119.516 32.342 119.521 32.2141C119.542 31.7559 119.212 31.356 118.74 31.318C118.277 31.2805 117.846 31.6335 117.825 32.1096C117.803 32.5854 118.166 32.9877 118.635 33.0077C118.764 33.0132 118.887 32.9878 118.999 32.9421C119.311 33.2791 119.724 33.7199 120.136 34.1432L120.754 34.7722L121.818 35.7743C121.818 36.1319 121.819 36.4931 121.826 36.8622C121.837 37.3784 121.875 37.9048 121.898 38.4417C121.921 38.897 121.94 39.3609 121.985 39.8288C121.966 39.7517 121.946 39.6742 121.925 39.598C121.858 39.3616 121.804 39.1286 121.729 38.902C121.586 38.4479 121.41 38.0145 121.198 37.603C121.093 37.3974 120.975 37.1971 120.857 37.0025C120.743 36.8077 120.62 36.6186 120.488 36.4354C119.959 35.703 119.282 35.0646 118.447 34.546C117.632 34.0286 116.658 33.6305 115.505 33.3977C115.448 33.7026 115.405 34.0014 115.375 34.2938C115.344 34.5859 115.351 34.8721 115.357 35.1509C115.376 35.7084 115.446 36.2374 115.564 36.7335C115.673 37.2301 115.873 37.6931 116.099 38.1216C116.327 38.5501 116.598 38.9435 116.907 39.3009C117.062 39.4797 117.226 39.6493 117.399 39.8099C117.578 39.9701 117.769 40.1209 117.966 40.2628C118.362 40.5465 118.79 40.7938 119.248 41.0056C120.129 41.4139 121.119 41.6876 122.19 41.8418C122.259 42.3892 122.351 42.9413 122.432 43.503C122.476 43.7958 122.52 44.0907 122.565 44.3875C122.615 44.6364 122.665 44.8872 122.716 45.1388L122.388 44.9376C122.044 44.7231 121.615 44.4564 121.216 44.1814C120.732 43.851 120.243 43.5037 119.866 43.2322C119.906 43.1085 119.921 42.9761 119.9 42.8401C119.864 42.6012 119.731 42.3987 119.548 42.2617C119.372 42.124 119.141 42.0526 118.897 42.0827C118.653 42.1127 118.442 42.2396 118.3 42.4222C118.164 42.604 118.1 42.8411 118.138 43.0882C118.214 43.5838 118.669 43.9219 119.155 43.8438C119.296 43.8211 119.422 43.764 119.531 43.6869C119.912 43.9612 120.407 44.3127 120.897 44.6472C121.305 44.929 121.741 45.1998 122.09 45.4173L122.868 45.8951C122.887 45.9884 122.905 46.0809 122.924 46.1746C122.989 46.4752 123.036 46.7819 123.12 47.0817C123.273 47.6844 123.427 48.2938 123.583 48.9091C123.656 49.2187 123.75 49.5231 123.846 49.8291C123.854 49.8542 123.862 49.8798 123.869 49.905C123.712 49.5756 123.538 49.2597 123.377 48.9507C123.141 48.5228 122.876 48.1227 122.58 47.7517C122.284 47.3809 121.953 47.0401 121.621 46.7234C120.942 46.094 120.132 45.5892 119.188 45.237C118.246 44.8851 117.201 44.6799 115.991 44.6809C115.995 45.0003 116.009 45.3116 116.042 45.6122C116.084 45.911 116.138 46.2006 116.204 46.48C116.336 47.0392 116.514 47.5587 116.733 48.0355C116.838 48.2751 116.974 48.4988 117.113 48.7134C117.253 48.9277 117.403 49.1313 117.561 49.3238C117.878 49.709 118.23 50.0501 118.613 50.3468C118.989 50.6457 119.429 50.8905 119.882 51.0954C120.337 51.2996 120.818 51.4605 121.321 51.5795C122.298 51.8092 123.347 51.8825 124.471 51.8111C124.836 52.9087 125.249 54.0079 125.704 55.1024C125.26 54.9385 124.664 54.7145 124.066 54.4761C123.509 54.245 122.945 53.9969 122.509 53.8016C122.525 53.6651 122.515 53.5238 122.464 53.387C122.292 52.9201 121.764 52.673 121.283 52.8353C120.802 52.9976 120.556 53.5234 120.735 54.0093C120.914 54.4953 121.444 54.742 121.918 54.5606C122.059 54.5066 122.177 54.4192 122.273 54.3146C122.714 54.5123 123.287 54.7642 123.854 54.9993C124.731 55.3492 125.601 55.6675 126.007 55.814C126.563 57.0941 127.178 58.3654 127.85 59.6175C126.995 58.4353 126.015 57.4788 124.869 56.7961C124.448 56.556 124.027 56.3432 123.569 56.176C123.113 56.0082 122.631 55.8818 122.123 55.8011C121.869 55.7608 121.608 55.7321 121.341 55.715C121.078 55.6966 120.809 55.6905 120.533 55.6973C119.98 55.711 119.401 55.7765 118.796 55.9007C118.867 56.2205 118.939 56.5332 119.041 56.8256C119.143 57.1185 119.255 57.3992 119.377 57.6679C119.619 58.2052 119.899 58.6936 120.236 59.1204C120.567 59.5498 120.928 59.9287 121.319 60.2543C121.723 60.5745 122.152 60.843 122.603 61.0606C123.496 61.501 124.518 61.7133 125.573 61.7461C126.103 61.7611 126.643 61.7313 127.199 61.6538C127.726 61.5792 128.261 61.4646 128.802 61.3157C129.401 62.3376 130.036 63.3438 130.709 64.3263C130.188 64.2523 129.595 64.1646 129.009 64.0518C128.461 63.9505 127.837 63.8268 127.28 63.7095C127.268 63.5647 127.229 63.4204 127.151 63.2876C126.886 62.8472 126.305 62.7045 125.853 62.9694C125.402 63.2342 125.259 63.8215 125.536 64.2807C125.807 64.7432 126.411 64.872 126.849 64.5898C126.983 64.5035 127.083 64.3888 127.157 64.2609C127.718 64.3792 128.352 64.5049 128.905 64.6069C129.529 64.7272 130.162 64.8195 130.708 64.8969L131.149 64.9565C131.208 65.0389 131.264 65.1222 131.323 65.2041C132.121 66.3194 132.968 67.3986 133.853 68.4379C132.732 67.417 131.538 66.6498 130.219 66.208C129.302 65.8826 128.299 65.7395 127.253 65.7836C126.209 65.8273 125.095 66.0759 123.93 66.5792C124.486 67.8132 125.233 68.788 126.068 69.524C126.495 69.8846 126.944 70.187 127.408 70.4313C127.867 70.68 128.37 70.8477 128.868 70.9724C129.37 71.0926 129.877 71.1622 130.402 71.1683C130.928 71.1729 131.46 71.1244 131.995 71.0258C132.53 70.9272 133.068 70.7785 133.606 70.5834C134.117 70.3971 134.634 70.1631 135.146 69.895C135.959 70.7778 136.8 71.6263 137.661 72.4397C137.183 72.4742 136.571 72.5155 135.964 72.5296C135.388 72.5476 134.73 72.5593 134.15 72.5622C134.107 72.4148 134.035 72.2741 133.925 72.1547C133.561 71.7689 132.943 71.7514 132.546 72.1162C132.148 72.481 132.133 73.1035 132.514 73.5063C132.89 73.9131 133.522 73.9161 133.904 73.5344C134.022 73.4164 134.099 73.2755 134.145 73.1271C134.736 73.1242 135.4 73.1124 135.98 73.0943C136.665 73.0786 137.353 73.0284 137.859 72.992L138.222 72.9628C139.376 74.0205 140.566 75.0124 141.776 75.9328C140.411 75.1394 139.028 74.6209 137.593 74.4617C136.603 74.3349 135.568 74.4077 134.53 74.6785C133.493 74.9481 132.431 75.4377 131.373 76.1932C133.043 78.424 135.17 79.4913 137.286 79.5285C138.335 79.5647 139.406 79.3261 140.429 78.8998C141.425 78.4872 142.407 77.8539 143.338 77.0727C144.338 77.7722 145.346 78.4218 146.353 79.0245C145.759 79.198 145.228 79.3459 144.746 79.4716C144.175 79.614 143.519 79.7679 142.931 79.8979C142.856 79.7573 142.75 79.6308 142.61 79.5355C142.16 79.2251 141.536 79.3413 141.217 79.7958C140.897 80.2502 141.018 80.8823 141.488 81.2064C141.96 81.5278 142.599 81.3894 142.896 80.9239C142.991 80.7752 143.038 80.6126 143.05 80.45C143.643 80.3193 144.306 80.1636 144.886 80.0187C145.439 79.8746 146.048 79.7045 146.748 79.498L147.018 79.4157C148.487 80.2647 149.95 81.0151 151.38 81.6701C149.797 81.1544 148.258 80.9319 146.757 81.0773C146.24 81.1375 145.735 81.2282 145.232 81.3739C144.729 81.5197 144.23 81.7181 143.737 81.9723C142.756 82.4754 141.806 83.1884 140.913 84.1771C143.078 86.046 145.449 86.6366 147.569 86.222C148.637 86.0076 149.646 85.5537 150.576 84.8988C151.492 84.2457 152.329 83.4052 153.088 82.4148C153.817 82.7172 154.536 82.9955 155.237 83.2489C155.656 83.4002 156.068 83.5416 156.475 83.6767C156.046 83.9131 155.531 84.181 155.028 84.4403L154.895 84.508C154.622 84.6471 154.339 84.7908 154.08 84.9142L153.304 85.2756C153.196 85.1469 153.059 85.0407 152.893 84.9772C152.364 84.7832 151.772 85.0192 151.55 85.5515C151.331 86.0748 151.587 86.7027 152.139 86.9059C152.689 87.116 153.294 86.8498 153.49 86.3126C153.553 86.1391 153.564 85.9606 153.537 85.79L154.321 85.4252C154.589 85.2979 154.875 85.152 155.151 85.0112L155.285 84.9431C155.91 84.621 156.555 84.285 157.038 84.009L157.205 83.9129C159.02 84.485 160.695 84.9007 162.17 85.2074C160.448 85.0386 158.842 85.1501 157.354 85.6469C156.853 85.8116 156.365 86.0252 155.893 86.2897C155.424 86.5442 154.97 86.8485 154.535 87.2088C153.665 87.9295 152.868 88.8689 152.199 90.0449C154.784 91.4387 157.297 91.4901 159.325 90.5985C159.835 90.3737 160.316 90.0943 160.767 89.7649C161.22 89.4249 161.643 89.0345 162.035 88.6006C162.426 88.1663 162.786 87.6876 163.116 87.1694C163.433 86.6685 163.722 86.1237 163.984 85.5519C164.322 85.6099 164.646 85.6621 164.952 85.7089C166.151 85.8795 167.097 85.9959 167.745 86.0459C168.391 86.1052 168.736 86.1368 168.736 86.1368L169.921 84.6959C169.921 84.6959 169.117 84.645 168.453 84.5975Z" fill="url(#paint0_linear)"/>
<path d="M238.043 84.5975C238.274 83.3438 238.591 82.1924 238.988 81.1787C239.394 80.1179 239.885 79.2094 240.464 78.4517C240.753 78.0676 241.065 77.7268 241.404 77.4338C241.742 77.1409 242.102 76.8681 242.496 76.6613C242.89 76.4586 243.308 76.2719 243.765 76.1497C244.223 76.0339 244.71 75.9379 245.242 75.9032C245.439 77.2395 245.415 78.4332 245.174 79.4947C245.052 80.0183 244.875 80.5041 244.648 80.958C244.42 81.4069 244.146 81.8412 243.818 82.2066C242.888 83.2924 241.554 84.0404 239.984 84.42C240.388 84.3728 240.836 84.3163 241.332 84.2504C242.309 84.1095 243.463 83.915 244.754 83.6388L244.834 83.5L244.916 83.3534C245.16 82.9176 245.465 82.3751 245.747 81.8188C246.001 81.3195 246.277 80.7568 246.518 80.2485C246.191 79.9686 246.061 79.5023 246.229 79.0799C246.44 78.5481 247.042 78.2885 247.574 78.4995C248.105 78.7105 248.364 79.3125 248.153 79.8442C247.971 80.3024 247.499 80.5579 247.031 80.4845C246.788 80.998 246.508 81.5686 246.251 82.0745C245.996 82.5764 245.725 83.0638 245.495 83.4749C246.546 83.2332 247.678 82.9359 248.871 82.5711C248.847 81.9682 248.847 81.3839 248.872 80.8229C248.898 80.2237 248.95 79.6493 249.032 79.1042C249.113 78.559 249.222 78.043 249.361 77.5605C249.498 77.0727 249.662 76.6083 249.859 76.1859C250.649 74.482 251.902 73.3305 253.902 72.7308C254.374 73.9648 254.599 75.1033 254.59 76.1625C254.584 76.6888 254.527 77.2069 254.402 77.6812C254.28 78.1582 254.101 78.6134 253.872 79.0461C253.217 80.2634 252.119 81.2632 250.719 81.9662L250.793 81.9409C252.155 81.4624 253.579 80.8899 255.035 80.2203L255.11 79.9832C255.279 79.4568 255.48 78.7094 255.617 78.1928C255.789 77.5453 255.935 76.9406 256.034 76.476C255.615 76.2428 255.417 75.7446 255.593 75.3014C255.785 74.8182 256.346 74.5873 256.845 74.7859C257.345 74.9844 257.595 75.5372 257.403 76.0204C257.266 76.3652 256.941 76.5777 256.584 76.6014C256.484 77.0735 256.336 77.685 256.163 78.3371C255.986 79.0061 255.846 79.5091 255.729 79.8942C256.747 79.4074 257.777 78.8722 258.811 78.2867C258.5 77.1155 258.305 75.9953 258.235 74.9589C258.202 74.4272 258.195 73.9081 258.222 73.41C258.25 72.9137 258.313 72.4424 258.415 71.9994C258.809 70.1974 259.768 68.8297 261.559 67.8361C261.913 68.3767 262.205 68.9091 262.436 69.4345C262.664 69.9567 262.828 70.4679 262.933 70.9729C263.143 71.982 263.115 72.9661 262.847 73.8751C262.489 75.1433 261.688 76.3024 260.552 77.255C261.377 76.7424 262.201 76.1983 263.019 75.6187C263.404 75.3453 263.787 75.0619 264.169 74.7736C264.177 74.6763 264.187 74.5678 264.196 74.4492C264.239 73.871 264.278 73.2112 264.304 72.6363C264.334 72.073 264.337 71.4972 264.339 71.0343L264.339 70.8434L264.306 70.8341C263.871 70.6614 263.659 70.1689 263.832 69.7338C264.005 69.299 264.497 69.0863 264.932 69.2589C265.367 69.4316 265.579 69.9244 265.406 70.3592C265.313 70.5945 265.124 70.7616 264.903 70.8408L264.904 71.0369C264.902 71.506 264.899 72.0896 264.868 72.6639C264.844 73.1836 264.81 73.7719 264.772 74.3111C265.674 73.6071 266.563 72.8633 267.433 72.081C266.895 71.0326 266.478 70.0087 266.2 69.0383C265.901 68.0234 265.746 67.0621 265.756 66.173C265.76 64.3686 266.393 62.8571 267.904 61.5341C268.803 62.4206 269.459 63.3296 269.862 64.2466C270.266 65.164 270.449 66.1152 270.377 67.0364C270.302 68.3049 269.789 69.5525 268.927 70.6823C269.915 69.7181 270.871 68.7052 271.786 67.6484C271.771 67.5337 271.753 67.3988 271.731 67.2446C271.652 66.6841 271.555 66.0508 271.463 65.5054C271.381 64.9974 271.271 64.476 271.184 64.0567L271.132 63.8193C271.063 63.8105 270.994 63.7962 270.926 63.7693C270.492 63.5966 270.279 63.1039 270.452 62.6691C270.625 62.2342 271.118 62.0215 271.552 62.1942C271.987 62.3669 272.199 62.8596 272.026 63.2944C271.957 63.47 271.833 63.6071 271.684 63.6996L271.736 63.9405C271.825 64.3656 271.936 64.8943 272.02 65.4134C272.107 65.9321 272.2 66.5298 272.277 67.071C272.964 66.2518 273.627 65.4085 274.259 64.5414C274.309 64.4725 274.357 64.4025 274.407 64.3334C273.68 63.4463 273.074 62.5574 272.61 61.6901C272.122 60.7847 271.77 59.8934 271.603 59.0434C271.236 57.3134 271.545 55.7367 272.73 54.1557C273.765 54.8212 274.561 55.5517 275.138 56.3521C275.427 56.7518 275.66 57.1684 275.84 57.5994C276.012 58.0256 276.128 58.4649 276.194 58.9159C276.337 59.8245 276.224 60.7486 275.949 61.6931C275.844 62.0125 275.715 62.3328 275.568 62.6527C276.307 61.5322 277 60.3843 277.643 59.2174L277.486 58.76C277.317 58.2967 277.094 57.7151 276.876 57.1665L276.539 56.3359C276.445 56.1137 276.352 55.9038 276.269 55.7185L276.237 55.6483C276.11 55.6593 275.979 55.645 275.853 55.5948C275.418 55.4221 275.206 54.9296 275.379 54.4945C275.552 54.0597 276.044 53.8472 276.479 54.0199C276.913 54.1926 277.126 54.6851 276.953 55.1199C276.907 55.2361 276.837 55.335 276.752 55.4163L276.785 55.4883C276.869 55.6766 276.964 55.89 277.061 56.1194L277.4 56.9556C277.617 57.5012 277.837 58.0762 278.008 58.5449C278.548 57.5296 279.047 56.5013 279.509 55.4665C278.643 54.7694 277.887 54.0431 277.271 53.3083C276.948 52.9241 276.671 52.5407 276.419 52.1499C276.165 51.7579 275.95 51.3644 275.78 50.9698C275.437 50.1799 275.291 49.394 275.282 48.5749C275.285 48.1678 275.342 47.7577 275.456 47.3419C275.562 46.9241 275.696 46.4928 275.908 46.0554C278.139 46.9188 279.569 48.2635 280.15 49.9378C280.299 50.3561 280.409 50.7968 280.463 51.2503C280.504 51.6992 280.5 52.1641 280.453 52.64C280.43 52.878 280.397 53.1187 280.353 53.3616C280.342 53.4257 280.327 53.49 280.314 53.5544C280.723 52.5211 281.095 51.4849 281.422 50.4513C281.487 50.245 281.552 50.04 281.617 49.8348L281.324 49.3399C281.137 49.0172 280.85 48.5836 280.573 48.1643L280.435 47.9558C280.158 47.5401 279.839 47.0742 279.552 46.667C279.379 46.7171 279.188 46.7154 279.007 46.6434C278.573 46.4707 278.36 45.978 278.533 45.5432C278.706 45.1083 279.198 44.8956 279.633 45.0683C280.068 45.241 280.28 45.7337 280.107 46.1685C280.083 46.2308 280.05 46.2871 280.013 46.3398C280.198 46.6025 280.531 47.0807 280.906 47.6435L281.044 47.8524C281.326 48.2786 281.617 48.7192 281.811 49.054L281.846 49.1123C281.892 48.9589 281.936 48.8046 281.973 48.6493C282.132 48.0471 282.289 47.4507 282.444 46.8607C282.529 46.5673 282.576 46.2671 282.643 45.9727L282.649 45.9444C281.689 45.4477 280.832 44.9032 280.106 44.3227C279.723 44.0187 279.389 43.7071 279.07 43.3821C278.751 43.057 278.47 42.7226 278.231 42.3788C277.992 42.0347 277.795 41.6814 277.645 41.3172C277.607 41.2261 277.573 41.1346 277.54 41.042C277.503 40.949 277.47 40.8551 277.439 40.7606C277.377 40.5717 277.327 40.3798 277.29 40.1844C277.215 39.7941 277.19 39.3904 277.219 38.9702C277.233 38.5486 277.284 38.1092 277.401 37.6487C279.696 38.0425 281.328 39.0523 282.205 40.5399C282.43 40.9108 282.615 41.3105 282.76 41.7341C282.886 42.1553 282.972 42.6002 283.02 43.064C283.044 43.2961 283.058 43.5327 283.063 43.7732C283.064 43.8129 283.063 43.8531 283.063 43.8929C283.092 43.7135 283.121 43.5332 283.149 43.3552C283.237 42.7808 283.338 42.216 283.411 41.656C283.47 41.1109 283.529 40.5739 283.586 40.0454L283.154 39.5703C282.801 39.202 282.391 38.7848 282.028 38.4255C281.689 38.0889 281.305 37.7166 280.961 37.3912C280.749 37.5037 280.492 37.5294 280.252 37.4339C279.817 37.2612 279.605 36.7687 279.778 36.3337C279.951 35.8988 280.443 35.6863 280.878 35.859C281.312 36.0317 281.525 36.5241 281.352 36.959L281.343 36.9757C281.691 37.3048 282.082 37.6828 282.426 38.0243C282.791 38.3867 283.206 38.8076 283.567 39.1848L283.66 39.2868C283.682 38.9855 283.698 38.6859 283.715 38.3903C283.743 37.8631 283.785 37.3462 283.8 36.839C283.806 36.6197 283.809 36.4033 283.813 36.1879C281.742 35.5955 280.085 34.7388 278.916 33.6339C278.622 33.35 278.367 33.0489 278.155 32.7283C277.939 32.4079 277.738 32.0701 277.596 31.709C277.451 31.3481 277.35 30.9651 277.298 30.5557C277.224 30.1487 277.196 29.7155 277.219 29.2509C278.357 29.2248 279.353 29.3729 280.217 29.6878C280.644 29.8454 281.057 30.0424 281.403 30.2814C281.755 30.5201 282.074 30.7971 282.359 31.1094C282.644 31.4213 282.896 31.7684 283.115 32.1458C283.325 32.5237 283.485 32.9332 283.621 33.3674C283.687 33.5876 283.748 33.8142 283.799 34.0466C283.744 32.0483 283.578 30.2743 283.381 28.7774C281.561 28.5427 280.05 28.0215 278.924 27.2126C278.64 27.0044 278.387 26.7757 278.166 26.5248C278.054 26.3996 277.958 26.2676 277.857 26.1322C277.755 25.997 277.662 25.8561 277.578 25.7089C277.409 25.4147 277.275 25.0955 277.179 24.7487C277.131 24.5752 277.092 24.3945 277.062 24.2067C277.023 24.0213 276.993 23.8282 276.973 23.6274C277.934 23.4856 278.807 23.5035 279.566 23.6803C280.319 23.8582 280.974 24.1904 281.533 24.6541C281.809 24.8867 282.077 25.1484 282.291 25.4455C282.507 25.7422 282.698 26.068 282.864 26.4189C282.957 26.6164 283.043 26.8222 283.121 27.0347C283.015 26.4633 282.921 25.9517 282.838 25.5063C282.764 25.0515 282.655 24.6744 282.588 24.3642L282.574 24.3058C282.362 24.1315 282.159 23.9555 281.969 23.7772C281.634 23.4701 281.357 23.1509 281.073 22.836C280.798 22.5188 280.559 22.194 280.36 21.8598C280.261 21.693 280.171 21.5237 280.091 21.3517C280.052 21.2658 280.015 21.1793 279.98 21.092C279.942 21.0056 279.905 20.9194 279.871 20.832C279.597 20.1354 279.506 19.3874 279.569 18.5877C279.617 17.7937 279.849 16.9361 280.281 15.9975C281.226 16.3515 281.996 16.8514 282.597 17.4545C283.183 18.063 283.567 18.7863 283.805 19.562C283.834 19.6592 283.862 19.7569 283.885 19.8562C283.905 19.9566 283.922 20.0576 283.937 20.1596C283.966 20.3633 283.986 20.5702 283.996 20.7793C284.015 21.1976 283.995 21.6253 283.937 22.0571C283.888 22.4866 283.756 22.9322 283.612 23.371C283.525 23.6254 283.425 23.8794 283.315 24.1323L283.33 24.1921C283.4 24.5067 283.514 24.8889 283.594 25.3498C283.683 25.8089 283.785 26.3364 283.9 26.9273C284.048 27.7744 284.198 28.7596 284.327 29.8617C284.331 29.7928 284.334 29.7231 284.337 29.6548C284.345 29.4179 284.362 29.1841 284.388 28.9538C284.489 28.033 284.751 27.162 285.104 26.365C285.47 25.5662 286.006 24.8274 286.696 24.1778C287.376 23.531 288.235 22.9676 289.292 22.5287C289.758 23.6411 289.9 24.7237 289.863 25.7116C289.852 25.9592 289.831 26.2006 289.792 26.4372C289.747 26.6749 289.689 26.9067 289.621 27.1322C289.482 27.5835 289.297 28.0098 289.069 28.409C288.625 29.2064 287.958 29.9011 287.164 30.4806C286.402 31.0375 285.511 31.4887 284.521 31.8424C284.598 32.8283 284.652 33.8869 284.671 35.0057L285.346 34.3697L285.957 33.7484C286.361 33.3326 286.767 32.8995 287.076 32.5663C287.018 32.4604 286.981 32.342 286.975 32.2141C286.954 31.7559 287.284 31.356 287.757 31.318C288.22 31.2805 288.65 31.6335 288.671 32.1096C288.693 32.5854 288.33 32.9877 287.861 33.0077C287.732 33.0132 287.609 32.9878 287.497 32.9421C287.185 33.2791 286.772 33.7199 286.36 34.1432L285.742 34.7722L284.678 35.7743C284.678 36.1319 284.677 36.4931 284.67 36.8622C284.659 37.3784 284.622 37.9048 284.598 38.4417C284.575 38.897 284.556 39.3609 284.511 39.8288C284.53 39.7517 284.55 39.6742 284.571 39.598C284.638 39.3616 284.692 39.1286 284.767 38.902C284.91 38.4479 285.087 38.0145 285.298 37.603C285.403 37.3974 285.521 37.1971 285.639 37.0025C285.753 36.8077 285.876 36.6186 286.008 36.4354C286.537 35.703 287.215 35.0646 288.049 34.546C288.864 34.0286 289.838 33.6305 290.991 33.3977C291.048 33.7026 291.091 34.0014 291.121 34.2938C291.152 34.5859 291.145 34.8721 291.139 35.1509C291.12 35.7084 291.05 36.2374 290.932 36.7335C290.823 37.2301 290.623 37.6931 290.397 38.1216C290.169 38.5501 289.898 38.9435 289.589 39.3009C289.434 39.4797 289.27 39.6493 289.097 39.8099C288.918 39.9701 288.727 40.1209 288.53 40.2628C288.134 40.5465 287.706 40.7938 287.248 41.0056C286.367 41.4139 285.377 41.6876 284.306 41.8418C284.237 42.3892 284.145 42.9413 284.064 43.503C284.02 43.7958 283.976 44.0907 283.931 44.3875C283.881 44.6364 283.831 44.8872 283.78 45.1388L284.108 44.9376C284.453 44.7231 284.882 44.4564 285.28 44.1814C285.764 43.851 286.253 43.5037 286.63 43.2322C286.59 43.1085 286.575 42.9761 286.596 42.8401C286.633 42.6012 286.765 42.3987 286.948 42.2617C287.124 42.124 287.356 42.0526 287.599 42.0827C287.843 42.1127 288.054 42.2396 288.196 42.4222C288.332 42.604 288.396 42.8411 288.358 43.0882C288.282 43.5838 287.827 43.9219 287.342 43.8438C287.2 43.8211 287.074 43.764 286.965 43.6869C286.584 43.9612 286.09 44.3127 285.599 44.6472C285.191 44.929 284.756 45.1998 284.406 45.4173L283.628 45.8951C283.609 45.9884 283.591 46.0809 283.572 46.1746C283.507 46.4752 283.46 46.7819 283.376 47.0817C283.223 47.6844 283.069 48.2938 282.913 48.9091C282.84 49.2187 282.746 49.5231 282.65 49.8291C282.642 49.8542 282.634 49.8798 282.627 49.905C282.784 49.5756 282.958 49.2597 283.119 48.9507C283.355 48.5228 283.62 48.1227 283.916 47.7517C284.212 47.3809 284.543 47.0401 284.875 46.7234C285.554 46.094 286.364 45.5892 287.308 45.237C288.25 44.8851 289.295 44.6799 290.505 44.6809C290.501 45.0003 290.488 45.3116 290.454 45.6122C290.412 45.911 290.358 46.2006 290.292 46.48C290.16 47.0392 289.982 47.5587 289.763 48.0355C289.658 48.2751 289.522 48.4988 289.383 48.7134C289.243 48.9277 289.094 49.1313 288.935 49.3238C288.618 49.709 288.266 50.0501 287.883 50.3468C287.507 50.6457 287.067 50.8905 286.614 51.0954C286.159 51.2996 285.678 51.4605 285.175 51.5795C284.198 51.8092 283.149 51.8825 282.026 51.8111C281.66 52.9087 281.247 54.0079 280.792 55.1024C281.236 54.9385 281.832 54.7145 282.43 54.4761C282.987 54.245 283.551 53.9969 283.987 53.8016C283.971 53.6651 283.981 53.5238 284.032 53.387C284.204 52.9201 284.732 52.673 285.213 52.8353C285.694 52.9976 285.94 53.5234 285.761 54.0093C285.582 54.4953 285.052 54.742 284.579 54.5606C284.437 54.5066 284.319 54.4192 284.224 54.3146C283.782 54.5123 283.209 54.7642 282.643 54.9993C281.765 55.3492 280.895 55.6675 280.489 55.814C279.933 57.0941 279.318 58.3654 278.646 59.6175C279.502 58.4353 280.481 57.4788 281.627 56.7961C282.048 56.556 282.469 56.3432 282.927 56.176C283.383 56.0082 283.865 55.8818 284.373 55.8011C284.627 55.7608 284.888 55.7321 285.155 55.715C285.418 55.6966 285.687 55.6905 285.963 55.6973C286.516 55.711 287.095 55.7765 287.7 55.9007C287.629 56.2205 287.558 56.5332 287.455 56.8256C287.353 57.1185 287.241 57.3992 287.119 57.6679C286.877 58.2052 286.597 58.6936 286.26 59.1204C285.929 59.5498 285.568 59.9287 285.177 60.2543C284.773 60.5745 284.344 60.843 283.893 61.0606C283 61.501 281.978 61.7133 280.923 61.7461C280.393 61.7611 279.853 61.7313 279.297 61.6538C278.77 61.5792 278.235 61.4646 277.694 61.3157C277.095 62.3376 276.46 63.3438 275.788 64.3263C276.308 64.2523 276.901 64.1646 277.487 64.0518C278.035 63.9505 278.66 63.8268 279.216 63.7095C279.228 63.5647 279.267 63.4204 279.345 63.2876C279.61 62.8472 280.191 62.7045 280.643 62.9694C281.095 63.2342 281.237 63.8215 280.96 64.2807C280.689 64.7432 280.086 64.872 279.648 64.5898C279.513 64.5035 279.413 64.3888 279.339 64.2609C278.778 64.3792 278.144 64.5049 277.591 64.6069C276.967 64.7272 276.334 64.8195 275.788 64.8969L275.347 64.9565C275.288 65.0389 275.232 65.1222 275.173 65.2041C274.375 66.3194 273.528 67.3986 272.643 68.4379C273.764 67.417 274.959 66.6498 276.277 66.208C277.194 65.8826 278.197 65.7395 279.243 65.7836C280.287 65.8273 281.401 66.0759 282.566 66.5792C282.01 67.8132 281.263 68.788 280.429 69.524C280.001 69.8846 279.552 70.187 279.088 70.4313C278.629 70.68 278.126 70.8477 277.629 70.9724C277.126 71.0926 276.619 71.1622 276.095 71.1683C275.568 71.1729 275.036 71.1244 274.501 71.0258C273.966 70.9272 273.428 70.7785 272.891 70.5834C272.379 70.3971 271.862 70.1631 271.35 69.895C270.537 70.7778 269.696 71.6263 268.835 72.4397C269.313 72.4742 269.925 72.5155 270.532 72.5296C271.108 72.5476 271.766 72.5593 272.346 72.5622C272.389 72.4148 272.461 72.2741 272.571 72.1547C272.935 71.7689 273.553 71.7514 273.95 72.1162C274.348 72.481 274.363 73.1035 273.982 73.5063C273.606 73.9131 272.974 73.9161 272.593 73.5344C272.474 73.4164 272.397 73.2755 272.351 73.1271C271.761 73.1242 271.096 73.1124 270.516 73.0943C269.831 73.0786 269.143 73.0284 268.638 72.992L268.274 72.9628C267.12 74.0205 265.93 75.0124 264.72 75.9328C266.085 75.1394 267.468 74.6209 268.903 74.4617C269.893 74.3349 270.928 74.4077 271.967 74.6785C273.003 74.9481 274.065 75.4377 275.123 76.1932C273.453 78.424 271.327 79.4913 269.21 79.5285C268.161 79.5647 267.09 79.3261 266.067 78.8998C265.071 78.4872 264.089 77.8539 263.158 77.0727C262.158 77.7722 261.15 78.4218 260.143 79.0245C260.737 79.198 261.268 79.3459 261.75 79.4716C262.321 79.614 262.977 79.7679 263.565 79.8979C263.64 79.7573 263.746 79.6308 263.886 79.5355C264.336 79.2251 264.96 79.3413 265.28 79.7958C265.599 80.2502 265.478 80.8823 265.008 81.2064C264.536 81.5278 263.897 81.3894 263.6 80.9239C263.505 80.7752 263.458 80.6126 263.446 80.45C262.853 80.3193 262.19 80.1636 261.611 80.0187C261.057 79.8746 260.448 79.7045 259.748 79.498L259.478 79.4157C258.009 80.2647 256.546 81.0151 255.116 81.6701C256.699 81.1544 258.238 80.9319 259.739 81.0773C260.256 81.1375 260.761 81.2282 261.264 81.3739C261.767 81.5197 262.266 81.7181 262.759 81.9723C263.74 82.4754 264.69 83.1884 265.583 84.1771C263.418 86.046 261.047 86.6366 258.927 86.222C257.859 86.0076 256.85 85.5537 255.921 84.8988C255.005 84.2457 254.167 83.4052 253.408 82.4148C252.679 82.7172 251.961 82.9955 251.259 83.2489C250.84 83.4002 250.428 83.5416 250.021 83.6767C250.45 83.9131 250.965 84.181 251.468 84.4403L251.601 84.508C251.874 84.6471 252.157 84.7908 252.416 84.9142L253.192 85.2756C253.3 85.1469 253.437 85.0407 253.603 84.9772C254.132 84.7832 254.724 85.0192 254.946 85.5515C255.165 86.0748 254.909 86.7027 254.357 86.9059C253.807 87.116 253.202 86.8498 253.006 86.3126C252.943 86.1391 252.932 85.9606 252.959 85.79L252.175 85.4252C251.907 85.2979 251.621 85.152 251.345 85.0112L251.211 84.9431C250.586 84.621 249.941 84.285 249.458 84.009L249.292 83.9129C247.476 84.485 245.802 84.9007 244.326 85.2074C246.048 85.0386 247.654 85.1501 249.142 85.6469C249.643 85.8116 250.131 86.0252 250.603 86.2897C251.073 86.5442 251.526 86.8485 251.961 87.2088C252.831 87.9295 253.628 88.8689 254.298 90.0449C251.712 91.4387 249.199 91.4901 247.171 90.5985C246.661 90.3737 246.18 90.0943 245.729 89.7649C245.276 89.4249 244.853 89.0345 244.461 88.6006C244.07 88.1663 243.71 87.6876 243.38 87.1694C243.063 86.6685 242.774 86.1237 242.512 85.5519C242.174 85.6099 241.85 85.6621 241.544 85.7089C240.345 85.8795 239.399 85.9959 238.751 86.0459C238.105 86.1052 237.76 86.1368 237.76 86.1368L236.576 84.6959C236.576 84.6959 237.379 84.645 238.043 84.5975Z" fill="url(#paint1_linear)"/>
<path d="M89.5 173.864L63 158.364H89.5V173.864Z" fill="#339AE7"/>
<path d="M321 173.364L348 158.364H321V173.364Z" fill="#339AE7"/>
<defs>
<filter id="filter0_d" x="216.571" y="61.0286" width="11.4429" height="12.4429" filterUnits="userSpaceOnUse" color-interpolation-filters="sRGB">
<feFlood flood-opacity="0" result="BackgroundImageFix"/>
<feColorMatrix in="SourceAlpha" type="matrix" values="0 0 0 0 0 0 0 0 0 0 0 0 0 0 0 0 0 0 127 0"/>
<feOffset dy="1"/>
<feColorMatrix type="matrix" values="0 0 0 0 0 0 0 0 0 0 0 0 0 0 0 0 0 0 0.25 0"/>
<feBlend mode="normal" in2="BackgroundImageFix" result="effect1_dropShadow"/>
<feBlend mode="normal" in="SourceGraphic" in2="effect1_dropShadow" result="shape"/>
</filter>
<filter id="filter1_d" x="80.6113" y="115.1" width="257.046" height="38.6" filterUnits="userSpaceOnUse" color-interpolation-filters="sRGB">
<feFlood flood-opacity="0" result="BackgroundImageFix"/>
<feColorMatrix in="SourceAlpha" type="matrix" values="0 0 0 0 0 0 0 0 0 0 0 0 0 0 0 0 0 0 127 0"/>
<feOffset dy="4"/>
<feGaussianBlur stdDeviation="2"/>
<feColorMatrix type="matrix" values="0 0 0 0 0 0 0 0 0 0 0 0 0 0 0 0 0 0 0.25 0"/>
<feBlend mode="normal" in2="BackgroundImageFix" result="effect1_dropShadow"/>
<feBlend mode="normal" in="SourceGraphic" in2="effect1_dropShadow" result="shape"/>
</filter>
<linearGradient id="paint0_linear" x1="153.308" y1="92.9939" x2="123.196" y2="17.1953" gradientUnits="userSpaceOnUse">
<stop stop-color="#FDC01A"/>
<stop offset="0.371443" stop-color="#FFD21D"/>
<stop offset="0.52194" stop-color="#FFD21D"/>
<stop offset="0.719984" stop-color="#FFD21D"/>
<stop offset="1" stop-color="#FDC01A"/>
</linearGradient>
<linearGradient id="paint1_linear" x1="253.188" y1="92.9939" x2="283.301" y2="17.1953" gradientUnits="userSpaceOnUse">
<stop stop-color="#FDC01A"/>
<stop offset="0.371443" stop-color="#FFD21D"/>
<stop offset="0.52194" stop-color="#FFD21D"/>
<stop offset="0.719984" stop-color="#FFD21D"/>
<stop offset="1" stop-color="#FDC01A"/>
</linearGradient>
</defs>
</svg>
