<svg width="97" height="112" viewBox="0 0 97 112" fill="none" xmlns="http://www.w3.org/2000/svg">
<path d="M95 52.5L92.5 50L92 52.5H95Z" fill="#A630B0"/>
<path d="M3.5 99L0.5 96L3.5 95.5V99Z" fill="#A630B0"/>
<g filter="url(#filter0_di)">
<path d="M0 52C0 49.7909 1.79086 48 4 48H89C91.2091 48 93 49.7909 93 52V95C93 96.1046 92.1046 97 91 97H2C0.895429 97 0 96.1046 0 95V52Z" fill="#6C45AC"/>
</g>
<path d="M3 95.3552C32.8343 81.8443 85.5414 103.462 85.5414 75.8525L93 54V97H3V95.3552Z" fill="white" fill-opacity="0.2"/>
<g filter="url(#filter1_d)">
<path d="M47.0564 85.36C40.5524 85.36 37.3004 82.228 37.3004 75.964V71.5C37.3004 69.58 37.7324 67.864 38.5964 66.352C39.4604 64.84 40.7084 63.652 42.3404 62.788C43.9724 61.9 45.9404 61.456 48.2444 61.456C49.5164 61.456 50.6324 61.54 51.5924 61.708C52.5764 61.852 53.5124 62.092 54.4004 62.428V67.684C53.5844 67.324 52.7204 67.072 51.8084 66.928C50.9204 66.76 49.9484 66.676 48.8924 66.676C47.1644 66.676 45.8564 67.012 44.9684 67.684C44.0804 68.332 43.6364 69.136 43.6364 70.096V70.744C44.2604 70.336 45.0284 70.024 45.9404 69.808C46.8524 69.592 47.7044 69.484 48.4964 69.484C51.3524 69.484 53.4284 70.156 54.7244 71.5C56.0444 72.82 56.7044 74.728 56.7044 77.224C56.7044 78.784 56.3804 80.188 55.7324 81.436C55.0844 82.66 54.0524 83.62 52.6364 84.316C51.2204 85.012 49.3604 85.36 47.0564 85.36ZM47.0924 80.572C48.2924 80.572 49.1804 80.308 49.7564 79.78C50.3564 79.228 50.6564 78.46 50.6564 77.476C50.6564 76.444 50.3924 75.664 49.8644 75.136C49.3604 74.584 48.4604 74.308 47.1644 74.308C46.5644 74.308 45.9644 74.404 45.3644 74.596C44.7644 74.788 44.1884 75.052 43.6364 75.388V77.08C43.6364 78.28 43.9244 79.168 44.5004 79.744C45.0764 80.296 45.9404 80.572 47.0924 80.572Z" fill="white"/>
</g>
<rect x="26.5615" y="5.46338" width="2.34147" height="42.9269" fill="url(#paint0_linear)"/>
<circle cx="27.7317" cy="2.73171" r="2.73171" fill="#D06132"/>
<circle cx="26.951" cy="2.73177" r="1.17073" fill="#FFC3AA"/>
<ellipse cx="49" cy="108.5" rx="48" ry="3.5" fill="#C4C4C4"/>
<defs>
<filter id="filter0_di" x="0" y="48" width="96" height="52" filterUnits="userSpaceOnUse" color-interpolation-filters="sRGB">
<feFlood flood-opacity="0" result="BackgroundImageFix"/>
<feColorMatrix in="SourceAlpha" type="matrix" values="0 0 0 0 0 0 0 0 0 0 0 0 0 0 0 0 0 0 127 0"/>
<feOffset dx="3" dy="3"/>
<feColorMatrix type="matrix" values="0 0 0 0 0.649344 0 0 0 0 0.187326 0 0 0 0 0.691667 0 0 0 1 0"/>
<feBlend mode="normal" in2="BackgroundImageFix" result="effect1_dropShadow"/>
<feBlend mode="normal" in="SourceGraphic" in2="effect1_dropShadow" result="shape"/>
<feColorMatrix in="SourceAlpha" type="matrix" values="0 0 0 0 0 0 0 0 0 0 0 0 0 0 0 0 0 0 127 0" result="hardAlpha"/>
<feOffset dx="7" dy="6"/>
<feComposite in2="hardAlpha" operator="arithmetic" k2="-1" k3="1"/>
<feColorMatrix type="matrix" values="0 0 0 0 0 0 0 0 0 0 0 0 0 0 0 0 0 0 0.25 0"/>
<feBlend mode="normal" in2="shape" result="effect2_innerShadow"/>
</filter>
<filter id="filter1_d" x="33.3008" y="61.4561" width="27.404" height="31.904" filterUnits="userSpaceOnUse" color-interpolation-filters="sRGB">
<feFlood flood-opacity="0" result="BackgroundImageFix"/>
<feColorMatrix in="SourceAlpha" type="matrix" values="0 0 0 0 0 0 0 0 0 0 0 0 0 0 0 0 0 0 127 0"/>
<feOffset dy="4"/>
<feGaussianBlur stdDeviation="2"/>
<feColorMatrix type="matrix" values="0 0 0 0 0 0 0 0 0 0 0 0 0 0 0 0 0 0 0.25 0"/>
<feBlend mode="normal" in2="BackgroundImageFix" result="effect1_dropShadow"/>
<feBlend mode="normal" in="SourceGraphic" in2="effect1_dropShadow" result="shape"/>
</filter>
<linearGradient id="paint0_linear" x1="29.6835" y1="24.2439" x2="26.1713" y2="24.2439" gradientUnits="userSpaceOnUse">
<stop stop-color="#BE410B"/>
<stop offset="1" stop-color="#FFB697"/>
</linearGradient>
</defs>
</svg>
