<svg width="97" height="112" viewBox="0 0 97 112" fill="none" xmlns="http://www.w3.org/2000/svg">
<path d="M95 52.5L92.5 50L92 52.5H95Z" fill="#A630B0"/>
<path d="M3.5 99L0.5 96L3.5 95.5V99Z" fill="#A630B0"/>
<g filter="url(#filter0_di)">
<path d="M0 52C0 49.7909 1.79086 48 4 48H89C91.2091 48 93 49.7909 93 52V95C93 96.1046 92.1046 97 91 97H2C0.895429 97 0 96.1046 0 95V52Z" fill="#6C45AC"/>
</g>
<path d="M3 95.3552C32.8343 81.8443 85.5414 103.462 85.5414 75.8525L93 54V97H3V95.3552Z" fill="white" fill-opacity="0.2"/>
<g filter="url(#filter1_d)">
<path d="M40.1952 85L47.8272 67H38.5752V61.816H55.4232V65.704L47.2512 85H40.1952Z" fill="white"/>
</g>
<rect x="26.5615" y="5.46338" width="2.34147" height="42.9269" fill="url(#paint0_linear)"/>
<circle cx="27.7317" cy="2.73171" r="2.73171" fill="#D06132"/>
<circle cx="26.951" cy="2.73177" r="1.17073" fill="#FFC3AA"/>
<ellipse cx="49" cy="108.5" rx="48" ry="3.5" fill="#C4C4C4"/>
<defs>
<filter id="filter0_di" x="0" y="48" width="96" height="52" filterUnits="userSpaceOnUse" color-interpolation-filters="sRGB">
<feFlood flood-opacity="0" result="BackgroundImageFix"/>
<feColorMatrix in="SourceAlpha" type="matrix" values="0 0 0 0 0 0 0 0 0 0 0 0 0 0 0 0 0 0 127 0"/>
<feOffset dx="3" dy="3"/>
<feColorMatrix type="matrix" values="0 0 0 0 0.649344 0 0 0 0 0.187326 0 0 0 0 0.691667 0 0 0 1 0"/>
<feBlend mode="normal" in2="BackgroundImageFix" result="effect1_dropShadow"/>
<feBlend mode="normal" in="SourceGraphic" in2="effect1_dropShadow" result="shape"/>
<feColorMatrix in="SourceAlpha" type="matrix" values="0 0 0 0 0 0 0 0 0 0 0 0 0 0 0 0 0 0 127 0" result="hardAlpha"/>
<feOffset dx="7" dy="6"/>
<feComposite in2="hardAlpha" operator="arithmetic" k2="-1" k3="1"/>
<feColorMatrix type="matrix" values="0 0 0 0 0 0 0 0 0 0 0 0 0 0 0 0 0 0 0.25 0"/>
<feBlend mode="normal" in2="shape" result="effect2_innerShadow"/>
</filter>
<filter id="filter1_d" x="34.5752" y="61.8159" width="24.848" height="31.184" filterUnits="userSpaceOnUse" color-interpolation-filters="sRGB">
<feFlood flood-opacity="0" result="BackgroundImageFix"/>
<feColorMatrix in="SourceAlpha" type="matrix" values="0 0 0 0 0 0 0 0 0 0 0 0 0 0 0 0 0 0 127 0"/>
<feOffset dy="4"/>
<feGaussianBlur stdDeviation="2"/>
<feColorMatrix type="matrix" values="0 0 0 0 0 0 0 0 0 0 0 0 0 0 0 0 0 0 0.25 0"/>
<feBlend mode="normal" in2="BackgroundImageFix" result="effect1_dropShadow"/>
<feBlend mode="normal" in="SourceGraphic" in2="effect1_dropShadow" result="shape"/>
</filter>
<linearGradient id="paint0_linear" x1="29.6835" y1="24.2439" x2="26.1713" y2="24.2439" gradientUnits="userSpaceOnUse">
<stop stop-color="#BE410B"/>
<stop offset="1" stop-color="#FFB697"/>
</linearGradient>
</defs>
</svg>
