<svg width="481" height="131" viewBox="0 0 481 131" fill="none" xmlns="http://www.w3.org/2000/svg">
<path d="M467.93 77H409.606H390.5V131H480.5L444.802 105.239L467.93 77Z" fill="#07568F"/>
<path d="M12.5698 77H70.8939H90V131H0L35.6983 105.239L12.5698 77Z" fill="#07568F"/>
<path d="M46 57L435 57L417.5 116H62.9999L46 57Z" fill="#0E6EB5"/>
<path d="M390.5 131L417.5 116H390.5V131Z" fill="#339AE7"/>
<path d="M90.0001 131L63 116H90.0001V131Z" fill="#339AE7"/>
<g filter="url(#filter0_d)">
<path d="M218.022 99V80.28H211.218V75.816H230.622V80.28H223.818V99H218.022ZM239.058 99.36C235.77 99.36 233.346 98.604 231.786 97.092C230.226 95.556 229.446 93.348 229.446 90.468C229.446 87.612 230.226 85.416 231.786 83.88C233.37 82.344 235.794 81.576 239.058 81.576C242.346 81.576 244.77 82.344 246.33 83.88C247.914 85.416 248.706 87.612 248.706 90.468C248.706 93.348 247.926 95.556 246.366 97.092C244.806 98.604 242.37 99.36 239.058 99.36ZM239.058 94.824C240.402 94.824 241.362 94.488 241.938 93.816C242.514 93.144 242.802 92.028 242.802 90.468C242.802 88.908 242.514 87.792 241.938 87.12C241.362 86.448 240.402 86.112 239.058 86.112C237.738 86.112 236.79 86.448 236.214 87.12C235.638 87.792 235.35 88.908 235.35 90.468C235.35 92.028 235.638 93.144 236.214 93.816C236.79 94.488 237.738 94.824 239.058 94.824ZM251.647 106.776V81.936H256.687L256.975 83.412C257.671 82.836 258.451 82.392 259.315 82.08C260.179 81.744 261.187 81.576 262.339 81.576C264.763 81.576 266.683 82.236 268.099 83.556C269.515 84.852 270.223 87.036 270.223 90.108C270.223 93.156 269.491 95.46 268.027 97.02C266.587 98.58 264.595 99.36 262.051 99.36C260.251 99.36 258.715 98.988 257.443 98.244V106.776H251.647ZM260.575 95.112C263.071 95.112 264.319 93.408 264.319 90C264.319 88.368 264.031 87.264 263.455 86.688C262.879 86.112 261.955 85.824 260.683 85.824C259.459 85.824 258.379 86.256 257.443 87.12V94.032C257.899 94.368 258.355 94.632 258.811 94.824C259.291 95.016 259.879 95.112 260.575 95.112ZM280.897 99V75.816H292.309C294.157 75.816 295.681 76.188 296.881 76.932C298.081 77.652 298.969 78.636 299.545 79.884C300.145 81.132 300.445 82.536 300.445 84.096C300.445 85.68 300.109 87.084 299.437 88.308C298.765 89.532 297.805 90.492 296.557 91.188C295.333 91.86 293.869 92.196 292.165 92.196H286.693V99H280.897ZM286.693 87.732H290.869C292.093 87.732 293.005 87.396 293.605 86.724C294.229 86.052 294.541 85.164 294.541 84.06C294.541 82.86 294.253 81.936 293.677 81.288C293.125 80.616 292.249 80.28 291.049 80.28H286.693V87.732ZM307.985 99.36C306.113 99.36 304.769 98.952 303.953 98.136C303.137 97.32 302.729 96.012 302.729 94.212V74.736H308.525V93.636C308.525 94.188 308.633 94.572 308.849 94.788C309.089 94.98 309.437 95.076 309.893 95.076C310.541 95.076 311.117 94.992 311.621 94.824V98.748C311.069 98.964 310.517 99.12 309.965 99.216C309.437 99.312 308.777 99.36 307.985 99.36ZM319.131 99.36C318.051 99.36 317.043 99.168 316.107 98.784C315.195 98.4 314.463 97.812 313.911 97.02C313.359 96.204 313.083 95.196 313.083 93.996C313.083 92.244 313.671 90.876 314.847 89.892C316.047 88.884 317.835 88.38 320.211 88.38H324.963V87.984C324.963 87.12 324.675 86.508 324.099 86.148C323.523 85.764 322.443 85.572 320.859 85.572C318.915 85.572 317.007 85.872 315.135 86.472V82.728C315.975 82.392 316.995 82.116 318.195 81.9C319.419 81.684 320.703 81.576 322.047 81.576C324.687 81.576 326.751 82.116 328.239 83.196C329.751 84.276 330.507 85.992 330.507 88.344V99H325.431L325.143 97.56C324.519 98.136 323.715 98.58 322.731 98.892C321.771 99.204 320.571 99.36 319.131 99.36ZM320.967 95.796C321.879 95.796 322.671 95.64 323.343 95.328C324.015 95.016 324.555 94.62 324.963 94.14V91.728H320.859C319.155 91.728 318.303 92.412 318.303 93.78C318.303 94.404 318.519 94.896 318.951 95.256C319.383 95.616 320.055 95.796 320.967 95.796ZM337.441 105.336C336.577 105.336 335.833 105.288 335.209 105.192C334.609 105.12 334.009 104.964 333.409 104.724V100.692C333.817 100.836 334.189 100.932 334.525 100.98C334.885 101.028 335.245 101.052 335.605 101.052C336.589 101.052 337.321 100.872 337.801 100.512C338.305 100.176 338.809 99.564 339.313 98.676L331.645 81.936H337.729L342.229 92.772L346.657 81.936H352.705L346.189 97.596C345.541 99.156 344.821 100.512 344.029 101.664C343.237 102.84 342.313 103.74 341.257 104.364C340.201 105.012 338.929 105.336 337.441 105.336ZM362.462 99.36C359.486 99.36 357.098 98.628 355.298 97.164C353.498 95.676 352.598 93.444 352.598 90.468C352.598 87.756 353.342 85.596 354.83 83.988C356.318 82.38 358.55 81.576 361.526 81.576C364.238 81.576 366.338 82.272 367.826 83.664C369.314 85.056 370.058 86.928 370.058 89.28V92.34H357.962C358.226 93.468 358.838 94.26 359.798 94.716C360.782 95.148 362.114 95.364 363.794 95.364C364.73 95.364 365.678 95.28 366.638 95.112C367.622 94.944 368.438 94.728 369.086 94.464V98.244C368.27 98.628 367.298 98.904 366.17 99.072C365.042 99.264 363.806 99.36 362.462 99.36ZM357.962 88.992H365.018V88.236C365.018 87.396 364.766 86.736 364.262 86.256C363.758 85.752 362.906 85.5 361.706 85.5C360.314 85.5 359.342 85.788 358.79 86.364C358.238 86.916 357.962 87.792 357.962 88.992ZM373.006 99V81.936H378.514L378.694 83.52C379.438 83.064 380.362 82.656 381.466 82.296C382.57 81.912 383.674 81.672 384.778 81.576V85.932C384.154 86.004 383.458 86.124 382.69 86.292C381.946 86.436 381.226 86.616 380.53 86.832C379.858 87.048 379.282 87.276 378.802 87.516V99H373.006ZM393.123 99.36C391.755 99.36 390.459 99.264 389.235 99.072C388.011 98.88 387.039 98.64 386.319 98.352V93.924C387.159 94.284 388.131 94.56 389.235 94.752C390.339 94.944 391.323 95.04 392.187 95.04C393.219 95.04 393.963 94.992 394.419 94.896C394.899 94.8 395.139 94.536 395.139 94.104C395.139 93.624 394.755 93.264 393.987 93.024C393.219 92.784 392.163 92.436 390.819 91.98C389.259 91.428 388.071 90.792 387.255 90.072C386.463 89.328 386.067 88.236 386.067 86.796C386.067 85.116 386.691 83.832 387.939 82.944C389.211 82.032 391.227 81.576 393.987 81.576C395.067 81.576 396.135 81.66 397.191 81.828C398.247 81.996 399.111 82.188 399.783 82.404V86.76C399.111 86.448 398.343 86.22 397.479 86.076C396.615 85.932 395.835 85.86 395.139 85.86C394.251 85.86 393.495 85.92 392.871 86.04C392.271 86.136 391.971 86.388 391.971 86.796C391.971 87.252 392.307 87.576 392.979 87.768C393.651 87.936 394.623 88.224 395.895 88.632C397.239 89.04 398.283 89.484 399.027 89.964C399.771 90.42 400.299 90.972 400.611 91.62C400.923 92.268 401.079 93.084 401.079 94.068C401.079 95.772 400.407 97.08 399.063 97.992C397.719 98.904 395.739 99.36 393.123 99.36Z" fill="white"/>
</g>
<g clip-path="url(#clip0)">
<g filter="url(#filter1_d)">
<path d="M154.803 75.6035L149.002 81.4043V93.1992L154.803 99H184V75.6035H154.803Z" fill="#737EE6"/>
</g>
<g filter="url(#filter2_d)">
<path d="M85 69.8027V99H114.197L119.998 93.1992V75.6035L114.197 69.8027H85Z" fill="#F27281"/>
</g>
<g filter="url(#filter3_d)">
<path d="M114.197 58.2012H154.803V99H114.197V58.2012Z" fill="#FDBF00"/>
</g>
<g filter="url(#filter4_d)">
<path d="M134.5 58.2012H154.803V99H134.5V58.2012Z" fill="#FF9100"/>
</g>
<path d="M146.101 29.1973H144.583V23.3965H146.101C150.899 23.3965 154.802 19.2997 154.802 14.502V11.6016H146.101V5.80078H160.603V14.502C160.603 22.4977 154.097 29.1973 146.101 29.1973Z" fill="#FF9100"/>
<path d="M124.417 29.1973H122.898C114.903 29.1973 108.396 22.4977 108.396 14.502V5.80078H122.898V11.6016H114.197V14.502C114.197 19.2997 118.101 23.3965 122.898 23.3965H124.417V29.1973Z" fill="#FDBF00"/>
<path d="M119.998 0V20.4961C119.998 22.7582 120.52 24.9048 121.506 26.877C122.667 29.2554 124.523 31.5176 126.379 33.6634C128.931 36.7383 131.6 39.8706 131.6 42.5391V49.5H137.4V42.5391C137.4 39.8706 140.069 36.7383 142.621 33.6634C144.477 31.5176 146.333 29.2554 147.494 26.9351C148.48 24.9048 149.002 22.7582 149.002 20.4961V0H119.998Z" fill="#FFDA2D"/>
<path d="M137.4 49.5H134.5V0H149.002V20.4961C149.002 22.7582 148.48 24.9048 147.494 26.9351C146.333 29.2554 144.477 31.5176 142.621 33.6634C140.069 36.7383 137.4 39.8706 137.4 42.5391V49.5Z" fill="#FDBF00"/>
<path d="M176.711 59.0396L165.823 53.3181L154.941 59.0396L157.02 46.9198L148.217 38.3373L160.383 36.5698L165.823 25.5431L171.264 36.5698L183.629 38.3373L174.626 46.9198L176.711 59.0396Z" fill="#FF9100"/>
<path d="M114.059 59.0396L103.177 53.3181L92.289 59.0396L94.3736 46.9199L85.3711 38.3373L97.7355 36.5698L103.177 25.5438L108.618 36.5698L120.783 38.3373L111.98 46.9199L114.059 59.0396Z" fill="#FDBF00"/>
<path d="M143.201 81.4043V87.2051H125.799V81.4043H131.6V75.6035H125.799V69.8027H137.4V81.4043H143.201Z" fill="#596C76"/>
<path d="M125.799 46.5996H143.201V52.4004H125.799V46.5996Z" fill="#FDBF00"/>
<path d="M134.5 46.5996H143.201V52.4004H134.5V46.5996Z" fill="#FF9100"/>
<path d="M137.4 81.4043H143.201V87.2051H134.5V69.8027H137.4V81.4043Z" fill="#465A61"/>
</g>
<defs>
<filter id="filter0_d" x="207.219" y="74.736" width="197.861" height="40.04" filterUnits="userSpaceOnUse" color-interpolation-filters="sRGB">
<feFlood flood-opacity="0" result="BackgroundImageFix"/>
<feColorMatrix in="SourceAlpha" type="matrix" values="0 0 0 0 0 0 0 0 0 0 0 0 0 0 0 0 0 0 127 0"/>
<feOffset dy="4"/>
<feGaussianBlur stdDeviation="2"/>
<feColorMatrix type="matrix" values="0 0 0 0 0 0 0 0 0 0 0 0 0 0 0 0 0 0 0.25 0"/>
<feBlend mode="normal" in2="BackgroundImageFix" result="effect1_dropShadow"/>
<feBlend mode="normal" in="SourceGraphic" in2="effect1_dropShadow" result="shape"/>
</filter>
<filter id="filter1_d" x="145.002" y="75.6035" width="42.998" height="31.3965" filterUnits="userSpaceOnUse" color-interpolation-filters="sRGB">
<feFlood flood-opacity="0" result="BackgroundImageFix"/>
<feColorMatrix in="SourceAlpha" type="matrix" values="0 0 0 0 0 0 0 0 0 0 0 0 0 0 0 0 0 0 127 0"/>
<feOffset dy="4"/>
<feGaussianBlur stdDeviation="2"/>
<feColorMatrix type="matrix" values="0 0 0 0 0 0 0 0 0 0 0 0 0 0 0 0 0 0 0.25 0"/>
<feBlend mode="normal" in2="BackgroundImageFix" result="effect1_dropShadow"/>
<feBlend mode="normal" in="SourceGraphic" in2="effect1_dropShadow" result="shape"/>
</filter>
<filter id="filter2_d" x="81" y="69.8027" width="42.998" height="37.1973" filterUnits="userSpaceOnUse" color-interpolation-filters="sRGB">
<feFlood flood-opacity="0" result="BackgroundImageFix"/>
<feColorMatrix in="SourceAlpha" type="matrix" values="0 0 0 0 0 0 0 0 0 0 0 0 0 0 0 0 0 0 127 0"/>
<feOffset dy="4"/>
<feGaussianBlur stdDeviation="2"/>
<feColorMatrix type="matrix" values="0 0 0 0 0 0 0 0 0 0 0 0 0 0 0 0 0 0 0.25 0"/>
<feBlend mode="normal" in2="BackgroundImageFix" result="effect1_dropShadow"/>
<feBlend mode="normal" in="SourceGraphic" in2="effect1_dropShadow" result="shape"/>
</filter>
<filter id="filter3_d" x="110.197" y="58.2012" width="48.6055" height="48.7988" filterUnits="userSpaceOnUse" color-interpolation-filters="sRGB">
<feFlood flood-opacity="0" result="BackgroundImageFix"/>
<feColorMatrix in="SourceAlpha" type="matrix" values="0 0 0 0 0 0 0 0 0 0 0 0 0 0 0 0 0 0 127 0"/>
<feOffset dy="4"/>
<feGaussianBlur stdDeviation="2"/>
<feColorMatrix type="matrix" values="0 0 0 0 0 0 0 0 0 0 0 0 0 0 0 0 0 0 0.25 0"/>
<feBlend mode="normal" in2="BackgroundImageFix" result="effect1_dropShadow"/>
<feBlend mode="normal" in="SourceGraphic" in2="effect1_dropShadow" result="shape"/>
</filter>
<filter id="filter4_d" x="130.5" y="58.2012" width="28.3027" height="48.7988" filterUnits="userSpaceOnUse" color-interpolation-filters="sRGB">
<feFlood flood-opacity="0" result="BackgroundImageFix"/>
<feColorMatrix in="SourceAlpha" type="matrix" values="0 0 0 0 0 0 0 0 0 0 0 0 0 0 0 0 0 0 127 0"/>
<feOffset dy="4"/>
<feGaussianBlur stdDeviation="2"/>
<feColorMatrix type="matrix" values="0 0 0 0 0 0 0 0 0 0 0 0 0 0 0 0 0 0 0.25 0"/>
<feBlend mode="normal" in2="BackgroundImageFix" result="effect1_dropShadow"/>
<feBlend mode="normal" in="SourceGraphic" in2="effect1_dropShadow" result="shape"/>
</filter>
<clipPath id="clip0">
<rect width="99" height="99" fill="white" transform="translate(85)"/>
</clipPath>
</defs>
</svg>
